<?xml version="1.0" encoding="utf-8"?>
<!-- Generator: Adobe Illustrator 26.5.0, SVG Export Plug-In . SVG Version: 6.00 Build 0)  -->
<svg version="1.1" id="Layer_1" xmlns="http://www.w3.org/2000/svg" xmlns:xlink="http://www.w3.org/1999/xlink" x="0px" y="0px"
	 viewBox="0 0 115 83.5" style="enable-background:new 0 0 115 83.5;" xml:space="preserve">
<style type="text/css">
	.st0{fill:url(#SVGID_1_);}
	.st1{fill:#F1F2F2;}
	.st2{fill:#FFFFFF;stroke:#D1D3D4;stroke-miterlimit:10;}
	.st3{fill:#231F20;}
	.st4{fill:none;stroke:#D1D3D4;stroke-width:0.5;stroke-miterlimit:10;}
	.st5{fill:none;stroke:#BA0000;stroke-miterlimit:10;}
	.st6{font-family:'SourceSans3-Regular';}
	.st7{font-size:2px;}
</style>
<linearGradient id="SVGID_1_" gradientUnits="userSpaceOnUse" x1="57.5198" y1="84.413" x2="57.5198" y2="-9.094947e-13">
	<stop  offset="0.3301" style="stop-color:#91B1CE"/>
	<stop  offset="1" style="stop-color:#FFFFFF;stop-opacity:0"/>
</linearGradient>
<rect class="st0" width="115" height="84.4"/>
<polygon class="st1" points="0,75.4 39.5,62 67,9.8 70.6,20.8 99.4,84.2 0,84.7 "/>
<path class="st2" d="M76.3,24.7l-2.7-3.1c-2.2-2.5-4.1-5.4-5.4-8.4l0.9-2.3l1.5,0.2L71.3,9l6.1,9.3l4.9-0.6c0.4,0,0.7,0.2,0.9,0.6
	l0.2,0.8c0.1,0.4-0.1,0.7-0.4,0.9l-5,2.7L76.3,24.7z"/>
<g>
	<path class="st2" d="M33.7,63.9c-0.3,0.1-0.5,0.2-0.8,0.3l-18.5,6.3L11,71.3c-0.9,0.2-1.4-1-0.6-1.5l2.6-1.5
		c0.3-1.3,1.3-2.4,2.6-2.9l14.2-5.1l2,1l-0.3,1.5L33.7,63.9z"/>
	<ellipse transform="matrix(0.9464 -0.3229 0.3229 0.9464 -20.2869 10.2127)" class="st3" cx="20.6" cy="66.3" rx="0.4" ry="0.6"/>
	<ellipse transform="matrix(0.9464 -0.3229 0.3229 0.9464 -20.0164 10.7162)" class="st3" cx="22.3" cy="65.7" rx="0.4" ry="0.6"/>
	<ellipse transform="matrix(0.9464 -0.3229 0.3229 0.9464 -19.7458 11.2196)" class="st3" cx="23.9" cy="65.1" rx="0.4" ry="0.6"/>
	<ellipse transform="matrix(0.9464 -0.3229 0.3229 0.9464 -19.4752 11.723)" class="st3" cx="25.6" cy="64.6" rx="0.4" ry="0.6"/>
	<ellipse transform="matrix(0.9464 -0.3229 0.3229 0.9464 -19.2046 12.2264)" class="st3" cx="27.2" cy="64" rx="0.4" ry="0.6"/>
	<ellipse transform="matrix(0.9464 -0.3229 0.3229 0.9464 -18.934 12.7298)" class="st3" cx="28.9" cy="63.4" rx="0.4" ry="0.6"/>
	<polyline class="st4" points="13.3,67.5 15.4,66.8 15.6,67.4 13,68.4 	"/>
	<path class="st4" d="M18.7,68.7L18,68.9c-0.2,0.1-0.4,0-0.5-0.2L17,67c-0.1-0.2,0-0.4,0.2-0.5l0.6-0.2c0.2-0.1,0.4,0,0.5,0.2
		l0.5,1.6C19,68.4,18.9,68.6,18.7,68.7z"/>
</g>
<path class="st2" d="M85.5,46.8l9,7.1l0.2-2.6l-8.7-9.8c0.1-3-0.3-5.2-0.9-5.3c-0.7,0-1.5,2.9-1.7,6.6c-0.2,3.7,0.1,6.8,0.9,6.8
	C84.7,49.7,85.2,48.5,85.5,46.8z"/>
<circle class="st5" cx="66.9" cy="11.3" r="7.7"/>
<text transform="matrix(1 0 0 1 39.4854 7.7996)"><tspan x="0" y="0" class="st6 st7">En el último impacto</tspan><tspan x="-2.2" y="2.4" class="st6 st7"> el avión perdió la cola. </tspan></text>
<text transform="matrix(1 0 0 1 89.9051 36.23)"><tspan x="0" y="0" class="st6 st7">El avión perdió ambas alas, </tspan><tspan x="0" y="2.4" class="st6 st7">en las que se encontraban</tspan><tspan x="0" y="4.8" class="st6 st7">las hélices. </tspan></text>
<text transform="matrix(1 0 0 1 27.2481 71.3413)"><tspan x="0" y="0" class="st6 st7">Los sobrevivientes vivieron</tspan><tspan x="0" y="2.4" class="st6 st7">en la parte delantera del</tspan><tspan x="0" y="4.8" class="st6 st7">avión durante los siguientes</tspan><tspan x="0" y="7.2" class="st6 st7">72 días.  </tspan></text>
<text transform="matrix(1 0 0 1 7.8398 51.0046)"><tspan x="0" y="0" class="st6 st7">La parte delantera del</tspan><tspan x="1.9" y="2.4" class="st6 st7">avión se deslizó por</tspan><tspan x="-0.5" y="4.8" class="st6 st7">un banco de nieve por </tspan><tspan x="6.5" y="7.2" class="st6 st7">varios metros.</tspan></text>
<path class="st5" d="M61.5,16.8L41.6,53.5c-1.7,3.2-4.5,5.6-7.9,6.9l0,0"/>
<polyline class="st5" points="34.6,57.3 33.7,60.4 36.6,61.3 "/>
</svg>
