<?xml version="1.0" encoding="utf-8"?>
<!-- Generator: Adobe Illustrator 26.5.0, SVG Export Plug-In . SVG Version: 6.00 Build 0)  -->
<svg version="1.1" id="Layer_1" xmlns="http://www.w3.org/2000/svg" xmlns:xlink="http://www.w3.org/1999/xlink" x="0px" y="0px"
	 viewBox="0 0 100 49.7" style="enable-background:new 0 0 100 49.7;" xml:space="preserve">
<style type="text/css">
	.st0{fill:#BA0000;}
	.st1{font-family:'SourceSans3-Regular';}
	.st2{font-size:2px;}
	.st3{font-size:1.5px;}
	.st4{fill:none;stroke:#BCBEC0;stroke-width:0.2509;stroke-miterlimit:10;}
	.st5{fill:#FFFFFF;}
	.st6{fill:none;stroke:#BA0000;stroke-width:0.5;stroke-miterlimit:10;}
	.st7{fill:#BCBEC0;}
	.st8{fill:#231F20;}
	.st9{font-family:'MyriadPro-Semibold';}
	.st10{font-size:3.0102px;}
	.st11{fill:none;stroke:#BCBEC0;stroke-width:0.2317;stroke-miterlimit:10;}
</style>
<g>
	<g>
		<path d="M7.7,16.4c0.2,0,0.3-0.1,0.3-0.3c0-0.2-0.1-0.3-0.3-0.3c-0.2,0-0.3,0.1-0.3,0.3C7.4,16.3,7.5,16.4,7.7,16.4z"/>
		<path d="M8.3,16.9c0-0.2-0.2-0.4-0.4-0.4H7.5c-0.2,0-0.4,0.2-0.4,0.4v0.9c0,0,0,0.1,0.1,0.1h0c0,0,0.1,0,0.1-0.1l0-0.8
			c0,0,0-0.1,0-0.1c0,0,0,0,0,0.1v0.7v0.2v1.3c0,0,0,0.1,0.1,0.1h0.1c0,0,0.1,0,0.1-0.1v-1.3c0,0,0-0.1,0-0.1c0,0,0,0,0,0.1v1.3
			c0,0,0,0.1,0.1,0.1H8c0,0,0.1,0,0.1-0.1l0-1.3v-0.2V17c0,0,0-0.1,0-0.1c0,0,0,0,0,0.1v0.8c0,0,0,0.1,0.1,0.1h0c0,0,0.1,0,0.1-0.1
			L8.3,16.9z"/>
	</g>
	<g>
		<path d="M9.2,16.4c0.2,0,0.3-0.1,0.3-0.3c0-0.2-0.1-0.3-0.3-0.3c-0.2,0-0.3,0.1-0.3,0.3C8.9,16.3,9,16.4,9.2,16.4z"/>
		<path d="M9.8,16.9c0-0.2-0.2-0.4-0.4-0.4H9c-0.2,0-0.4,0.2-0.4,0.4v0.9c0,0,0,0.1,0.1,0.1h0c0,0,0.1,0,0.1-0.1l0-0.8
			c0,0,0-0.1,0-0.1c0,0,0,0,0,0.1v0.7v0.2v1.3c0,0,0,0.1,0.1,0.1h0.1c0,0,0.1,0,0.1-0.1v-1.3c0,0,0-0.1,0-0.1c0,0,0,0,0,0.1v1.3
			c0,0,0,0.1,0.1,0.1h0.1c0,0,0.1,0,0.1-0.1l0-1.3v-0.2V17c0,0,0-0.1,0-0.1c0,0,0,0,0,0.1v0.8c0,0,0,0.1,0.1,0.1h0
			c0,0,0.1,0,0.1-0.1L9.8,16.9z"/>
	</g>
	<g>
		<path d="M10.7,16.4c0.2,0,0.3-0.1,0.3-0.3c0-0.2-0.1-0.3-0.3-0.3s-0.3,0.1-0.3,0.3C10.4,16.3,10.5,16.4,10.7,16.4z"/>
		<path d="M11.3,16.9c0-0.2-0.2-0.4-0.4-0.4h-0.5c-0.2,0-0.4,0.2-0.4,0.4v0.9c0,0,0,0.1,0.1,0.1h0c0,0,0.1,0,0.1-0.1l0-0.8
			c0,0,0-0.1,0-0.1c0,0,0,0,0,0.1v0.7v0.2v1.3c0,0,0,0.1,0.1,0.1h0.1c0,0,0.1,0,0.1-0.1v-1.3c0,0,0-0.1,0-0.1c0,0,0,0,0,0.1v1.3
			c0,0,0,0.1,0.1,0.1h0.1c0,0,0.1,0,0.1-0.1l0-1.3v-0.2V17c0,0,0-0.1,0-0.1c0,0,0,0,0,0.1v0.8c0,0,0,0.1,0.1,0.1h0
			c0,0,0.1,0,0.1-0.1L11.3,16.9z"/>
	</g>
	<g>
		<path class="st0" d="M12.2,16.4c0.2,0,0.3-0.1,0.3-0.3c0-0.2-0.1-0.3-0.3-0.3c-0.2,0-0.3,0.1-0.3,0.3C11.9,16.3,12,16.4,12.2,16.4
			z"/>
		<path class="st0" d="M12.8,16.9c0-0.2-0.2-0.4-0.4-0.4h-0.5c-0.2,0-0.4,0.2-0.4,0.4v0.9c0,0,0,0.1,0.1,0.1h0c0,0,0.1,0,0.1-0.1
			l0-0.8c0,0,0-0.1,0-0.1c0,0,0,0,0,0.1v0.7v0.2v1.3c0,0,0,0.1,0.1,0.1H12c0,0,0.1,0,0.1-0.1v-1.3c0,0,0-0.1,0-0.1c0,0,0,0,0,0.1
			v1.3c0,0,0,0.1,0.1,0.1h0.1c0,0,0.1,0,0.1-0.1l0-1.3v-0.2V17c0,0,0-0.1,0-0.1c0,0,0,0,0,0.1v0.8c0,0,0,0.1,0.1,0.1h0
			c0,0,0.1,0,0.1-0.1L12.8,16.9z"/>
	</g>
	<g>
		<path class="st0" d="M13.7,16.4c0.2,0,0.3-0.1,0.3-0.3c0-0.2-0.1-0.3-0.3-0.3s-0.3,0.1-0.3,0.3C13.3,16.3,13.5,16.4,13.7,16.4z"/>
		<path class="st0" d="M14.3,16.9c0-0.2-0.2-0.4-0.4-0.4h-0.5c-0.2,0-0.4,0.2-0.4,0.4v0.9c0,0,0,0.1,0.1,0.1h0c0,0,0.1,0,0.1-0.1
			l0-0.8c0,0,0-0.1,0-0.1c0,0,0,0,0,0.1v0.7v0.2v1.3c0,0,0,0.1,0.1,0.1h0.1c0,0,0.1,0,0.1-0.1v-1.3c0,0,0-0.1,0-0.1c0,0,0,0,0,0.1
			v1.3c0,0,0,0.1,0.1,0.1h0.1c0,0,0.1,0,0.1-0.1l0-1.3v-0.2V17c0,0,0-0.1,0-0.1c0,0,0,0,0,0.1v0.8c0,0,0,0.1,0.1,0.1h0
			c0,0,0.1,0,0.1-0.1L14.3,16.9z"/>
	</g>
	<g>
		<path class="st0" d="M15.1,16.4c0.2,0,0.3-0.1,0.3-0.3c0-0.2-0.1-0.3-0.3-0.3s-0.3,0.1-0.3,0.3C14.8,16.3,15,16.4,15.1,16.4z"/>
		<path class="st0" d="M15.8,16.9c0-0.2-0.2-0.4-0.4-0.4h-0.5c-0.2,0-0.4,0.2-0.4,0.4v0.9c0,0,0,0.1,0.1,0.1h0c0,0,0.1,0,0.1-0.1
			l0-0.8c0,0,0-0.1,0-0.1c0,0,0,0,0,0.1v0.7v0.2v1.3c0,0,0,0.1,0.1,0.1H15c0,0,0.1,0,0.1-0.1v-1.3c0,0,0-0.1,0-0.1c0,0,0,0,0,0.1
			v1.3c0,0,0,0.1,0.1,0.1h0.1c0,0,0.1,0,0.1-0.1l0-1.3v-0.2V17c0,0,0-0.1,0-0.1c0,0,0,0,0,0.1v0.8c0,0,0,0.1,0.1,0.1h0
			c0,0,0.1,0,0.1-0.1L15.8,16.9z"/>
	</g>
	<g>
		<path class="st0" d="M16.6,16.4c0.2,0,0.3-0.1,0.3-0.3c0-0.2-0.1-0.3-0.3-0.3c-0.2,0-0.3,0.1-0.3,0.3
			C16.3,16.3,16.5,16.4,16.6,16.4z"/>
		<path class="st0" d="M17.3,16.9c0-0.2-0.2-0.4-0.4-0.4h-0.5c-0.2,0-0.4,0.2-0.4,0.4v0.9c0,0,0,0.1,0.1,0.1h0c0,0,0.1,0,0.1-0.1
			l0-0.8c0,0,0-0.1,0-0.1c0,0,0,0,0,0.1v0.7v0.2v1.3c0,0,0,0.1,0.1,0.1h0.1c0,0,0.1,0,0.1-0.1v-1.3c0,0,0-0.1,0-0.1c0,0,0,0,0,0.1
			v1.3c0,0,0,0.1,0.1,0.1h0.1c0,0,0.1,0,0.1-0.1l0-1.3v-0.2V17c0,0,0-0.1,0-0.1c0,0,0,0,0,0.1v0.8c0,0,0,0.1,0.1,0.1h0
			c0,0,0.1,0,0.1-0.1L17.3,16.9z"/>
	</g>
	<g>
		<path class="st0" d="M18.1,16.4c0.2,0,0.3-0.1,0.3-0.3c0-0.2-0.1-0.3-0.3-0.3c-0.2,0-0.3,0.1-0.3,0.3
			C17.8,16.3,17.9,16.4,18.1,16.4z"/>
		<path class="st0" d="M18.7,16.9c0-0.2-0.2-0.4-0.4-0.4h-0.5c-0.2,0-0.4,0.2-0.4,0.4v0.9c0,0,0,0.1,0.1,0.1h0c0,0,0.1,0,0.1-0.1
			l0-0.8c0,0,0-0.1,0-0.1c0,0,0,0,0,0.1v0.7v0.2v1.3c0,0,0,0.1,0.1,0.1H18c0,0,0.1,0,0.1-0.1v-1.3c0,0,0-0.1,0-0.1c0,0,0,0,0,0.1
			v1.3c0,0,0,0.1,0.1,0.1h0.1c0,0,0.1,0,0.1-0.1l0-1.3v-0.2V17c0,0,0-0.1,0-0.1c0,0,0,0,0,0.1v0.8c0,0,0,0.1,0.1,0.1h0
			c0,0,0.1,0,0.1-0.1L18.7,16.9z"/>
	</g>
	<g>
		<path d="M7.7,20.3C7.9,20.3,8,20.2,8,20c0-0.2-0.1-0.3-0.3-0.3c-0.2,0-0.3,0.1-0.3,0.3C7.4,20.2,7.5,20.3,7.7,20.3z"/>
		<path d="M8.3,20.8c0-0.2-0.2-0.4-0.4-0.4H7.5c-0.2,0-0.4,0.2-0.4,0.4v0.9c0,0,0,0.1,0.1,0.1h0c0,0,0.1,0,0.1-0.1l0-0.8
			c0,0,0-0.1,0-0.1c0,0,0,0,0,0.1v0.7v0.2v1.3c0,0,0,0.1,0.1,0.1h0.1c0,0,0.1,0,0.1-0.1v-1.3c0,0,0-0.1,0-0.1c0,0,0,0,0,0.1v1.3
			c0,0,0,0.1,0.1,0.1H8c0,0,0.1,0,0.1-0.1l0-1.3v-0.2v-0.7c0,0,0-0.1,0-0.1c0,0,0,0,0,0.1v0.8c0,0,0,0.1,0.1,0.1h0
			c0,0,0.1,0,0.1-0.1L8.3,20.8z"/>
	</g>
	<g>
		<path d="M9.2,20.3c0.2,0,0.3-0.1,0.3-0.3c0-0.2-0.1-0.3-0.3-0.3c-0.2,0-0.3,0.1-0.3,0.3C8.9,20.2,9,20.3,9.2,20.3z"/>
		<path d="M9.8,20.8c0-0.2-0.2-0.4-0.4-0.4H9c-0.2,0-0.4,0.2-0.4,0.4v0.9c0,0,0,0.1,0.1,0.1h0c0,0,0.1,0,0.1-0.1l0-0.8
			c0,0,0-0.1,0-0.1c0,0,0,0,0,0.1v0.7v0.2v1.3c0,0,0,0.1,0.1,0.1h0.1c0,0,0.1,0,0.1-0.1v-1.3c0,0,0-0.1,0-0.1c0,0,0,0,0,0.1v1.3
			c0,0,0,0.1,0.1,0.1h0.1c0,0,0.1,0,0.1-0.1l0-1.3v-0.2v-0.7c0,0,0-0.1,0-0.1c0,0,0,0,0,0.1v0.8c0,0,0,0.1,0.1,0.1h0
			c0,0,0.1,0,0.1-0.1L9.8,20.8z"/>
	</g>
	<g>
		<path d="M10.7,20.3c0.2,0,0.3-0.1,0.3-0.3c0-0.2-0.1-0.3-0.3-0.3s-0.3,0.1-0.3,0.3C10.4,20.2,10.5,20.3,10.7,20.3z"/>
		<path d="M11.3,20.8c0-0.2-0.2-0.4-0.4-0.4h-0.5c-0.2,0-0.4,0.2-0.4,0.4v0.9c0,0,0,0.1,0.1,0.1h0c0,0,0.1,0,0.1-0.1l0-0.8
			c0,0,0-0.1,0-0.1c0,0,0,0,0,0.1v0.7v0.2v1.3c0,0,0,0.1,0.1,0.1h0.1c0,0,0.1,0,0.1-0.1v-1.3c0,0,0-0.1,0-0.1c0,0,0,0,0,0.1v1.3
			c0,0,0,0.1,0.1,0.1h0.1c0,0,0.1,0,0.1-0.1l0-1.3v-0.2v-0.7c0,0,0-0.1,0-0.1c0,0,0,0,0,0.1v0.8c0,0,0,0.1,0.1,0.1h0
			c0,0,0.1,0,0.1-0.1L11.3,20.8z"/>
	</g>
	<g>
		<path d="M12.2,20.3c0.2,0,0.3-0.1,0.3-0.3c0-0.2-0.1-0.3-0.3-0.3c-0.2,0-0.3,0.1-0.3,0.3C11.9,20.2,12,20.3,12.2,20.3z"/>
		<path d="M12.8,20.8c0-0.2-0.2-0.4-0.4-0.4h-0.5c-0.2,0-0.4,0.2-0.4,0.4v0.9c0,0,0,0.1,0.1,0.1h0c0,0,0.1,0,0.1-0.1l0-0.8
			c0,0,0-0.1,0-0.1c0,0,0,0,0,0.1v0.7v0.2v1.3c0,0,0,0.1,0.1,0.1H12c0,0,0.1,0,0.1-0.1v-1.3c0,0,0-0.1,0-0.1c0,0,0,0,0,0.1v1.3
			c0,0,0,0.1,0.1,0.1h0.1c0,0,0.1,0,0.1-0.1l0-1.3v-0.2v-0.7c0,0,0-0.1,0-0.1c0,0,0,0,0,0.1v0.8c0,0,0,0.1,0.1,0.1h0
			c0,0,0.1,0,0.1-0.1L12.8,20.8z"/>
	</g>
	<g>
		<path d="M13.7,20.3c0.2,0,0.3-0.1,0.3-0.3c0-0.2-0.1-0.3-0.3-0.3s-0.3,0.1-0.3,0.3C13.3,20.2,13.5,20.3,13.7,20.3z"/>
		<path d="M14.3,20.8c0-0.2-0.2-0.4-0.4-0.4h-0.5c-0.2,0-0.4,0.2-0.4,0.4v0.9c0,0,0,0.1,0.1,0.1h0c0,0,0.1,0,0.1-0.1l0-0.8
			c0,0,0-0.1,0-0.1c0,0,0,0,0,0.1v0.7v0.2v1.3c0,0,0,0.1,0.1,0.1h0.1c0,0,0.1,0,0.1-0.1v-1.3c0,0,0-0.1,0-0.1c0,0,0,0,0,0.1v1.3
			c0,0,0,0.1,0.1,0.1h0.1c0,0,0.1,0,0.1-0.1l0-1.3v-0.2v-0.7c0,0,0-0.1,0-0.1c0,0,0,0,0,0.1v0.8c0,0,0,0.1,0.1,0.1h0
			c0,0,0.1,0,0.1-0.1L14.3,20.8z"/>
	</g>
	<g>
		<path d="M15.1,20.3c0.2,0,0.3-0.1,0.3-0.3c0-0.2-0.1-0.3-0.3-0.3s-0.3,0.1-0.3,0.3C14.8,20.2,15,20.3,15.1,20.3z"/>
		<path d="M15.8,20.8c0-0.2-0.2-0.4-0.4-0.4h-0.5c-0.2,0-0.4,0.2-0.4,0.4v0.9c0,0,0,0.1,0.1,0.1h0c0,0,0.1,0,0.1-0.1l0-0.8
			c0,0,0-0.1,0-0.1c0,0,0,0,0,0.1v0.7v0.2v1.3c0,0,0,0.1,0.1,0.1H15c0,0,0.1,0,0.1-0.1v-1.3c0,0,0-0.1,0-0.1c0,0,0,0,0,0.1v1.3
			c0,0,0,0.1,0.1,0.1h0.1c0,0,0.1,0,0.1-0.1l0-1.3v-0.2v-0.7c0,0,0-0.1,0-0.1c0,0,0,0,0,0.1v0.8c0,0,0,0.1,0.1,0.1h0
			c0,0,0.1,0,0.1-0.1L15.8,20.8z"/>
	</g>
	<g>
		<path d="M16.6,20.3c0.2,0,0.3-0.1,0.3-0.3c0-0.2-0.1-0.3-0.3-0.3c-0.2,0-0.3,0.1-0.3,0.3C16.3,20.2,16.5,20.3,16.6,20.3z"/>
		<path d="M17.3,20.8c0-0.2-0.2-0.4-0.4-0.4h-0.5c-0.2,0-0.4,0.2-0.4,0.4v0.9c0,0,0,0.1,0.1,0.1h0c0,0,0.1,0,0.1-0.1l0-0.8
			c0,0,0-0.1,0-0.1c0,0,0,0,0,0.1v0.7v0.2v1.3c0,0,0,0.1,0.1,0.1h0.1c0,0,0.1,0,0.1-0.1v-1.3c0,0,0-0.1,0-0.1c0,0,0,0,0,0.1v1.3
			c0,0,0,0.1,0.1,0.1h0.1c0,0,0.1,0,0.1-0.1l0-1.3v-0.2v-0.7c0,0,0-0.1,0-0.1c0,0,0,0,0,0.1v0.8c0,0,0,0.1,0.1,0.1h0
			c0,0,0.1,0,0.1-0.1L17.3,20.8z"/>
	</g>
	<g>
		<path d="M18.1,20.3c0.2,0,0.3-0.1,0.3-0.3c0-0.2-0.1-0.3-0.3-0.3c-0.2,0-0.3,0.1-0.3,0.3C17.8,20.2,17.9,20.3,18.1,20.3z"/>
		<path d="M18.7,20.8c0-0.2-0.2-0.4-0.4-0.4h-0.5c-0.2,0-0.4,0.2-0.4,0.4v0.9c0,0,0,0.1,0.1,0.1h0c0,0,0.1,0,0.1-0.1l0-0.8
			c0,0,0-0.1,0-0.1c0,0,0,0,0,0.1v0.7v0.2v1.3c0,0,0,0.1,0.1,0.1H18c0,0,0.1,0,0.1-0.1v-1.3c0,0,0-0.1,0-0.1c0,0,0,0,0,0.1v1.3
			c0,0,0,0.1,0.1,0.1h0.1c0,0,0.1,0,0.1-0.1l0-1.3v-0.2v-0.7c0,0,0-0.1,0-0.1c0,0,0,0,0,0.1v0.8c0,0,0,0.1,0.1,0.1h0
			c0,0,0.1,0,0.1-0.1L18.7,20.8z"/>
	</g>
	<g>
		<path d="M7.7,24.2c0.2,0,0.3-0.1,0.3-0.3c0-0.2-0.1-0.3-0.3-0.3c-0.2,0-0.3,0.1-0.3,0.3C7.4,24.1,7.5,24.2,7.7,24.2z"/>
		<path d="M8.3,24.7c0-0.2-0.2-0.4-0.4-0.4H7.5c-0.2,0-0.4,0.2-0.4,0.4v0.9c0,0,0,0.1,0.1,0.1h0c0,0,0.1,0,0.1-0.1l0-0.8
			c0,0,0-0.1,0-0.1c0,0,0,0,0,0.1v0.7v0.2V27c0,0,0,0.1,0.1,0.1h0.1c0,0,0.1,0,0.1-0.1v-1.3c0,0,0-0.1,0-0.1c0,0,0,0,0,0.1V27
			c0,0,0,0.1,0.1,0.1H8C8,27.1,8,27,8,27l0-1.3v-0.2v-0.7c0,0,0-0.1,0-0.1c0,0,0,0,0,0.1v0.8c0,0,0,0.1,0.1,0.1h0c0,0,0.1,0,0.1-0.1
			L8.3,24.7z"/>
	</g>
	<g>
		<path d="M9.2,24.2c0.2,0,0.3-0.1,0.3-0.3c0-0.2-0.1-0.3-0.3-0.3c-0.2,0-0.3,0.1-0.3,0.3C8.9,24.1,9,24.2,9.2,24.2z"/>
		<path d="M9.8,24.7c0-0.2-0.2-0.4-0.4-0.4H9c-0.2,0-0.4,0.2-0.4,0.4v0.9c0,0,0,0.1,0.1,0.1h0c0,0,0.1,0,0.1-0.1l0-0.8
			c0,0,0-0.1,0-0.1c0,0,0,0,0,0.1v0.7v0.2V27c0,0,0,0.1,0.1,0.1h0.1c0,0,0.1,0,0.1-0.1v-1.3c0,0,0-0.1,0-0.1c0,0,0,0,0,0.1V27
			c0,0,0,0.1,0.1,0.1h0.1c0,0,0.1,0,0.1-0.1l0-1.3v-0.2v-0.7c0,0,0-0.1,0-0.1c0,0,0,0,0,0.1v0.8c0,0,0,0.1,0.1,0.1h0
			c0,0,0.1,0,0.1-0.1L9.8,24.7z"/>
	</g>
	<g>
		<path d="M10.7,24.2c0.2,0,0.3-0.1,0.3-0.3c0-0.2-0.1-0.3-0.3-0.3s-0.3,0.1-0.3,0.3C10.4,24.1,10.5,24.2,10.7,24.2z"/>
		<path d="M11.3,24.7c0-0.2-0.2-0.4-0.4-0.4h-0.5c-0.2,0-0.4,0.2-0.4,0.4v0.9c0,0,0,0.1,0.1,0.1h0c0,0,0.1,0,0.1-0.1l0-0.8
			c0,0,0-0.1,0-0.1c0,0,0,0,0,0.1v0.7v0.2V27c0,0,0,0.1,0.1,0.1h0.1c0,0,0.1,0,0.1-0.1v-1.3c0,0,0-0.1,0-0.1c0,0,0,0,0,0.1V27
			c0,0,0,0.1,0.1,0.1h0.1c0,0,0.1,0,0.1-0.1l0-1.3v-0.2v-0.7c0,0,0-0.1,0-0.1c0,0,0,0,0,0.1v0.8c0,0,0,0.1,0.1,0.1h0
			c0,0,0.1,0,0.1-0.1L11.3,24.7z"/>
	</g>
	<g>
		<path d="M12.2,24.2c0.2,0,0.3-0.1,0.3-0.3c0-0.2-0.1-0.3-0.3-0.3c-0.2,0-0.3,0.1-0.3,0.3C11.9,24.1,12,24.2,12.2,24.2z"/>
		<path d="M12.8,24.7c0-0.2-0.2-0.4-0.4-0.4h-0.5c-0.2,0-0.4,0.2-0.4,0.4v0.9c0,0,0,0.1,0.1,0.1h0c0,0,0.1,0,0.1-0.1l0-0.8
			c0,0,0-0.1,0-0.1c0,0,0,0,0,0.1v0.7v0.2V27c0,0,0,0.1,0.1,0.1H12c0,0,0.1,0,0.1-0.1v-1.3c0,0,0-0.1,0-0.1c0,0,0,0,0,0.1V27
			c0,0,0,0.1,0.1,0.1h0.1c0,0,0.1,0,0.1-0.1l0-1.3v-0.2v-0.7c0,0,0-0.1,0-0.1c0,0,0,0,0,0.1v0.8c0,0,0,0.1,0.1,0.1h0
			c0,0,0.1,0,0.1-0.1L12.8,24.7z"/>
	</g>
	<g>
		<path d="M13.7,24.2c0.2,0,0.3-0.1,0.3-0.3c0-0.2-0.1-0.3-0.3-0.3s-0.3,0.1-0.3,0.3C13.3,24.1,13.5,24.2,13.7,24.2z"/>
		<path d="M14.3,24.7c0-0.2-0.2-0.4-0.4-0.4h-0.5c-0.2,0-0.4,0.2-0.4,0.4v0.9c0,0,0,0.1,0.1,0.1h0c0,0,0.1,0,0.1-0.1l0-0.8
			c0,0,0-0.1,0-0.1c0,0,0,0,0,0.1v0.7v0.2V27c0,0,0,0.1,0.1,0.1h0.1c0,0,0.1,0,0.1-0.1v-1.3c0,0,0-0.1,0-0.1c0,0,0,0,0,0.1V27
			c0,0,0,0.1,0.1,0.1h0.1c0,0,0.1,0,0.1-0.1l0-1.3v-0.2v-0.7c0,0,0-0.1,0-0.1c0,0,0,0,0,0.1v0.8c0,0,0,0.1,0.1,0.1h0
			c0,0,0.1,0,0.1-0.1L14.3,24.7z"/>
	</g>
	<g>
		<path d="M15.1,24.2c0.2,0,0.3-0.1,0.3-0.3c0-0.2-0.1-0.3-0.3-0.3s-0.3,0.1-0.3,0.3C14.8,24.1,15,24.2,15.1,24.2z"/>
		<path d="M15.8,24.7c0-0.2-0.2-0.4-0.4-0.4h-0.5c-0.2,0-0.4,0.2-0.4,0.4v0.9c0,0,0,0.1,0.1,0.1h0c0,0,0.1,0,0.1-0.1l0-0.8
			c0,0,0-0.1,0-0.1c0,0,0,0,0,0.1v0.7v0.2V27c0,0,0,0.1,0.1,0.1H15c0,0,0.1,0,0.1-0.1v-1.3c0,0,0-0.1,0-0.1c0,0,0,0,0,0.1V27
			c0,0,0,0.1,0.1,0.1h0.1c0,0,0.1,0,0.1-0.1l0-1.3v-0.2v-0.7c0,0,0-0.1,0-0.1c0,0,0,0,0,0.1v0.8c0,0,0,0.1,0.1,0.1h0
			c0,0,0.1,0,0.1-0.1L15.8,24.7z"/>
	</g>
	<g>
		<path d="M16.6,24.2c0.2,0,0.3-0.1,0.3-0.3c0-0.2-0.1-0.3-0.3-0.3c-0.2,0-0.3,0.1-0.3,0.3C16.3,24.1,16.5,24.2,16.6,24.2z"/>
		<path d="M17.3,24.7c0-0.2-0.2-0.4-0.4-0.4h-0.5c-0.2,0-0.4,0.2-0.4,0.4v0.9c0,0,0,0.1,0.1,0.1h0c0,0,0.1,0,0.1-0.1l0-0.8
			c0,0,0-0.1,0-0.1c0,0,0,0,0,0.1v0.7v0.2V27c0,0,0,0.1,0.1,0.1h0.1c0,0,0.1,0,0.1-0.1v-1.3c0,0,0-0.1,0-0.1c0,0,0,0,0,0.1V27
			c0,0,0,0.1,0.1,0.1h0.1c0,0,0.1,0,0.1-0.1l0-1.3v-0.2v-0.7c0,0,0-0.1,0-0.1c0,0,0,0,0,0.1v0.8c0,0,0,0.1,0.1,0.1h0
			c0,0,0.1,0,0.1-0.1L17.3,24.7z"/>
	</g>
	<g>
		<path d="M18.1,24.2c0.2,0,0.3-0.1,0.3-0.3c0-0.2-0.1-0.3-0.3-0.3c-0.2,0-0.3,0.1-0.3,0.3C17.8,24.1,17.9,24.2,18.1,24.2z"/>
		<path d="M18.7,24.7c0-0.2-0.2-0.4-0.4-0.4h-0.5c-0.2,0-0.4,0.2-0.4,0.4v0.9c0,0,0,0.1,0.1,0.1h0c0,0,0.1,0,0.1-0.1l0-0.8
			c0,0,0-0.1,0-0.1c0,0,0,0,0,0.1v0.7v0.2V27c0,0,0,0.1,0.1,0.1H18c0,0,0.1,0,0.1-0.1v-1.3c0,0,0-0.1,0-0.1c0,0,0,0,0,0.1V27
			c0,0,0,0.1,0.1,0.1h0.1c0,0,0.1,0,0.1-0.1l0-1.3v-0.2v-0.7c0,0,0-0.1,0-0.1c0,0,0,0,0,0.1v0.8c0,0,0,0.1,0.1,0.1h0
			c0,0,0.1,0,0.1-0.1L18.7,24.7z"/>
	</g>
	<g>
		<path d="M7.7,28.2C7.9,28.2,8,28,8,27.9c0-0.2-0.1-0.3-0.3-0.3c-0.2,0-0.3,0.1-0.3,0.3C7.4,28,7.5,28.2,7.7,28.2z"/>
		<path d="M8.3,28.7c0-0.2-0.2-0.4-0.4-0.4H7.5c-0.2,0-0.4,0.2-0.4,0.4v0.9c0,0,0,0.1,0.1,0.1h0c0,0,0.1,0,0.1-0.1l0-0.8
			c0,0,0-0.1,0-0.1c0,0,0,0,0,0.1v0.7v0.2v1.3c0,0,0,0.1,0.1,0.1h0.1c0,0,0.1,0,0.1-0.1v-1.3c0,0,0-0.1,0-0.1c0,0,0,0,0,0.1v1.3
			c0,0,0,0.1,0.1,0.1H8C8,31,8,31,8,30.9l0-1.3v-0.2v-0.7c0,0,0-0.1,0-0.1c0,0,0,0,0,0.1v0.8c0,0,0,0.1,0.1,0.1h0c0,0,0.1,0,0.1-0.1
			L8.3,28.7z"/>
	</g>
	<g>
		<path d="M9.2,28.2c0.2,0,0.3-0.1,0.3-0.3c0-0.2-0.1-0.3-0.3-0.3c-0.2,0-0.3,0.1-0.3,0.3C8.9,28,9,28.2,9.2,28.2z"/>
		<path d="M9.8,28.7c0-0.2-0.2-0.4-0.4-0.4H9c-0.2,0-0.4,0.2-0.4,0.4v0.9c0,0,0,0.1,0.1,0.1h0c0,0,0.1,0,0.1-0.1l0-0.8
			c0,0,0-0.1,0-0.1c0,0,0,0,0,0.1v0.7v0.2v1.3c0,0,0,0.1,0.1,0.1h0.1c0,0,0.1,0,0.1-0.1v-1.3c0,0,0-0.1,0-0.1c0,0,0,0,0,0.1v1.3
			c0,0,0,0.1,0.1,0.1h0.1c0,0,0.1,0,0.1-0.1l0-1.3v-0.2v-0.7c0,0,0-0.1,0-0.1c0,0,0,0,0,0.1v0.8c0,0,0,0.1,0.1,0.1h0
			c0,0,0.1,0,0.1-0.1L9.8,28.7z"/>
	</g>
	<g>
		<path d="M10.7,28.2c0.2,0,0.3-0.1,0.3-0.3c0-0.2-0.1-0.3-0.3-0.3s-0.3,0.1-0.3,0.3C10.4,28,10.5,28.2,10.7,28.2z"/>
		<path d="M11.3,28.7c0-0.2-0.2-0.4-0.4-0.4h-0.5c-0.2,0-0.4,0.2-0.4,0.4v0.9c0,0,0,0.1,0.1,0.1h0c0,0,0.1,0,0.1-0.1l0-0.8
			c0,0,0-0.1,0-0.1c0,0,0,0,0,0.1v0.7v0.2v1.3c0,0,0,0.1,0.1,0.1h0.1c0,0,0.1,0,0.1-0.1v-1.3c0,0,0-0.1,0-0.1c0,0,0,0,0,0.1v1.3
			c0,0,0,0.1,0.1,0.1h0.1c0,0,0.1,0,0.1-0.1l0-1.3v-0.2v-0.7c0,0,0-0.1,0-0.1c0,0,0,0,0,0.1v0.8c0,0,0,0.1,0.1,0.1h0
			c0,0,0.1,0,0.1-0.1L11.3,28.7z"/>
	</g>
	<g>
		<path d="M12.2,28.2c0.2,0,0.3-0.1,0.3-0.3c0-0.2-0.1-0.3-0.3-0.3c-0.2,0-0.3,0.1-0.3,0.3C11.9,28,12,28.2,12.2,28.2z"/>
		<path d="M12.8,28.7c0-0.2-0.2-0.4-0.4-0.4h-0.5c-0.2,0-0.4,0.2-0.4,0.4v0.9c0,0,0,0.1,0.1,0.1h0c0,0,0.1,0,0.1-0.1l0-0.8
			c0,0,0-0.1,0-0.1c0,0,0,0,0,0.1v0.7v0.2v1.3c0,0,0,0.1,0.1,0.1H12c0,0,0.1,0,0.1-0.1v-1.3c0,0,0-0.1,0-0.1c0,0,0,0,0,0.1v1.3
			c0,0,0,0.1,0.1,0.1h0.1c0,0,0.1,0,0.1-0.1l0-1.3v-0.2v-0.7c0,0,0-0.1,0-0.1c0,0,0,0,0,0.1v0.8c0,0,0,0.1,0.1,0.1h0
			c0,0,0.1,0,0.1-0.1L12.8,28.7z"/>
	</g>
	<g>
		<path d="M13.7,28.2c0.2,0,0.3-0.1,0.3-0.3c0-0.2-0.1-0.3-0.3-0.3s-0.3,0.1-0.3,0.3C13.3,28,13.5,28.2,13.7,28.2z"/>
		<path d="M14.3,28.7c0-0.2-0.2-0.4-0.4-0.4h-0.5c-0.2,0-0.4,0.2-0.4,0.4v0.9c0,0,0,0.1,0.1,0.1h0c0,0,0.1,0,0.1-0.1l0-0.8
			c0,0,0-0.1,0-0.1c0,0,0,0,0,0.1v0.7v0.2v1.3c0,0,0,0.1,0.1,0.1h0.1c0,0,0.1,0,0.1-0.1v-1.3c0,0,0-0.1,0-0.1c0,0,0,0,0,0.1v1.3
			c0,0,0,0.1,0.1,0.1h0.1c0,0,0.1,0,0.1-0.1l0-1.3v-0.2v-0.7c0,0,0-0.1,0-0.1c0,0,0,0,0,0.1v0.8c0,0,0,0.1,0.1,0.1h0
			c0,0,0.1,0,0.1-0.1L14.3,28.7z"/>
	</g>
	<g>
		<path d="M15.1,28.2c0.2,0,0.3-0.1,0.3-0.3c0-0.2-0.1-0.3-0.3-0.3s-0.3,0.1-0.3,0.3C14.8,28,15,28.2,15.1,28.2z"/>
		<path d="M15.8,28.7c0-0.2-0.2-0.4-0.4-0.4h-0.5c-0.2,0-0.4,0.2-0.4,0.4v0.9c0,0,0,0.1,0.1,0.1h0c0,0,0.1,0,0.1-0.1l0-0.8
			c0,0,0-0.1,0-0.1c0,0,0,0,0,0.1v0.7v0.2v1.3c0,0,0,0.1,0.1,0.1H15c0,0,0.1,0,0.1-0.1v-1.3c0,0,0-0.1,0-0.1c0,0,0,0,0,0.1v1.3
			c0,0,0,0.1,0.1,0.1h0.1c0,0,0.1,0,0.1-0.1l0-1.3v-0.2v-0.7c0,0,0-0.1,0-0.1c0,0,0,0,0,0.1v0.8c0,0,0,0.1,0.1,0.1h0
			c0,0,0.1,0,0.1-0.1L15.8,28.7z"/>
	</g>
	<g>
		<path d="M16.6,28.2c0.2,0,0.3-0.1,0.3-0.3c0-0.2-0.1-0.3-0.3-0.3c-0.2,0-0.3,0.1-0.3,0.3C16.3,28,16.5,28.2,16.6,28.2z"/>
		<path d="M17.3,28.7c0-0.2-0.2-0.4-0.4-0.4h-0.5c-0.2,0-0.4,0.2-0.4,0.4v0.9c0,0,0,0.1,0.1,0.1h0c0,0,0.1,0,0.1-0.1l0-0.8
			c0,0,0-0.1,0-0.1c0,0,0,0,0,0.1v0.7v0.2v1.3c0,0,0,0.1,0.1,0.1h0.1c0,0,0.1,0,0.1-0.1v-1.3c0,0,0-0.1,0-0.1c0,0,0,0,0,0.1v1.3
			c0,0,0,0.1,0.1,0.1h0.1c0,0,0.1,0,0.1-0.1l0-1.3v-0.2v-0.7c0,0,0-0.1,0-0.1c0,0,0,0,0,0.1v0.8c0,0,0,0.1,0.1,0.1h0
			c0,0,0.1,0,0.1-0.1L17.3,28.7z"/>
	</g>
	<g>
		<path d="M18.1,28.2c0.2,0,0.3-0.1,0.3-0.3c0-0.2-0.1-0.3-0.3-0.3c-0.2,0-0.3,0.1-0.3,0.3C17.8,28,17.9,28.2,18.1,28.2z"/>
		<path d="M18.7,28.7c0-0.2-0.2-0.4-0.4-0.4h-0.5c-0.2,0-0.4,0.2-0.4,0.4v0.9c0,0,0,0.1,0.1,0.1h0c0,0,0.1,0,0.1-0.1l0-0.8
			c0,0,0-0.1,0-0.1c0,0,0,0,0,0.1v0.7v0.2v1.3c0,0,0,0.1,0.1,0.1H18c0,0,0.1,0,0.1-0.1v-1.3c0,0,0-0.1,0-0.1c0,0,0,0,0,0.1v1.3
			c0,0,0,0.1,0.1,0.1h0.1c0,0,0.1,0,0.1-0.1l0-1.3v-0.2v-0.7c0,0,0-0.1,0-0.1c0,0,0,0,0,0.1v0.8c0,0,0,0.1,0.1,0.1h0
			c0,0,0.1,0,0.1-0.1L18.7,28.7z"/>
	</g>
	<g>
		<path d="M7.7,32.1C7.9,32.1,8,32,8,31.8c0-0.2-0.1-0.3-0.3-0.3c-0.2,0-0.3,0.1-0.3,0.3C7.4,32,7.5,32.1,7.7,32.1z"/>
		<path d="M8.3,32.6c0-0.2-0.2-0.4-0.4-0.4H7.5c-0.2,0-0.4,0.2-0.4,0.4v0.9c0,0,0,0.1,0.1,0.1h0c0,0,0.1,0,0.1-0.1l0-0.8
			c0,0,0-0.1,0-0.1c0,0,0,0,0,0.1v0.7v0.2v1.3c0,0,0,0.1,0.1,0.1h0.1c0,0,0.1,0,0.1-0.1v-1.3c0,0,0-0.1,0-0.1c0,0,0,0,0,0.1v1.3
			c0,0,0,0.1,0.1,0.1H8c0,0,0.1,0,0.1-0.1l0-1.3v-0.2v-0.7c0,0,0-0.1,0-0.1c0,0,0,0,0,0.1v0.8c0,0,0,0.1,0.1,0.1h0
			c0,0,0.1,0,0.1-0.1L8.3,32.6z"/>
	</g>
	<g>
		<path d="M9.2,32.1c0.2,0,0.3-0.1,0.3-0.3c0-0.2-0.1-0.3-0.3-0.3c-0.2,0-0.3,0.1-0.3,0.3C8.9,32,9,32.1,9.2,32.1z"/>
		<path d="M9.8,32.6c0-0.2-0.2-0.4-0.4-0.4H9c-0.2,0-0.4,0.2-0.4,0.4v0.9c0,0,0,0.1,0.1,0.1h0c0,0,0.1,0,0.1-0.1l0-0.8
			c0,0,0-0.1,0-0.1c0,0,0,0,0,0.1v0.7v0.2v1.3c0,0,0,0.1,0.1,0.1h0.1c0,0,0.1,0,0.1-0.1v-1.3c0,0,0-0.1,0-0.1c0,0,0,0,0,0.1v1.3
			c0,0,0,0.1,0.1,0.1h0.1c0,0,0.1,0,0.1-0.1l0-1.3v-0.2v-0.7c0,0,0-0.1,0-0.1c0,0,0,0,0,0.1v0.8c0,0,0,0.1,0.1,0.1h0
			c0,0,0.1,0,0.1-0.1L9.8,32.6z"/>
	</g>
	<g>
		<path d="M10.7,32.1c0.2,0,0.3-0.1,0.3-0.3c0-0.2-0.1-0.3-0.3-0.3s-0.3,0.1-0.3,0.3C10.4,32,10.5,32.1,10.7,32.1z"/>
		<path d="M11.3,32.6c0-0.2-0.2-0.4-0.4-0.4h-0.5c-0.2,0-0.4,0.2-0.4,0.4v0.9c0,0,0,0.1,0.1,0.1h0c0,0,0.1,0,0.1-0.1l0-0.8
			c0,0,0-0.1,0-0.1c0,0,0,0,0,0.1v0.7v0.2v1.3c0,0,0,0.1,0.1,0.1h0.1c0,0,0.1,0,0.1-0.1v-1.3c0,0,0-0.1,0-0.1c0,0,0,0,0,0.1v1.3
			c0,0,0,0.1,0.1,0.1h0.1c0,0,0.1,0,0.1-0.1l0-1.3v-0.2v-0.7c0,0,0-0.1,0-0.1c0,0,0,0,0,0.1v0.8c0,0,0,0.1,0.1,0.1h0
			c0,0,0.1,0,0.1-0.1L11.3,32.6z"/>
	</g>
	<g>
		<path d="M12.2,32.1c0.2,0,0.3-0.1,0.3-0.3c0-0.2-0.1-0.3-0.3-0.3c-0.2,0-0.3,0.1-0.3,0.3C11.9,32,12,32.1,12.2,32.1z"/>
		<path d="M12.8,32.6c0-0.2-0.2-0.4-0.4-0.4h-0.5c-0.2,0-0.4,0.2-0.4,0.4v0.9c0,0,0,0.1,0.1,0.1h0c0,0,0.1,0,0.1-0.1l0-0.8
			c0,0,0-0.1,0-0.1c0,0,0,0,0,0.1v0.7v0.2v1.3c0,0,0,0.1,0.1,0.1H12c0,0,0.1,0,0.1-0.1v-1.3c0,0,0-0.1,0-0.1c0,0,0,0,0,0.1v1.3
			c0,0,0,0.1,0.1,0.1h0.1c0,0,0.1,0,0.1-0.1l0-1.3v-0.2v-0.7c0,0,0-0.1,0-0.1c0,0,0,0,0,0.1v0.8c0,0,0,0.1,0.1,0.1h0
			c0,0,0.1,0,0.1-0.1L12.8,32.6z"/>
	</g>
	<g>
		<path d="M13.7,32.1c0.2,0,0.3-0.1,0.3-0.3c0-0.2-0.1-0.3-0.3-0.3s-0.3,0.1-0.3,0.3C13.3,32,13.5,32.1,13.7,32.1z"/>
		<path d="M14.3,32.6c0-0.2-0.2-0.4-0.4-0.4h-0.5c-0.2,0-0.4,0.2-0.4,0.4v0.9c0,0,0,0.1,0.1,0.1h0c0,0,0.1,0,0.1-0.1l0-0.8
			c0,0,0-0.1,0-0.1c0,0,0,0,0,0.1v0.7v0.2v1.3c0,0,0,0.1,0.1,0.1h0.1c0,0,0.1,0,0.1-0.1v-1.3c0,0,0-0.1,0-0.1c0,0,0,0,0,0.1v1.3
			c0,0,0,0.1,0.1,0.1h0.1c0,0,0.1,0,0.1-0.1l0-1.3v-0.2v-0.7c0,0,0-0.1,0-0.1c0,0,0,0,0,0.1v0.8c0,0,0,0.1,0.1,0.1h0
			c0,0,0.1,0,0.1-0.1L14.3,32.6z"/>
	</g>
	<g>
		<path d="M15.1,32.1c0.2,0,0.3-0.1,0.3-0.3c0-0.2-0.1-0.3-0.3-0.3s-0.3,0.1-0.3,0.3C14.8,32,15,32.1,15.1,32.1z"/>
		<path d="M15.8,32.6c0-0.2-0.2-0.4-0.4-0.4h-0.5c-0.2,0-0.4,0.2-0.4,0.4v0.9c0,0,0,0.1,0.1,0.1h0c0,0,0.1,0,0.1-0.1l0-0.8
			c0,0,0-0.1,0-0.1c0,0,0,0,0,0.1v0.7v0.2v1.3c0,0,0,0.1,0.1,0.1H15c0,0,0.1,0,0.1-0.1v-1.3c0,0,0-0.1,0-0.1c0,0,0,0,0,0.1v1.3
			c0,0,0,0.1,0.1,0.1h0.1c0,0,0.1,0,0.1-0.1l0-1.3v-0.2v-0.7c0,0,0-0.1,0-0.1c0,0,0,0,0,0.1v0.8c0,0,0,0.1,0.1,0.1h0
			c0,0,0.1,0,0.1-0.1L15.8,32.6z"/>
	</g>
	<g>
		<path d="M16.6,32.1c0.2,0,0.3-0.1,0.3-0.3c0-0.2-0.1-0.3-0.3-0.3c-0.2,0-0.3,0.1-0.3,0.3C16.3,32,16.5,32.1,16.6,32.1z"/>
		<path d="M17.3,32.6c0-0.2-0.2-0.4-0.4-0.4h-0.5c-0.2,0-0.4,0.2-0.4,0.4v0.9c0,0,0,0.1,0.1,0.1h0c0,0,0.1,0,0.1-0.1l0-0.8
			c0,0,0-0.1,0-0.1c0,0,0,0,0,0.1v0.7v0.2v1.3c0,0,0,0.1,0.1,0.1h0.1c0,0,0.1,0,0.1-0.1v-1.3c0,0,0-0.1,0-0.1c0,0,0,0,0,0.1v1.3
			c0,0,0,0.1,0.1,0.1h0.1c0,0,0.1,0,0.1-0.1l0-1.3v-0.2v-0.7c0,0,0-0.1,0-0.1c0,0,0,0,0,0.1v0.8c0,0,0,0.1,0.1,0.1h0
			c0,0,0.1,0,0.1-0.1L17.3,32.6z"/>
	</g>
	<g>
		<path d="M18.1,32.1c0.2,0,0.3-0.1,0.3-0.3c0-0.2-0.1-0.3-0.3-0.3c-0.2,0-0.3,0.1-0.3,0.3C17.8,32,17.9,32.1,18.1,32.1z"/>
		<path d="M18.7,32.6c0-0.2-0.2-0.4-0.4-0.4h-0.5c-0.2,0-0.4,0.2-0.4,0.4v0.9c0,0,0,0.1,0.1,0.1h0c0,0,0.1,0,0.1-0.1l0-0.8
			c0,0,0-0.1,0-0.1c0,0,0,0,0,0.1v0.7v0.2v1.3c0,0,0,0.1,0.1,0.1H18c0,0,0.1,0,0.1-0.1v-1.3c0,0,0-0.1,0-0.1c0,0,0,0,0,0.1v1.3
			c0,0,0,0.1,0.1,0.1h0.1c0,0,0.1,0,0.1-0.1l0-1.3v-0.2v-0.7c0,0,0-0.1,0-0.1c0,0,0,0,0,0.1v0.8c0,0,0,0.1,0.1,0.1h0
			c0,0,0.1,0,0.1-0.1L18.7,32.6z"/>
	</g>
	<text transform="matrix(1 0 0 1 5.6013 42.2533)"><tspan x="0" y="0" class="st1 st2">12 de octubre</tspan><tspan x="0" y="2.4" class="st1 st2">de 1972</tspan></text>
	<text transform="matrix(1 0 0 1 7.0788 12.4361)"><tspan x="0" y="0" class="st1 st3">40 pasajeros</tspan><tspan x="0" y="1.8" class="st1 st3">5 tripulación</tspan></text>
	<line class="st4" x1="5.6" y1="38" x2="5.6" y2="9.7"/>
</g>
<g>
	<g>
		<line class="st6" x1="5.6" y1="38" x2="95.1" y2="38"/>
		<g>
			<path class="st0" d="M5.6,39.2c-0.6,0-1.1-0.5-1.1-1.1c0-0.6,0.5-1.1,1.1-1.1c0.6,0,1.1,0.5,1.1,1.1C6.7,38.7,6.2,39.2,5.6,39.2z
				"/>
		</g>
	</g>
</g>
<g>
	<g>
		<path class="st7" d="M26.9,16.4c0.2,0,0.3-0.1,0.3-0.3c0-0.2-0.1-0.3-0.3-0.3c-0.2,0-0.3,0.1-0.3,0.3
			C26.6,16.3,26.7,16.4,26.9,16.4z"/>
		<path class="st7" d="M27.5,16.9c0-0.2-0.2-0.4-0.4-0.4h-0.5c-0.2,0-0.4,0.2-0.4,0.4v0.9c0,0,0,0.1,0.1,0.1h0c0,0,0.1,0,0.1-0.1
			l0-0.8c0,0,0-0.1,0-0.1c0,0,0,0,0,0.1v0.7v0.2v1.3c0,0,0,0.1,0.1,0.1h0.1c0,0,0.1,0,0.1-0.1v-1.3c0,0,0-0.1,0-0.1c0,0,0,0,0,0.1
			v1.3c0,0,0,0.1,0.1,0.1h0.1c0,0,0.1,0,0.1-0.1l0-1.3v-0.2V17c0,0,0-0.1,0-0.1c0,0,0,0,0,0.1v0.8c0,0,0,0.1,0.1,0.1h0
			c0,0,0.1,0,0.1-0.1L27.5,16.9z"/>
	</g>
	<g>
		<path class="st7" d="M28.4,16.4c0.2,0,0.3-0.1,0.3-0.3c0-0.2-0.1-0.3-0.3-0.3c-0.2,0-0.3,0.1-0.3,0.3C28,16.3,28.2,16.4,28.4,16.4
			z"/>
		<path class="st7" d="M29,16.9c0-0.2-0.2-0.4-0.4-0.4h-0.5c-0.2,0-0.4,0.2-0.4,0.4v0.9c0,0,0,0.1,0.1,0.1h0c0,0,0.1,0,0.1-0.1
			l0-0.8c0,0,0-0.1,0-0.1c0,0,0,0,0,0.1v0.7v0.2v1.3c0,0,0,0.1,0.1,0.1h0.1c0,0,0.1,0,0.1-0.1v-1.3c0,0,0-0.1,0-0.1c0,0,0,0,0,0.1
			v1.3c0,0,0,0.1,0.1,0.1h0.1c0,0,0.1,0,0.1-0.1l0-1.3v-0.2V17c0,0,0-0.1,0-0.1c0,0,0,0,0,0.1v0.8c0,0,0,0.1,0.1,0.1h0
			c0,0,0.1,0,0.1-0.1L29,16.9z"/>
	</g>
	<g>
		<path class="st7" d="M29.8,16.4c0.2,0,0.3-0.1,0.3-0.3c0-0.2-0.1-0.3-0.3-0.3c-0.2,0-0.3,0.1-0.3,0.3
			C29.5,16.3,29.7,16.4,29.8,16.4z"/>
		<path class="st7" d="M30.5,16.9c0-0.2-0.2-0.4-0.4-0.4h-0.5c-0.2,0-0.4,0.2-0.4,0.4v0.9c0,0,0,0.1,0.1,0.1h0c0,0,0.1,0,0.1-0.1
			l0-0.8c0,0,0-0.1,0-0.1c0,0,0,0,0,0.1v0.7v0.2v1.3c0,0,0,0.1,0.1,0.1h0.1c0,0,0.1,0,0.1-0.1v-1.3c0,0,0-0.1,0-0.1c0,0,0,0,0,0.1
			v1.3c0,0,0,0.1,0.1,0.1h0.1c0,0,0.1,0,0.1-0.1l0-1.3v-0.2V17c0,0,0-0.1,0-0.1c0,0,0,0,0,0.1v0.8c0,0,0,0.1,0.1,0.1h0
			c0,0,0.1,0,0.1-0.1L30.5,16.9z"/>
	</g>
	<g>
		<path class="st7" d="M31.3,16.4c0.2,0,0.3-0.1,0.3-0.3c0-0.2-0.1-0.3-0.3-0.3S31,15.9,31,16.1C31,16.3,31.2,16.4,31.3,16.4z"/>
		<path class="st7" d="M32,16.9c0-0.2-0.2-0.4-0.4-0.4h-0.5c-0.2,0-0.4,0.2-0.4,0.4v0.9c0,0,0,0.1,0.1,0.1h0c0,0,0.1,0,0.1-0.1
			l0-0.8c0,0,0-0.1,0-0.1c0,0,0,0,0,0.1v0.7v0.2v1.3c0,0,0,0.1,0.1,0.1h0.1c0,0,0.1,0,0.1-0.1v-1.3c0,0,0-0.1,0-0.1c0,0,0,0,0,0.1
			v1.3c0,0,0,0.1,0.1,0.1h0.1c0,0,0.1,0,0.1-0.1l0-1.3v-0.2V17c0,0,0-0.1,0-0.1c0,0,0,0,0,0.1v0.8c0,0,0,0.1,0.1,0.1h0
			c0,0,0.1,0,0.1-0.1L32,16.9z"/>
	</g>
	<g>
		<path class="st7" d="M32.8,16.4c0.2,0,0.3-0.1,0.3-0.3c0-0.2-0.1-0.3-0.3-0.3c-0.2,0-0.3,0.1-0.3,0.3
			C32.5,16.3,32.6,16.4,32.8,16.4z"/>
		<path class="st7" d="M33.4,16.9c0-0.2-0.2-0.4-0.4-0.4h-0.5c-0.2,0-0.4,0.2-0.4,0.4v0.9c0,0,0,0.1,0.1,0.1h0c0,0,0.1,0,0.1-0.1
			l0-0.8c0,0,0-0.1,0-0.1c0,0,0,0,0,0.1v0.7v0.2v1.3c0,0,0,0.1,0.1,0.1h0.1c0,0,0.1,0,0.1-0.1v-1.3c0,0,0-0.1,0-0.1c0,0,0,0,0,0.1
			v1.3c0,0,0,0.1,0.1,0.1h0.1c0,0,0.1,0,0.1-0.1l0-1.3v-0.2V17c0,0,0-0.1,0-0.1c0,0,0,0,0,0.1v0.8c0,0,0,0.1,0.1,0.1h0
			c0,0,0.1,0,0.1-0.1L33.4,16.9z"/>
	</g>
	<g>
		<path class="st7" d="M34.3,16.4c0.2,0,0.3-0.1,0.3-0.3c0-0.2-0.1-0.3-0.3-0.3S34,15.9,34,16.1C34,16.3,34.1,16.4,34.3,16.4z"/>
		<path class="st7" d="M34.9,16.9c0-0.2-0.2-0.4-0.4-0.4h-0.5c-0.2,0-0.4,0.2-0.4,0.4v0.9c0,0,0,0.1,0.1,0.1h0c0,0,0.1,0,0.1-0.1
			l0-0.8c0,0,0-0.1,0-0.1c0,0,0,0,0,0.1v0.7v0.2v1.3c0,0,0,0.1,0.1,0.1h0.1c0,0,0.1,0,0.1-0.1v-1.3c0,0,0-0.1,0-0.1c0,0,0,0,0,0.1
			v1.3c0,0,0,0.1,0.1,0.1h0.1c0,0,0.1,0,0.1-0.1l0-1.3v-0.2V17c0,0,0-0.1,0-0.1c0,0,0,0,0,0.1v0.8c0,0,0,0.1,0.1,0.1h0
			c0,0,0.1,0,0.1-0.1L34.9,16.9z"/>
	</g>
	<g>
		<path class="st7" d="M35.8,16.4c0.2,0,0.3-0.1,0.3-0.3c0-0.2-0.1-0.3-0.3-0.3s-0.3,0.1-0.3,0.3C35.5,16.3,35.6,16.4,35.8,16.4z"/>
		<path class="st7" d="M36.4,16.9c0-0.2-0.2-0.4-0.4-0.4h-0.5c-0.2,0-0.4,0.2-0.4,0.4v0.9c0,0,0,0.1,0.1,0.1h0c0,0,0.1,0,0.1-0.1
			l0-0.8c0,0,0-0.1,0-0.1c0,0,0,0,0,0.1v0.7v0.2v1.3c0,0,0,0.1,0.1,0.1h0.1c0,0,0.1,0,0.1-0.1v-1.3c0,0,0-0.1,0-0.1c0,0,0,0,0,0.1
			v1.3c0,0,0,0.1,0.1,0.1H36c0,0,0.1,0,0.1-0.1l0-1.3v-0.2V17c0,0,0-0.1,0-0.1c0,0,0,0,0,0.1v0.8c0,0,0,0.1,0.1,0.1h0
			c0,0,0.1,0,0.1-0.1L36.4,16.9z"/>
	</g>
	<g>
		<path class="st7" d="M37.3,16.4c0.2,0,0.3-0.1,0.3-0.3c0-0.2-0.1-0.3-0.3-0.3c-0.2,0-0.3,0.1-0.3,0.3C37,16.3,37.1,16.4,37.3,16.4
			z"/>
		<path class="st7" d="M37.9,16.9c0-0.2-0.2-0.4-0.4-0.4h-0.5c-0.2,0-0.4,0.2-0.4,0.4v0.9c0,0,0,0.1,0.1,0.1h0c0,0,0.1,0,0.1-0.1
			l0-0.8c0,0,0-0.1,0-0.1c0,0,0,0,0,0.1v0.7v0.2v1.3c0,0,0,0.1,0.1,0.1h0.1c0,0,0.1,0,0.1-0.1v-1.3c0,0,0-0.1,0-0.1c0,0,0,0,0,0.1
			v1.3c0,0,0,0.1,0.1,0.1h0.1c0,0,0.1,0,0.1-0.1l0-1.3v-0.2V17c0,0,0-0.1,0-0.1c0,0,0,0,0,0.1v0.8c0,0,0,0.1,0.1,0.1h0
			c0,0,0.1,0,0.1-0.1L37.9,16.9z"/>
	</g>
	<g>
		<path class="st8" d="M26.9,20.3c0.2,0,0.3-0.1,0.3-0.3c0-0.2-0.1-0.3-0.3-0.3c-0.2,0-0.3,0.1-0.3,0.3
			C26.6,20.2,26.7,20.3,26.9,20.3z"/>
		<path class="st8" d="M27.5,20.8c0-0.2-0.2-0.4-0.4-0.4h-0.5c-0.2,0-0.4,0.2-0.4,0.4v0.9c0,0,0,0.1,0.1,0.1h0c0,0,0.1,0,0.1-0.1
			l0-0.8c0,0,0-0.1,0-0.1c0,0,0,0,0,0.1v0.7v0.2v1.3c0,0,0,0.1,0.1,0.1h0.1c0,0,0.1,0,0.1-0.1v-1.3c0,0,0-0.1,0-0.1c0,0,0,0,0,0.1
			v1.3c0,0,0,0.1,0.1,0.1h0.1c0,0,0.1,0,0.1-0.1l0-1.3v-0.2v-0.7c0,0,0-0.1,0-0.1c0,0,0,0,0,0.1v0.8c0,0,0,0.1,0.1,0.1h0
			c0,0,0.1,0,0.1-0.1L27.5,20.8z"/>
	</g>
	<g>
		<path class="st8" d="M28.4,20.3c0.2,0,0.3-0.1,0.3-0.3c0-0.2-0.1-0.3-0.3-0.3c-0.2,0-0.3,0.1-0.3,0.3C28,20.2,28.2,20.3,28.4,20.3
			z"/>
		<path class="st8" d="M29,20.8c0-0.2-0.2-0.4-0.4-0.4h-0.5c-0.2,0-0.4,0.2-0.4,0.4v0.9c0,0,0,0.1,0.1,0.1h0c0,0,0.1,0,0.1-0.1
			l0-0.8c0,0,0-0.1,0-0.1c0,0,0,0,0,0.1v0.7v0.2v1.3c0,0,0,0.1,0.1,0.1h0.1c0,0,0.1,0,0.1-0.1v-1.3c0,0,0-0.1,0-0.1c0,0,0,0,0,0.1
			v1.3c0,0,0,0.1,0.1,0.1h0.1c0,0,0.1,0,0.1-0.1l0-1.3v-0.2v-0.7c0,0,0-0.1,0-0.1c0,0,0,0,0,0.1v0.8c0,0,0,0.1,0.1,0.1h0
			c0,0,0.1,0,0.1-0.1L29,20.8z"/>
	</g>
	<g>
		<path class="st8" d="M29.8,20.3c0.2,0,0.3-0.1,0.3-0.3c0-0.2-0.1-0.3-0.3-0.3c-0.2,0-0.3,0.1-0.3,0.3
			C29.5,20.2,29.7,20.3,29.8,20.3z"/>
		<path class="st8" d="M30.5,20.8c0-0.2-0.2-0.4-0.4-0.4h-0.5c-0.2,0-0.4,0.2-0.4,0.4v0.9c0,0,0,0.1,0.1,0.1h0c0,0,0.1,0,0.1-0.1
			l0-0.8c0,0,0-0.1,0-0.1c0,0,0,0,0,0.1v0.7v0.2v1.3c0,0,0,0.1,0.1,0.1h0.1c0,0,0.1,0,0.1-0.1v-1.3c0,0,0-0.1,0-0.1c0,0,0,0,0,0.1
			v1.3c0,0,0,0.1,0.1,0.1h0.1c0,0,0.1,0,0.1-0.1l0-1.3v-0.2v-0.7c0,0,0-0.1,0-0.1c0,0,0,0,0,0.1v0.8c0,0,0,0.1,0.1,0.1h0
			c0,0,0.1,0,0.1-0.1L30.5,20.8z"/>
	</g>
	<g>
		<path class="st7" d="M31.3,20.3c0.2,0,0.3-0.1,0.3-0.3c0-0.2-0.1-0.3-0.3-0.3S31,19.8,31,20C31,20.2,31.2,20.3,31.3,20.3z"/>
		<path class="st7" d="M32,20.8c0-0.2-0.2-0.4-0.4-0.4h-0.5c-0.2,0-0.4,0.2-0.4,0.4v0.9c0,0,0,0.1,0.1,0.1h0c0,0,0.1,0,0.1-0.1
			l0-0.8c0,0,0-0.1,0-0.1c0,0,0,0,0,0.1v0.7v0.2v1.3c0,0,0,0.1,0.1,0.1h0.1c0,0,0.1,0,0.1-0.1v-1.3c0,0,0-0.1,0-0.1c0,0,0,0,0,0.1
			v1.3c0,0,0,0.1,0.1,0.1h0.1c0,0,0.1,0,0.1-0.1l0-1.3v-0.2v-0.7c0,0,0-0.1,0-0.1c0,0,0,0,0,0.1v0.8c0,0,0,0.1,0.1,0.1h0
			c0,0,0.1,0,0.1-0.1L32,20.8z"/>
	</g>
	<g>
		<path class="st7" d="M32.8,20.3c0.2,0,0.3-0.1,0.3-0.3c0-0.2-0.1-0.3-0.3-0.3c-0.2,0-0.3,0.1-0.3,0.3
			C32.5,20.2,32.6,20.3,32.8,20.3z"/>
		<path class="st7" d="M33.4,20.8c0-0.2-0.2-0.4-0.4-0.4h-0.5c-0.2,0-0.4,0.2-0.4,0.4v0.9c0,0,0,0.1,0.1,0.1h0c0,0,0.1,0,0.1-0.1
			l0-0.8c0,0,0-0.1,0-0.1c0,0,0,0,0,0.1v0.7v0.2v1.3c0,0,0,0.1,0.1,0.1h0.1c0,0,0.1,0,0.1-0.1v-1.3c0,0,0-0.1,0-0.1c0,0,0,0,0,0.1
			v1.3c0,0,0,0.1,0.1,0.1h0.1c0,0,0.1,0,0.1-0.1l0-1.3v-0.2v-0.7c0,0,0-0.1,0-0.1c0,0,0,0,0,0.1v0.8c0,0,0,0.1,0.1,0.1h0
			c0,0,0.1,0,0.1-0.1L33.4,20.8z"/>
	</g>
	<g>
		<path class="st7" d="M34.3,20.3c0.2,0,0.3-0.1,0.3-0.3c0-0.2-0.1-0.3-0.3-0.3S34,19.8,34,20C34,20.2,34.1,20.3,34.3,20.3z"/>
		<path class="st7" d="M34.9,20.8c0-0.2-0.2-0.4-0.4-0.4h-0.5c-0.2,0-0.4,0.2-0.4,0.4v0.9c0,0,0,0.1,0.1,0.1h0c0,0,0.1,0,0.1-0.1
			l0-0.8c0,0,0-0.1,0-0.1c0,0,0,0,0,0.1v0.7v0.2v1.3c0,0,0,0.1,0.1,0.1h0.1c0,0,0.1,0,0.1-0.1v-1.3c0,0,0-0.1,0-0.1c0,0,0,0,0,0.1
			v1.3c0,0,0,0.1,0.1,0.1h0.1c0,0,0.1,0,0.1-0.1l0-1.3v-0.2v-0.7c0,0,0-0.1,0-0.1c0,0,0,0,0,0.1v0.8c0,0,0,0.1,0.1,0.1h0
			c0,0,0.1,0,0.1-0.1L34.9,20.8z"/>
	</g>
	<g>
		<path class="st7" d="M35.8,20.3c0.2,0,0.3-0.1,0.3-0.3c0-0.2-0.1-0.3-0.3-0.3s-0.3,0.1-0.3,0.3C35.5,20.2,35.6,20.3,35.8,20.3z"/>
		<path class="st7" d="M36.4,20.8c0-0.2-0.2-0.4-0.4-0.4h-0.5c-0.2,0-0.4,0.2-0.4,0.4v0.9c0,0,0,0.1,0.1,0.1h0c0,0,0.1,0,0.1-0.1
			l0-0.8c0,0,0-0.1,0-0.1c0,0,0,0,0,0.1v0.7v0.2v1.3c0,0,0,0.1,0.1,0.1h0.1c0,0,0.1,0,0.1-0.1v-1.3c0,0,0-0.1,0-0.1c0,0,0,0,0,0.1
			v1.3c0,0,0,0.1,0.1,0.1H36c0,0,0.1,0,0.1-0.1l0-1.3v-0.2v-0.7c0,0,0-0.1,0-0.1c0,0,0,0,0,0.1v0.8c0,0,0,0.1,0.1,0.1h0
			c0,0,0.1,0,0.1-0.1L36.4,20.8z"/>
	</g>
	<g>
		<path class="st7" d="M37.3,20.3c0.2,0,0.3-0.1,0.3-0.3c0-0.2-0.1-0.3-0.3-0.3c-0.2,0-0.3,0.1-0.3,0.3C37,20.2,37.1,20.3,37.3,20.3
			z"/>
		<path class="st7" d="M37.9,20.8c0-0.2-0.2-0.4-0.4-0.4h-0.5c-0.2,0-0.4,0.2-0.4,0.4v0.9c0,0,0,0.1,0.1,0.1h0c0,0,0.1,0,0.1-0.1
			l0-0.8c0,0,0-0.1,0-0.1c0,0,0,0,0,0.1v0.7v0.2v1.3c0,0,0,0.1,0.1,0.1h0.1c0,0,0.1,0,0.1-0.1v-1.3c0,0,0-0.1,0-0.1c0,0,0,0,0,0.1
			v1.3c0,0,0,0.1,0.1,0.1h0.1c0,0,0.1,0,0.1-0.1l0-1.3v-0.2v-0.7c0,0,0-0.1,0-0.1c0,0,0,0,0,0.1v0.8c0,0,0,0.1,0.1,0.1h0
			c0,0,0.1,0,0.1-0.1L37.9,20.8z"/>
	</g>
	<g>
		<path d="M26.9,24.2c0.2,0,0.3-0.1,0.3-0.3c0-0.2-0.1-0.3-0.3-0.3c-0.2,0-0.3,0.1-0.3,0.3C26.6,24.1,26.7,24.2,26.9,24.2z"/>
		<path d="M27.5,24.7c0-0.2-0.2-0.4-0.4-0.4h-0.5c-0.2,0-0.4,0.2-0.4,0.4v0.9c0,0,0,0.1,0.1,0.1h0c0,0,0.1,0,0.1-0.1l0-0.8
			c0,0,0-0.1,0-0.1c0,0,0,0,0,0.1v0.7v0.2V27c0,0,0,0.1,0.1,0.1h0.1c0,0,0.1,0,0.1-0.1v-1.3c0,0,0-0.1,0-0.1c0,0,0,0,0,0.1V27
			c0,0,0,0.1,0.1,0.1h0.1c0,0,0.1,0,0.1-0.1l0-1.3v-0.2v-0.7c0,0,0-0.1,0-0.1c0,0,0,0,0,0.1v0.8c0,0,0,0.1,0.1,0.1h0
			c0,0,0.1,0,0.1-0.1L27.5,24.7z"/>
	</g>
	<g>
		<path d="M28.4,24.2c0.2,0,0.3-0.1,0.3-0.3c0-0.2-0.1-0.3-0.3-0.3c-0.2,0-0.3,0.1-0.3,0.3C28,24.1,28.2,24.2,28.4,24.2z"/>
		<path d="M29,24.7c0-0.2-0.2-0.4-0.4-0.4h-0.5c-0.2,0-0.4,0.2-0.4,0.4v0.9c0,0,0,0.1,0.1,0.1h0c0,0,0.1,0,0.1-0.1l0-0.8
			c0,0,0-0.1,0-0.1c0,0,0,0,0,0.1v0.7v0.2V27c0,0,0,0.1,0.1,0.1h0.1c0,0,0.1,0,0.1-0.1v-1.3c0,0,0-0.1,0-0.1c0,0,0,0,0,0.1V27
			c0,0,0,0.1,0.1,0.1h0.1c0,0,0.1,0,0.1-0.1l0-1.3v-0.2v-0.7c0,0,0-0.1,0-0.1c0,0,0,0,0,0.1v0.8c0,0,0,0.1,0.1,0.1h0
			c0,0,0.1,0,0.1-0.1L29,24.7z"/>
	</g>
	<g>
		<path d="M29.8,24.2c0.2,0,0.3-0.1,0.3-0.3c0-0.2-0.1-0.3-0.3-0.3c-0.2,0-0.3,0.1-0.3,0.3C29.5,24.1,29.7,24.2,29.8,24.2z"/>
		<path d="M30.5,24.7c0-0.2-0.2-0.4-0.4-0.4h-0.5c-0.2,0-0.4,0.2-0.4,0.4v0.9c0,0,0,0.1,0.1,0.1h0c0,0,0.1,0,0.1-0.1l0-0.8
			c0,0,0-0.1,0-0.1c0,0,0,0,0,0.1v0.7v0.2V27c0,0,0,0.1,0.1,0.1h0.1c0,0,0.1,0,0.1-0.1v-1.3c0,0,0-0.1,0-0.1c0,0,0,0,0,0.1V27
			c0,0,0,0.1,0.1,0.1h0.1c0,0,0.1,0,0.1-0.1l0-1.3v-0.2v-0.7c0,0,0-0.1,0-0.1c0,0,0,0,0,0.1v0.8c0,0,0,0.1,0.1,0.1h0
			c0,0,0.1,0,0.1-0.1L30.5,24.7z"/>
	</g>
	<g>
		<path d="M31.3,24.2c0.2,0,0.3-0.1,0.3-0.3c0-0.2-0.1-0.3-0.3-0.3S31,23.8,31,23.9C31,24.1,31.2,24.2,31.3,24.2z"/>
		<path d="M32,24.7c0-0.2-0.2-0.4-0.4-0.4h-0.5c-0.2,0-0.4,0.2-0.4,0.4v0.9c0,0,0,0.1,0.1,0.1h0c0,0,0.1,0,0.1-0.1l0-0.8
			c0,0,0-0.1,0-0.1c0,0,0,0,0,0.1v0.7v0.2V27c0,0,0,0.1,0.1,0.1h0.1c0,0,0.1,0,0.1-0.1v-1.3c0,0,0-0.1,0-0.1c0,0,0,0,0,0.1V27
			c0,0,0,0.1,0.1,0.1h0.1c0,0,0.1,0,0.1-0.1l0-1.3v-0.2v-0.7c0,0,0-0.1,0-0.1c0,0,0,0,0,0.1v0.8c0,0,0,0.1,0.1,0.1h0
			c0,0,0.1,0,0.1-0.1L32,24.7z"/>
	</g>
	<g>
		<path d="M32.8,24.2c0.2,0,0.3-0.1,0.3-0.3c0-0.2-0.1-0.3-0.3-0.3c-0.2,0-0.3,0.1-0.3,0.3C32.5,24.1,32.6,24.2,32.8,24.2z"/>
		<path d="M33.4,24.7c0-0.2-0.2-0.4-0.4-0.4h-0.5c-0.2,0-0.4,0.2-0.4,0.4v0.9c0,0,0,0.1,0.1,0.1h0c0,0,0.1,0,0.1-0.1l0-0.8
			c0,0,0-0.1,0-0.1c0,0,0,0,0,0.1v0.7v0.2V27c0,0,0,0.1,0.1,0.1h0.1c0,0,0.1,0,0.1-0.1v-1.3c0,0,0-0.1,0-0.1c0,0,0,0,0,0.1V27
			c0,0,0,0.1,0.1,0.1h0.1c0,0,0.1,0,0.1-0.1l0-1.3v-0.2v-0.7c0,0,0-0.1,0-0.1c0,0,0,0,0,0.1v0.8c0,0,0,0.1,0.1,0.1h0
			c0,0,0.1,0,0.1-0.1L33.4,24.7z"/>
	</g>
	<g>
		<path d="M34.3,24.2c0.2,0,0.3-0.1,0.3-0.3c0-0.2-0.1-0.3-0.3-0.3S34,23.8,34,23.9C34,24.1,34.1,24.2,34.3,24.2z"/>
		<path d="M34.9,24.7c0-0.2-0.2-0.4-0.4-0.4h-0.5c-0.2,0-0.4,0.2-0.4,0.4v0.9c0,0,0,0.1,0.1,0.1h0c0,0,0.1,0,0.1-0.1l0-0.8
			c0,0,0-0.1,0-0.1c0,0,0,0,0,0.1v0.7v0.2V27c0,0,0,0.1,0.1,0.1h0.1c0,0,0.1,0,0.1-0.1v-1.3c0,0,0-0.1,0-0.1c0,0,0,0,0,0.1V27
			c0,0,0,0.1,0.1,0.1h0.1c0,0,0.1,0,0.1-0.1l0-1.3v-0.2v-0.7c0,0,0-0.1,0-0.1c0,0,0,0,0,0.1v0.8c0,0,0,0.1,0.1,0.1h0
			c0,0,0.1,0,0.1-0.1L34.9,24.7z"/>
	</g>
	<g>
		<path d="M35.8,24.2c0.2,0,0.3-0.1,0.3-0.3c0-0.2-0.1-0.3-0.3-0.3s-0.3,0.1-0.3,0.3C35.5,24.1,35.6,24.2,35.8,24.2z"/>
		<path d="M36.4,24.7c0-0.2-0.2-0.4-0.4-0.4h-0.5c-0.2,0-0.4,0.2-0.4,0.4v0.9c0,0,0,0.1,0.1,0.1h0c0,0,0.1,0,0.1-0.1l0-0.8
			c0,0,0-0.1,0-0.1c0,0,0,0,0,0.1v0.7v0.2V27c0,0,0,0.1,0.1,0.1h0.1c0,0,0.1,0,0.1-0.1v-1.3c0,0,0-0.1,0-0.1c0,0,0,0,0,0.1V27
			c0,0,0,0.1,0.1,0.1H36c0,0,0.1,0,0.1-0.1l0-1.3v-0.2v-0.7c0,0,0-0.1,0-0.1c0,0,0,0,0,0.1v0.8c0,0,0,0.1,0.1,0.1h0
			c0,0,0.1,0,0.1-0.1L36.4,24.7z"/>
	</g>
	<g>
		<path d="M37.3,24.2c0.2,0,0.3-0.1,0.3-0.3c0-0.2-0.1-0.3-0.3-0.3c-0.2,0-0.3,0.1-0.3,0.3C37,24.1,37.1,24.2,37.3,24.2z"/>
		<path d="M37.9,24.7c0-0.2-0.2-0.4-0.4-0.4h-0.5c-0.2,0-0.4,0.2-0.4,0.4v0.9c0,0,0,0.1,0.1,0.1h0c0,0,0.1,0,0.1-0.1l0-0.8
			c0,0,0-0.1,0-0.1c0,0,0,0,0,0.1v0.7v0.2V27c0,0,0,0.1,0.1,0.1h0.1c0,0,0.1,0,0.1-0.1v-1.3c0,0,0-0.1,0-0.1c0,0,0,0,0,0.1V27
			c0,0,0,0.1,0.1,0.1h0.1c0,0,0.1,0,0.1-0.1l0-1.3v-0.2v-0.7c0,0,0-0.1,0-0.1c0,0,0,0,0,0.1v0.8c0,0,0,0.1,0.1,0.1h0
			c0,0,0.1,0,0.1-0.1L37.9,24.7z"/>
	</g>
	<g>
		<path d="M26.9,28.2c0.2,0,0.3-0.1,0.3-0.3c0-0.2-0.1-0.3-0.3-0.3c-0.2,0-0.3,0.1-0.3,0.3C26.6,28,26.7,28.2,26.9,28.2z"/>
		<path d="M27.5,28.7c0-0.2-0.2-0.4-0.4-0.4h-0.5c-0.2,0-0.4,0.2-0.4,0.4v0.9c0,0,0,0.1,0.1,0.1h0c0,0,0.1,0,0.1-0.1l0-0.8
			c0,0,0-0.1,0-0.1c0,0,0,0,0,0.1v0.7v0.2v1.3c0,0,0,0.1,0.1,0.1h0.1c0,0,0.1,0,0.1-0.1v-1.3c0,0,0-0.1,0-0.1c0,0,0,0,0,0.1v1.3
			c0,0,0,0.1,0.1,0.1h0.1c0,0,0.1,0,0.1-0.1l0-1.3v-0.2v-0.7c0,0,0-0.1,0-0.1c0,0,0,0,0,0.1v0.8c0,0,0,0.1,0.1,0.1h0
			c0,0,0.1,0,0.1-0.1L27.5,28.7z"/>
	</g>
	<g>
		<path d="M28.4,28.2c0.2,0,0.3-0.1,0.3-0.3c0-0.2-0.1-0.3-0.3-0.3c-0.2,0-0.3,0.1-0.3,0.3C28,28,28.2,28.2,28.4,28.2z"/>
		<path d="M29,28.7c0-0.2-0.2-0.4-0.4-0.4h-0.5c-0.2,0-0.4,0.2-0.4,0.4v0.9c0,0,0,0.1,0.1,0.1h0c0,0,0.1,0,0.1-0.1l0-0.8
			c0,0,0-0.1,0-0.1c0,0,0,0,0,0.1v0.7v0.2v1.3c0,0,0,0.1,0.1,0.1h0.1c0,0,0.1,0,0.1-0.1v-1.3c0,0,0-0.1,0-0.1c0,0,0,0,0,0.1v1.3
			c0,0,0,0.1,0.1,0.1h0.1c0,0,0.1,0,0.1-0.1l0-1.3v-0.2v-0.7c0,0,0-0.1,0-0.1c0,0,0,0,0,0.1v0.8c0,0,0,0.1,0.1,0.1h0
			c0,0,0.1,0,0.1-0.1L29,28.7z"/>
	</g>
	<g>
		<path d="M29.8,28.2c0.2,0,0.3-0.1,0.3-0.3c0-0.2-0.1-0.3-0.3-0.3c-0.2,0-0.3,0.1-0.3,0.3C29.5,28,29.7,28.2,29.8,28.2z"/>
		<path d="M30.5,28.7c0-0.2-0.2-0.4-0.4-0.4h-0.5c-0.2,0-0.4,0.2-0.4,0.4v0.9c0,0,0,0.1,0.1,0.1h0c0,0,0.1,0,0.1-0.1l0-0.8
			c0,0,0-0.1,0-0.1c0,0,0,0,0,0.1v0.7v0.2v1.3c0,0,0,0.1,0.1,0.1h0.1c0,0,0.1,0,0.1-0.1v-1.3c0,0,0-0.1,0-0.1c0,0,0,0,0,0.1v1.3
			c0,0,0,0.1,0.1,0.1h0.1c0,0,0.1,0,0.1-0.1l0-1.3v-0.2v-0.7c0,0,0-0.1,0-0.1c0,0,0,0,0,0.1v0.8c0,0,0,0.1,0.1,0.1h0
			c0,0,0.1,0,0.1-0.1L30.5,28.7z"/>
	</g>
	<g>
		<path d="M31.3,28.2c0.2,0,0.3-0.1,0.3-0.3c0-0.2-0.1-0.3-0.3-0.3S31,27.7,31,27.9C31,28,31.2,28.2,31.3,28.2z"/>
		<path d="M32,28.7c0-0.2-0.2-0.4-0.4-0.4h-0.5c-0.2,0-0.4,0.2-0.4,0.4v0.9c0,0,0,0.1,0.1,0.1h0c0,0,0.1,0,0.1-0.1l0-0.8
			c0,0,0-0.1,0-0.1c0,0,0,0,0,0.1v0.7v0.2v1.3c0,0,0,0.1,0.1,0.1h0.1c0,0,0.1,0,0.1-0.1v-1.3c0,0,0-0.1,0-0.1c0,0,0,0,0,0.1v1.3
			c0,0,0,0.1,0.1,0.1h0.1c0,0,0.1,0,0.1-0.1l0-1.3v-0.2v-0.7c0,0,0-0.1,0-0.1c0,0,0,0,0,0.1v0.8c0,0,0,0.1,0.1,0.1h0
			c0,0,0.1,0,0.1-0.1L32,28.7z"/>
	</g>
	<g>
		<path d="M32.8,28.2c0.2,0,0.3-0.1,0.3-0.3c0-0.2-0.1-0.3-0.3-0.3c-0.2,0-0.3,0.1-0.3,0.3C32.5,28,32.6,28.2,32.8,28.2z"/>
		<path d="M33.4,28.7c0-0.2-0.2-0.4-0.4-0.4h-0.5c-0.2,0-0.4,0.2-0.4,0.4v0.9c0,0,0,0.1,0.1,0.1h0c0,0,0.1,0,0.1-0.1l0-0.8
			c0,0,0-0.1,0-0.1c0,0,0,0,0,0.1v0.7v0.2v1.3c0,0,0,0.1,0.1,0.1h0.1c0,0,0.1,0,0.1-0.1v-1.3c0,0,0-0.1,0-0.1c0,0,0,0,0,0.1v1.3
			c0,0,0,0.1,0.1,0.1h0.1c0,0,0.1,0,0.1-0.1l0-1.3v-0.2v-0.7c0,0,0-0.1,0-0.1c0,0,0,0,0,0.1v0.8c0,0,0,0.1,0.1,0.1h0
			c0,0,0.1,0,0.1-0.1L33.4,28.7z"/>
	</g>
	<g>
		<path d="M34.3,28.2c0.2,0,0.3-0.1,0.3-0.3c0-0.2-0.1-0.3-0.3-0.3S34,27.7,34,27.9C34,28,34.1,28.2,34.3,28.2z"/>
		<path d="M34.9,28.7c0-0.2-0.2-0.4-0.4-0.4h-0.5c-0.2,0-0.4,0.2-0.4,0.4v0.9c0,0,0,0.1,0.1,0.1h0c0,0,0.1,0,0.1-0.1l0-0.8
			c0,0,0-0.1,0-0.1c0,0,0,0,0,0.1v0.7v0.2v1.3c0,0,0,0.1,0.1,0.1h0.1c0,0,0.1,0,0.1-0.1v-1.3c0,0,0-0.1,0-0.1c0,0,0,0,0,0.1v1.3
			c0,0,0,0.1,0.1,0.1h0.1c0,0,0.1,0,0.1-0.1l0-1.3v-0.2v-0.7c0,0,0-0.1,0-0.1c0,0,0,0,0,0.1v0.8c0,0,0,0.1,0.1,0.1h0
			c0,0,0.1,0,0.1-0.1L34.9,28.7z"/>
	</g>
	<g>
		<path d="M35.8,28.2c0.2,0,0.3-0.1,0.3-0.3c0-0.2-0.1-0.3-0.3-0.3s-0.3,0.1-0.3,0.3C35.5,28,35.6,28.2,35.8,28.2z"/>
		<path d="M36.4,28.7c0-0.2-0.2-0.4-0.4-0.4h-0.5c-0.2,0-0.4,0.2-0.4,0.4v0.9c0,0,0,0.1,0.1,0.1h0c0,0,0.1,0,0.1-0.1l0-0.8
			c0,0,0-0.1,0-0.1c0,0,0,0,0,0.1v0.7v0.2v1.3c0,0,0,0.1,0.1,0.1h0.1c0,0,0.1,0,0.1-0.1v-1.3c0,0,0-0.1,0-0.1c0,0,0,0,0,0.1v1.3
			c0,0,0,0.1,0.1,0.1H36c0,0,0.1,0,0.1-0.1l0-1.3v-0.2v-0.7c0,0,0-0.1,0-0.1c0,0,0,0,0,0.1v0.8c0,0,0,0.1,0.1,0.1h0
			c0,0,0.1,0,0.1-0.1L36.4,28.7z"/>
	</g>
	<g>
		<path d="M37.3,28.2c0.2,0,0.3-0.1,0.3-0.3c0-0.2-0.1-0.3-0.3-0.3c-0.2,0-0.3,0.1-0.3,0.3C37,28,37.1,28.2,37.3,28.2z"/>
		<path d="M37.9,28.7c0-0.2-0.2-0.4-0.4-0.4h-0.5c-0.2,0-0.4,0.2-0.4,0.4v0.9c0,0,0,0.1,0.1,0.1h0c0,0,0.1,0,0.1-0.1l0-0.8
			c0,0,0-0.1,0-0.1c0,0,0,0,0,0.1v0.7v0.2v1.3c0,0,0,0.1,0.1,0.1h0.1c0,0,0.1,0,0.1-0.1v-1.3c0,0,0-0.1,0-0.1c0,0,0,0,0,0.1v1.3
			c0,0,0,0.1,0.1,0.1h0.1c0,0,0.1,0,0.1-0.1l0-1.3v-0.2v-0.7c0,0,0-0.1,0-0.1c0,0,0,0,0,0.1v0.8c0,0,0,0.1,0.1,0.1h0
			c0,0,0.1,0,0.1-0.1L37.9,28.7z"/>
	</g>
	<g>
		<path d="M26.9,32.1c0.2,0,0.3-0.1,0.3-0.3c0-0.2-0.1-0.3-0.3-0.3c-0.2,0-0.3,0.1-0.3,0.3C26.6,32,26.7,32.1,26.9,32.1z"/>
		<path d="M27.5,32.6c0-0.2-0.2-0.4-0.4-0.4h-0.5c-0.2,0-0.4,0.2-0.4,0.4v0.9c0,0,0,0.1,0.1,0.1h0c0,0,0.1,0,0.1-0.1l0-0.8
			c0,0,0-0.1,0-0.1c0,0,0,0,0,0.1v0.7v0.2v1.3c0,0,0,0.1,0.1,0.1h0.1c0,0,0.1,0,0.1-0.1v-1.3c0,0,0-0.1,0-0.1c0,0,0,0,0,0.1v1.3
			c0,0,0,0.1,0.1,0.1h0.1c0,0,0.1,0,0.1-0.1l0-1.3v-0.2v-0.7c0,0,0-0.1,0-0.1c0,0,0,0,0,0.1v0.8c0,0,0,0.1,0.1,0.1h0
			c0,0,0.1,0,0.1-0.1L27.5,32.6z"/>
	</g>
	<g>
		<path d="M28.4,32.1c0.2,0,0.3-0.1,0.3-0.3c0-0.2-0.1-0.3-0.3-0.3c-0.2,0-0.3,0.1-0.3,0.3C28,32,28.2,32.1,28.4,32.1z"/>
		<path d="M29,32.6c0-0.2-0.2-0.4-0.4-0.4h-0.5c-0.2,0-0.4,0.2-0.4,0.4v0.9c0,0,0,0.1,0.1,0.1h0c0,0,0.1,0,0.1-0.1l0-0.8
			c0,0,0-0.1,0-0.1c0,0,0,0,0,0.1v0.7v0.2v1.3c0,0,0,0.1,0.1,0.1h0.1c0,0,0.1,0,0.1-0.1v-1.3c0,0,0-0.1,0-0.1c0,0,0,0,0,0.1v1.3
			c0,0,0,0.1,0.1,0.1h0.1c0,0,0.1,0,0.1-0.1l0-1.3v-0.2v-0.7c0,0,0-0.1,0-0.1c0,0,0,0,0,0.1v0.8c0,0,0,0.1,0.1,0.1h0
			c0,0,0.1,0,0.1-0.1L29,32.6z"/>
	</g>
	<g>
		<path d="M29.8,32.1c0.2,0,0.3-0.1,0.3-0.3c0-0.2-0.1-0.3-0.3-0.3c-0.2,0-0.3,0.1-0.3,0.3C29.5,32,29.7,32.1,29.8,32.1z"/>
		<path d="M30.5,32.6c0-0.2-0.2-0.4-0.4-0.4h-0.5c-0.2,0-0.4,0.2-0.4,0.4v0.9c0,0,0,0.1,0.1,0.1h0c0,0,0.1,0,0.1-0.1l0-0.8
			c0,0,0-0.1,0-0.1c0,0,0,0,0,0.1v0.7v0.2v1.3c0,0,0,0.1,0.1,0.1h0.1c0,0,0.1,0,0.1-0.1v-1.3c0,0,0-0.1,0-0.1c0,0,0,0,0,0.1v1.3
			c0,0,0,0.1,0.1,0.1h0.1c0,0,0.1,0,0.1-0.1l0-1.3v-0.2v-0.7c0,0,0-0.1,0-0.1c0,0,0,0,0,0.1v0.8c0,0,0,0.1,0.1,0.1h0
			c0,0,0.1,0,0.1-0.1L30.5,32.6z"/>
	</g>
	<g>
		<path d="M31.3,32.1c0.2,0,0.3-0.1,0.3-0.3c0-0.2-0.1-0.3-0.3-0.3S31,31.6,31,31.8C31,32,31.2,32.1,31.3,32.1z"/>
		<path d="M32,32.6c0-0.2-0.2-0.4-0.4-0.4h-0.5c-0.2,0-0.4,0.2-0.4,0.4v0.9c0,0,0,0.1,0.1,0.1h0c0,0,0.1,0,0.1-0.1l0-0.8
			c0,0,0-0.1,0-0.1c0,0,0,0,0,0.1v0.7v0.2v1.3c0,0,0,0.1,0.1,0.1h0.1c0,0,0.1,0,0.1-0.1v-1.3c0,0,0-0.1,0-0.1c0,0,0,0,0,0.1v1.3
			c0,0,0,0.1,0.1,0.1h0.1c0,0,0.1,0,0.1-0.1l0-1.3v-0.2v-0.7c0,0,0-0.1,0-0.1c0,0,0,0,0,0.1v0.8c0,0,0,0.1,0.1,0.1h0
			c0,0,0.1,0,0.1-0.1L32,32.6z"/>
	</g>
	<g>
		<path d="M32.8,32.1c0.2,0,0.3-0.1,0.3-0.3c0-0.2-0.1-0.3-0.3-0.3c-0.2,0-0.3,0.1-0.3,0.3C32.5,32,32.6,32.1,32.8,32.1z"/>
		<path d="M33.4,32.6c0-0.2-0.2-0.4-0.4-0.4h-0.5c-0.2,0-0.4,0.2-0.4,0.4v0.9c0,0,0,0.1,0.1,0.1h0c0,0,0.1,0,0.1-0.1l0-0.8
			c0,0,0-0.1,0-0.1c0,0,0,0,0,0.1v0.7v0.2v1.3c0,0,0,0.1,0.1,0.1h0.1c0,0,0.1,0,0.1-0.1v-1.3c0,0,0-0.1,0-0.1c0,0,0,0,0,0.1v1.3
			c0,0,0,0.1,0.1,0.1h0.1c0,0,0.1,0,0.1-0.1l0-1.3v-0.2v-0.7c0,0,0-0.1,0-0.1c0,0,0,0,0,0.1v0.8c0,0,0,0.1,0.1,0.1h0
			c0,0,0.1,0,0.1-0.1L33.4,32.6z"/>
	</g>
	<g>
		<path d="M34.3,32.1c0.2,0,0.3-0.1,0.3-0.3c0-0.2-0.1-0.3-0.3-0.3S34,31.6,34,31.8C34,32,34.1,32.1,34.3,32.1z"/>
		<path d="M34.9,32.6c0-0.2-0.2-0.4-0.4-0.4h-0.5c-0.2,0-0.4,0.2-0.4,0.4v0.9c0,0,0,0.1,0.1,0.1h0c0,0,0.1,0,0.1-0.1l0-0.8
			c0,0,0-0.1,0-0.1c0,0,0,0,0,0.1v0.7v0.2v1.3c0,0,0,0.1,0.1,0.1h0.1c0,0,0.1,0,0.1-0.1v-1.3c0,0,0-0.1,0-0.1c0,0,0,0,0,0.1v1.3
			c0,0,0,0.1,0.1,0.1h0.1c0,0,0.1,0,0.1-0.1l0-1.3v-0.2v-0.7c0,0,0-0.1,0-0.1c0,0,0,0,0,0.1v0.8c0,0,0,0.1,0.1,0.1h0
			c0,0,0.1,0,0.1-0.1L34.9,32.6z"/>
	</g>
	<g>
		<path d="M35.8,32.1c0.2,0,0.3-0.1,0.3-0.3c0-0.2-0.1-0.3-0.3-0.3s-0.3,0.1-0.3,0.3C35.5,32,35.6,32.1,35.8,32.1z"/>
		<path d="M36.4,32.6c0-0.2-0.2-0.4-0.4-0.4h-0.5c-0.2,0-0.4,0.2-0.4,0.4v0.9c0,0,0,0.1,0.1,0.1h0c0,0,0.1,0,0.1-0.1l0-0.8
			c0,0,0-0.1,0-0.1c0,0,0,0,0,0.1v0.7v0.2v1.3c0,0,0,0.1,0.1,0.1h0.1c0,0,0.1,0,0.1-0.1v-1.3c0,0,0-0.1,0-0.1c0,0,0,0,0,0.1v1.3
			c0,0,0,0.1,0.1,0.1H36c0,0,0.1,0,0.1-0.1l0-1.3v-0.2v-0.7c0,0,0-0.1,0-0.1c0,0,0,0,0,0.1v0.8c0,0,0,0.1,0.1,0.1h0
			c0,0,0.1,0,0.1-0.1L36.4,32.6z"/>
	</g>
	<g>
		<path d="M37.3,32.1c0.2,0,0.3-0.1,0.3-0.3c0-0.2-0.1-0.3-0.3-0.3c-0.2,0-0.3,0.1-0.3,0.3C37,32,37.1,32.1,37.3,32.1z"/>
		<path d="M37.9,32.6c0-0.2-0.2-0.4-0.4-0.4h-0.5c-0.2,0-0.4,0.2-0.4,0.4v0.9c0,0,0,0.1,0.1,0.1h0c0,0,0.1,0,0.1-0.1l0-0.8
			c0,0,0-0.1,0-0.1c0,0,0,0,0,0.1v0.7v0.2v1.3c0,0,0,0.1,0.1,0.1h0.1c0,0,0.1,0,0.1-0.1v-1.3c0,0,0-0.1,0-0.1c0,0,0,0,0,0.1v1.3
			c0,0,0,0.1,0.1,0.1h0.1c0,0,0.1,0,0.1-0.1l0-1.3v-0.2v-0.7c0,0,0-0.1,0-0.1c0,0,0,0,0,0.1v0.8c0,0,0,0.1,0.1,0.1h0
			c0,0,0.1,0,0.1-0.1L37.9,32.6z"/>
	</g>
	<text transform="matrix(1 0 0 1 24.5417 42.2437)"><tspan x="0" y="0" class="st1 st2">Momento del</tspan><tspan x="0" y="2.4" class="st1 st2">accidente</tspan></text>
	<text transform="matrix(1 0 0 1 26.244 12.4362)"><tspan x="0" y="0" class="st1 st3">33 sobreviven</tspan><tspan x="0" y="1.8" class="st1 st3">el accidente</tspan></text>
	<line class="st4" x1="24.5" y1="38" x2="24.5" y2="9.8"/>
	<polygon class="st0" points="24.5,36 24.9,37.1 25.7,36.4 25.4,37.4 26.5,37.4 25.6,38 26.5,38.7 25.4,38.6 25.7,39.7 24.9,39 
		24.5,40.1 24.2,39 23.3,39.7 23.7,38.6 22.6,38.7 23.5,38 22.6,37.4 23.7,37.4 23.3,36.4 24.2,37.1 	"/>
</g>
<text transform="matrix(1 0 0 1 4.7314 5.3117)" class="st9 st10">72 días hasta el rescate</text>
<g>
	<text transform="matrix(1 0 0 1 42.6688 42.2437)"><tspan x="0" y="0" class="st1 st2">Primera</tspan><tspan x="0" y="2.4" class="st1 st2">noche</tspan></text>
	<text transform="matrix(1 0 0 1 44.1459 12.4362)"><tspan x="0" y="0" class="st1 st3">5 mueren durante</tspan><tspan x="0" y="1.8" class="st1 st3">la primera noche</tspan></text>
	<path class="st7" d="M44.8,16.4c0.2,0,0.3-0.1,0.3-0.3c0-0.2-0.1-0.3-0.3-0.3s-0.3,0.1-0.3,0.3C44.5,16.3,44.6,16.4,44.8,16.4z"/>
	<path class="st7" d="M45.4,16.9c0-0.2-0.2-0.4-0.4-0.4h-0.5c-0.2,0-0.4,0.2-0.4,0.4v0.9c0,0,0,0.1,0.1,0.1h0c0,0,0.1,0,0.1-0.1
		l0-0.8c0,0,0-0.1,0-0.1c0,0,0,0,0,0.1v0.7v0.2v1.3c0,0,0,0.1,0.1,0.1h0.1c0,0,0.1,0,0.1-0.1v-1.3c0,0,0-0.1,0-0.1c0,0,0,0,0,0.1
		v1.3c0,0,0,0.1,0.1,0.1H45c0,0,0.1,0,0.1-0.1l0-1.3v-0.2V17c0,0,0-0.1,0-0.1c0,0,0,0,0,0.1v0.8c0,0,0,0.1,0.1,0.1h0
		c0,0,0.1,0,0.1-0.1L45.4,16.9z"/>
	<path class="st7" d="M46.3,16.4c0.2,0,0.3-0.1,0.3-0.3c0-0.2-0.1-0.3-0.3-0.3S46,15.9,46,16.1C46,16.3,46.1,16.4,46.3,16.4z"/>
	<path class="st7" d="M46.9,16.9c0-0.2-0.2-0.4-0.4-0.4H46c-0.2,0-0.4,0.2-0.4,0.4v0.9c0,0,0,0.1,0.1,0.1h0c0,0,0.1,0,0.1-0.1l0-0.8
		c0,0,0-0.1,0-0.1c0,0,0,0,0,0.1v0.7v0.2v1.3c0,0,0,0.1,0.1,0.1h0.1c0,0,0.1,0,0.1-0.1v-1.3c0,0,0-0.1,0-0.1c0,0,0,0,0,0.1v1.3
		c0,0,0,0.1,0.1,0.1h0.1c0,0,0.1,0,0.1-0.1l0-1.3v-0.2V17c0,0,0-0.1,0-0.1c0,0,0,0,0,0.1v0.8c0,0,0,0.1,0.1,0.1h0c0,0,0.1,0,0.1-0.1
		L46.9,16.9z"/>
	<path class="st7" d="M47.7,16.4c0.2,0,0.3-0.1,0.3-0.3c0-0.2-0.1-0.3-0.3-0.3c-0.2,0-0.3,0.1-0.3,0.3
		C47.4,16.3,47.6,16.4,47.7,16.4z"/>
	<path class="st7" d="M48.4,16.9c0-0.2-0.2-0.4-0.4-0.4h-0.5c-0.2,0-0.4,0.2-0.4,0.4v0.9c0,0,0,0.1,0.1,0.1h0c0,0,0.1,0,0.1-0.1
		l0-0.8c0,0,0-0.1,0-0.1c0,0,0,0,0,0.1v0.7v0.2v1.3c0,0,0,0.1,0.1,0.1h0.1c0,0,0.1,0,0.1-0.1v-1.3c0,0,0-0.1,0-0.1c0,0,0,0,0,0.1
		v1.3c0,0,0,0.1,0.1,0.1H48c0,0,0.1,0,0.1-0.1l0-1.3v-0.2V17c0,0,0-0.1,0-0.1c0,0,0,0,0,0.1v0.8c0,0,0,0.1,0.1,0.1h0
		c0,0,0.1,0,0.1-0.1L48.4,16.9z"/>
	<path class="st7" d="M49.2,16.4c0.2,0,0.3-0.1,0.3-0.3c0-0.2-0.1-0.3-0.3-0.3s-0.3,0.1-0.3,0.3C48.9,16.3,49.1,16.4,49.2,16.4z"/>
	<path class="st7" d="M49.9,16.9c0-0.2-0.2-0.4-0.4-0.4H49c-0.2,0-0.4,0.2-0.4,0.4v0.9c0,0,0,0.1,0.1,0.1h0c0,0,0.1,0,0.1-0.1l0-0.8
		c0,0,0-0.1,0-0.1c0,0,0,0,0,0.1v0.7v0.2v1.3c0,0,0,0.1,0.1,0.1h0.1c0,0,0.1,0,0.1-0.1v-1.3c0,0,0-0.1,0-0.1c0,0,0,0,0,0.1v1.3
		c0,0,0,0.1,0.1,0.1h0.1c0,0,0.1,0,0.1-0.1l0-1.3v-0.2V17c0,0,0-0.1,0-0.1c0,0,0,0,0,0.1v0.8c0,0,0,0.1,0.1,0.1h0c0,0,0.1,0,0.1-0.1
		L49.9,16.9z"/>
	<path class="st7" d="M50.7,16.4c0.2,0,0.3-0.1,0.3-0.3c0-0.2-0.1-0.3-0.3-0.3c-0.2,0-0.3,0.1-0.3,0.3
		C50.4,16.3,50.6,16.4,50.7,16.4z"/>
	<path class="st7" d="M51.3,16.9c0-0.2-0.2-0.4-0.4-0.4h-0.5c-0.2,0-0.4,0.2-0.4,0.4v0.9c0,0,0,0.1,0.1,0.1h0c0,0,0.1,0,0.1-0.1
		l0-0.8c0,0,0-0.1,0-0.1c0,0,0,0,0,0.1v0.7v0.2v1.3c0,0,0,0.1,0.1,0.1h0.1c0,0,0.1,0,0.1-0.1v-1.3c0,0,0-0.1,0-0.1c0,0,0,0,0,0.1
		v1.3c0,0,0,0.1,0.1,0.1H51c0,0,0.1,0,0.1-0.1l0-1.3v-0.2V17c0,0,0-0.1,0-0.1c0,0,0,0,0,0.1v0.8c0,0,0,0.1,0.1,0.1h0
		c0,0,0.1,0,0.1-0.1L51.3,16.9z"/>
	<path class="st7" d="M52.2,16.4c0.2,0,0.3-0.1,0.3-0.3c0-0.2-0.1-0.3-0.3-0.3c-0.2,0-0.3,0.1-0.3,0.3C51.9,16.3,52,16.4,52.2,16.4z
		"/>
	<path class="st7" d="M52.8,16.9c0-0.2-0.2-0.4-0.4-0.4H52c-0.2,0-0.4,0.2-0.4,0.4v0.9c0,0,0,0.1,0.1,0.1h0c0,0,0.1,0,0.1-0.1l0-0.8
		c0,0,0-0.1,0-0.1c0,0,0,0,0,0.1v0.7v0.2v1.3c0,0,0,0.1,0.1,0.1h0.1c0,0,0.1,0,0.1-0.1v-1.3c0,0,0-0.1,0-0.1c0,0,0,0,0,0.1v1.3
		c0,0,0,0.1,0.1,0.1h0.1c0,0,0.1,0,0.1-0.1l0-1.3v-0.2V17c0,0,0-0.1,0-0.1c0,0,0,0,0,0.1v0.8c0,0,0,0.1,0.1,0.1h0c0,0,0.1,0,0.1-0.1
		L52.8,16.9z"/>
	<path class="st7" d="M53.7,16.4c0.2,0,0.3-0.1,0.3-0.3c0-0.2-0.1-0.3-0.3-0.3s-0.3,0.1-0.3,0.3C53.4,16.3,53.5,16.4,53.7,16.4z"/>
	<path class="st7" d="M54.3,16.9c0-0.2-0.2-0.4-0.4-0.4h-0.5c-0.2,0-0.4,0.2-0.4,0.4v0.9c0,0,0,0.1,0.1,0.1h0c0,0,0.1,0,0.1-0.1
		l0-0.8c0,0,0-0.1,0-0.1c0,0,0,0,0,0.1v0.7v0.2v1.3c0,0,0,0.1,0.1,0.1h0.1c0,0,0.1,0,0.1-0.1v-1.3c0,0,0-0.1,0-0.1c0,0,0,0,0,0.1
		v1.3c0,0,0,0.1,0.1,0.1h0.1c0,0,0.1,0,0.1-0.1l0-1.3v-0.2V17c0,0,0-0.1,0-0.1c0,0,0,0,0,0.1v0.8c0,0,0,0.1,0.1,0.1h0
		c0,0,0.1,0,0.1-0.1L54.3,16.9z"/>
	<path class="st7" d="M55.2,16.4c0.2,0,0.3-0.1,0.3-0.3c0-0.2-0.1-0.3-0.3-0.3c-0.2,0-0.3,0.1-0.3,0.3C54.9,16.3,55,16.4,55.2,16.4z
		"/>
	<path class="st7" d="M55.8,16.9c0-0.2-0.2-0.4-0.4-0.4H55c-0.2,0-0.4,0.2-0.4,0.4v0.9c0,0,0,0.1,0.1,0.1h0c0,0,0.1,0,0.1-0.1l0-0.8
		c0,0,0-0.1,0-0.1c0,0,0,0,0,0.1v0.7v0.2v1.3c0,0,0,0.1,0.1,0.1H55c0,0,0.1,0,0.1-0.1v-1.3c0,0,0-0.1,0-0.1c0,0,0,0,0,0.1v1.3
		c0,0,0,0.1,0.1,0.1h0.1c0,0,0.1,0,0.1-0.1l0-1.3v-0.2V17c0,0,0-0.1,0-0.1c0,0,0,0,0,0.1v0.8c0,0,0,0.1,0.1,0.1h0c0,0,0.1,0,0.1-0.1
		L55.8,16.9z"/>
	<path class="st7" d="M44.8,20.3c0.2,0,0.3-0.1,0.3-0.3c0-0.2-0.1-0.3-0.3-0.3s-0.3,0.1-0.3,0.3C44.5,20.2,44.6,20.3,44.8,20.3z"/>
	<path class="st7" d="M45.4,20.8c0-0.2-0.2-0.4-0.4-0.4h-0.5c-0.2,0-0.4,0.2-0.4,0.4v0.9c0,0,0,0.1,0.1,0.1h0c0,0,0.1,0,0.1-0.1
		l0-0.8c0,0,0-0.1,0-0.1c0,0,0,0,0,0.1v0.7v0.2v1.3c0,0,0,0.1,0.1,0.1h0.1c0,0,0.1,0,0.1-0.1v-1.3c0,0,0-0.1,0-0.1c0,0,0,0,0,0.1
		v1.3c0,0,0,0.1,0.1,0.1H45c0,0,0.1,0,0.1-0.1l0-1.3v-0.2v-0.7c0,0,0-0.1,0-0.1c0,0,0,0,0,0.1v0.8c0,0,0,0.1,0.1,0.1h0
		c0,0,0.1,0,0.1-0.1L45.4,20.8z"/>
	<path class="st7" d="M46.3,20.3c0.2,0,0.3-0.1,0.3-0.3c0-0.2-0.1-0.3-0.3-0.3S46,19.8,46,20C46,20.2,46.1,20.3,46.3,20.3z"/>
	<path class="st7" d="M46.9,20.8c0-0.2-0.2-0.4-0.4-0.4H46c-0.2,0-0.4,0.2-0.4,0.4v0.9c0,0,0,0.1,0.1,0.1h0c0,0,0.1,0,0.1-0.1l0-0.8
		c0,0,0-0.1,0-0.1c0,0,0,0,0,0.1v0.7v0.2v1.3c0,0,0,0.1,0.1,0.1h0.1c0,0,0.1,0,0.1-0.1v-1.3c0,0,0-0.1,0-0.1c0,0,0,0,0,0.1v1.3
		c0,0,0,0.1,0.1,0.1h0.1c0,0,0.1,0,0.1-0.1l0-1.3v-0.2v-0.7c0,0,0-0.1,0-0.1c0,0,0,0,0,0.1v0.8c0,0,0,0.1,0.1,0.1h0
		c0,0,0.1,0,0.1-0.1L46.9,20.8z"/>
	<path class="st7" d="M47.7,20.3c0.2,0,0.3-0.1,0.3-0.3c0-0.2-0.1-0.3-0.3-0.3c-0.2,0-0.3,0.1-0.3,0.3
		C47.4,20.2,47.6,20.3,47.7,20.3z"/>
	<path class="st7" d="M48.4,20.8c0-0.2-0.2-0.4-0.4-0.4h-0.5c-0.2,0-0.4,0.2-0.4,0.4v0.9c0,0,0,0.1,0.1,0.1h0c0,0,0.1,0,0.1-0.1
		l0-0.8c0,0,0-0.1,0-0.1c0,0,0,0,0,0.1v0.7v0.2v1.3c0,0,0,0.1,0.1,0.1h0.1c0,0,0.1,0,0.1-0.1v-1.3c0,0,0-0.1,0-0.1c0,0,0,0,0,0.1
		v1.3c0,0,0,0.1,0.1,0.1H48c0,0,0.1,0,0.1-0.1l0-1.3v-0.2v-0.7c0,0,0-0.1,0-0.1c0,0,0,0,0,0.1v0.8c0,0,0,0.1,0.1,0.1h0
		c0,0,0.1,0,0.1-0.1L48.4,20.8z"/>
	<path class="st7" d="M49.2,20.3c0.2,0,0.3-0.1,0.3-0.3c0-0.2-0.1-0.3-0.3-0.3s-0.3,0.1-0.3,0.3C48.9,20.2,49.1,20.3,49.2,20.3z"/>
	<path class="st7" d="M49.9,20.8c0-0.2-0.2-0.4-0.4-0.4H49c-0.2,0-0.4,0.2-0.4,0.4v0.9c0,0,0,0.1,0.1,0.1h0c0,0,0.1,0,0.1-0.1l0-0.8
		c0,0,0-0.1,0-0.1c0,0,0,0,0,0.1v0.7v0.2v1.3c0,0,0,0.1,0.1,0.1h0.1c0,0,0.1,0,0.1-0.1v-1.3c0,0,0-0.1,0-0.1c0,0,0,0,0,0.1v1.3
		c0,0,0,0.1,0.1,0.1h0.1c0,0,0.1,0,0.1-0.1l0-1.3v-0.2v-0.7c0,0,0-0.1,0-0.1c0,0,0,0,0,0.1v0.8c0,0,0,0.1,0.1,0.1h0
		c0,0,0.1,0,0.1-0.1L49.9,20.8z"/>
	<path class="st7" d="M50.7,20.3c0.2,0,0.3-0.1,0.3-0.3c0-0.2-0.1-0.3-0.3-0.3c-0.2,0-0.3,0.1-0.3,0.3
		C50.4,20.2,50.6,20.3,50.7,20.3z"/>
	<path class="st7" d="M51.3,20.8c0-0.2-0.2-0.4-0.4-0.4h-0.5c-0.2,0-0.4,0.2-0.4,0.4v0.9c0,0,0,0.1,0.1,0.1h0c0,0,0.1,0,0.1-0.1
		l0-0.8c0,0,0-0.1,0-0.1c0,0,0,0,0,0.1v0.7v0.2v1.3c0,0,0,0.1,0.1,0.1h0.1c0,0,0.1,0,0.1-0.1v-1.3c0,0,0-0.1,0-0.1c0,0,0,0,0,0.1
		v1.3c0,0,0,0.1,0.1,0.1H51c0,0,0.1,0,0.1-0.1l0-1.3v-0.2v-0.7c0,0,0-0.1,0-0.1c0,0,0,0,0,0.1v0.8c0,0,0,0.1,0.1,0.1h0
		c0,0,0.1,0,0.1-0.1L51.3,20.8z"/>
	<path class="st7" d="M52.2,20.3c0.2,0,0.3-0.1,0.3-0.3c0-0.2-0.1-0.3-0.3-0.3c-0.2,0-0.3,0.1-0.3,0.3C51.9,20.2,52,20.3,52.2,20.3z
		"/>
	<path class="st7" d="M52.8,20.8c0-0.2-0.2-0.4-0.4-0.4H52c-0.2,0-0.4,0.2-0.4,0.4v0.9c0,0,0,0.1,0.1,0.1h0c0,0,0.1,0,0.1-0.1l0-0.8
		c0,0,0-0.1,0-0.1c0,0,0,0,0,0.1v0.7v0.2v1.3c0,0,0,0.1,0.1,0.1h0.1c0,0,0.1,0,0.1-0.1v-1.3c0,0,0-0.1,0-0.1c0,0,0,0,0,0.1v1.3
		c0,0,0,0.1,0.1,0.1h0.1c0,0,0.1,0,0.1-0.1l0-1.3v-0.2v-0.7c0,0,0-0.1,0-0.1c0,0,0,0,0,0.1v0.8c0,0,0,0.1,0.1,0.1h0
		c0,0,0.1,0,0.1-0.1L52.8,20.8z"/>
	<path class="st7" d="M53.7,20.3c0.2,0,0.3-0.1,0.3-0.3c0-0.2-0.1-0.3-0.3-0.3s-0.3,0.1-0.3,0.3C53.4,20.2,53.5,20.3,53.7,20.3z"/>
	<path class="st7" d="M54.3,20.8c0-0.2-0.2-0.4-0.4-0.4h-0.5c-0.2,0-0.4,0.2-0.4,0.4v0.9c0,0,0,0.1,0.1,0.1h0c0,0,0.1,0,0.1-0.1
		l0-0.8c0,0,0-0.1,0-0.1c0,0,0,0,0,0.1v0.7v0.2v1.3c0,0,0,0.1,0.1,0.1h0.1c0,0,0.1,0,0.1-0.1v-1.3c0,0,0-0.1,0-0.1c0,0,0,0,0,0.1
		v1.3c0,0,0,0.1,0.1,0.1h0.1c0,0,0.1,0,0.1-0.1l0-1.3v-0.2v-0.7c0,0,0-0.1,0-0.1c0,0,0,0,0,0.1v0.8c0,0,0,0.1,0.1,0.1h0
		c0,0,0.1,0,0.1-0.1L54.3,20.8z"/>
	<path class="st7" d="M55.2,20.3c0.2,0,0.3-0.1,0.3-0.3c0-0.2-0.1-0.3-0.3-0.3c-0.2,0-0.3,0.1-0.3,0.3C54.9,20.2,55,20.3,55.2,20.3z
		"/>
	<path class="st7" d="M55.8,20.8c0-0.2-0.2-0.4-0.4-0.4H55c-0.2,0-0.4,0.2-0.4,0.4v0.9c0,0,0,0.1,0.1,0.1h0c0,0,0.1,0,0.1-0.1l0-0.8
		c0,0,0-0.1,0-0.1c0,0,0,0,0,0.1v0.7v0.2v1.3c0,0,0,0.1,0.1,0.1H55c0,0,0.1,0,0.1-0.1v-1.3c0,0,0-0.1,0-0.1c0,0,0,0,0,0.1v1.3
		c0,0,0,0.1,0.1,0.1h0.1c0,0,0.1,0,0.1-0.1l0-1.3v-0.2v-0.7c0,0,0-0.1,0-0.1c0,0,0,0,0,0.1v0.8c0,0,0,0.1,0.1,0.1h0
		c0,0,0.1,0,0.1-0.1L55.8,20.8z"/>
	<path class="st7" d="M44.8,24.2c0.2,0,0.3-0.1,0.3-0.3c0-0.2-0.1-0.3-0.3-0.3s-0.3,0.1-0.3,0.3C44.5,24.1,44.6,24.2,44.8,24.2z"/>
	<path class="st7" d="M45.4,24.7c0-0.2-0.2-0.4-0.4-0.4h-0.5c-0.2,0-0.4,0.2-0.4,0.4v0.9c0,0,0,0.1,0.1,0.1h0c0,0,0.1,0,0.1-0.1
		l0-0.8c0,0,0-0.1,0-0.1c0,0,0,0,0,0.1v0.7v0.2V27c0,0,0,0.1,0.1,0.1h0.1c0,0,0.1,0,0.1-0.1v-1.3c0,0,0-0.1,0-0.1c0,0,0,0,0,0.1V27
		c0,0,0,0.1,0.1,0.1H45c0,0,0.1,0,0.1-0.1l0-1.3v-0.2v-0.7c0,0,0-0.1,0-0.1c0,0,0,0,0,0.1v0.8c0,0,0,0.1,0.1,0.1h0
		c0,0,0.1,0,0.1-0.1L45.4,24.7z"/>
	<path class="st7" d="M46.3,24.2c0.2,0,0.3-0.1,0.3-0.3c0-0.2-0.1-0.3-0.3-0.3S46,23.8,46,23.9C46,24.1,46.1,24.2,46.3,24.2z"/>
	<path class="st7" d="M46.9,24.7c0-0.2-0.2-0.4-0.4-0.4H46c-0.2,0-0.4,0.2-0.4,0.4v0.9c0,0,0,0.1,0.1,0.1h0c0,0,0.1,0,0.1-0.1l0-0.8
		c0,0,0-0.1,0-0.1c0,0,0,0,0,0.1v0.7v0.2V27c0,0,0,0.1,0.1,0.1h0.1c0,0,0.1,0,0.1-0.1v-1.3c0,0,0-0.1,0-0.1c0,0,0,0,0,0.1V27
		c0,0,0,0.1,0.1,0.1h0.1c0,0,0.1,0,0.1-0.1l0-1.3v-0.2v-0.7c0,0,0-0.1,0-0.1c0,0,0,0,0,0.1v0.8c0,0,0,0.1,0.1,0.1h0
		c0,0,0.1,0,0.1-0.1L46.9,24.7z"/>
	<path d="M47.7,24.2c0.2,0,0.3-0.1,0.3-0.3c0-0.2-0.1-0.3-0.3-0.3c-0.2,0-0.3,0.1-0.3,0.3C47.4,24.1,47.6,24.2,47.7,24.2z"/>
	<path d="M48.4,24.7c0-0.2-0.2-0.4-0.4-0.4h-0.5c-0.2,0-0.4,0.2-0.4,0.4v0.9c0,0,0,0.1,0.1,0.1h0c0,0,0.1,0,0.1-0.1l0-0.8
		c0,0,0-0.1,0-0.1c0,0,0,0,0,0.1v0.7v0.2V27c0,0,0,0.1,0.1,0.1h0.1c0,0,0.1,0,0.1-0.1v-1.3c0,0,0-0.1,0-0.1c0,0,0,0,0,0.1V27
		c0,0,0,0.1,0.1,0.1H48c0,0,0.1,0,0.1-0.1l0-1.3v-0.2v-0.7c0,0,0-0.1,0-0.1c0,0,0,0,0,0.1v0.8c0,0,0,0.1,0.1,0.1h0
		c0,0,0.1,0,0.1-0.1L48.4,24.7z"/>
	<path d="M49.2,24.2c0.2,0,0.3-0.1,0.3-0.3c0-0.2-0.1-0.3-0.3-0.3s-0.3,0.1-0.3,0.3C48.9,24.1,49.1,24.2,49.2,24.2z"/>
	<path d="M49.9,24.7c0-0.2-0.2-0.4-0.4-0.4H49c-0.2,0-0.4,0.2-0.4,0.4v0.9c0,0,0,0.1,0.1,0.1h0c0,0,0.1,0,0.1-0.1l0-0.8
		c0,0,0-0.1,0-0.1c0,0,0,0,0,0.1v0.7v0.2V27c0,0,0,0.1,0.1,0.1h0.1c0,0,0.1,0,0.1-0.1v-1.3c0,0,0-0.1,0-0.1c0,0,0,0,0,0.1V27
		c0,0,0,0.1,0.1,0.1h0.1c0,0,0.1,0,0.1-0.1l0-1.3v-0.2v-0.7c0,0,0-0.1,0-0.1c0,0,0,0,0,0.1v0.8c0,0,0,0.1,0.1,0.1h0
		c0,0,0.1,0,0.1-0.1L49.9,24.7z"/>
	<path d="M50.7,24.2c0.2,0,0.3-0.1,0.3-0.3c0-0.2-0.1-0.3-0.3-0.3c-0.2,0-0.3,0.1-0.3,0.3C50.4,24.1,50.6,24.2,50.7,24.2z"/>
	<path d="M51.3,24.7c0-0.2-0.2-0.4-0.4-0.4h-0.5c-0.2,0-0.4,0.2-0.4,0.4v0.9c0,0,0,0.1,0.1,0.1h0c0,0,0.1,0,0.1-0.1l0-0.8
		c0,0,0-0.1,0-0.1c0,0,0,0,0,0.1v0.7v0.2V27c0,0,0,0.1,0.1,0.1h0.1c0,0,0.1,0,0.1-0.1v-1.3c0,0,0-0.1,0-0.1c0,0,0,0,0,0.1V27
		c0,0,0,0.1,0.1,0.1H51c0,0,0.1,0,0.1-0.1l0-1.3v-0.2v-0.7c0,0,0-0.1,0-0.1c0,0,0,0,0,0.1v0.8c0,0,0,0.1,0.1,0.1h0
		c0,0,0.1,0,0.1-0.1L51.3,24.7z"/>
	<path d="M52.2,24.2c0.2,0,0.3-0.1,0.3-0.3c0-0.2-0.1-0.3-0.3-0.3c-0.2,0-0.3,0.1-0.3,0.3C51.9,24.1,52,24.2,52.2,24.2z"/>
	<path d="M52.8,24.7c0-0.2-0.2-0.4-0.4-0.4H52c-0.2,0-0.4,0.2-0.4,0.4v0.9c0,0,0,0.1,0.1,0.1h0c0,0,0.1,0,0.1-0.1l0-0.8
		c0,0,0-0.1,0-0.1c0,0,0,0,0,0.1v0.7v0.2V27c0,0,0,0.1,0.1,0.1h0.1c0,0,0.1,0,0.1-0.1v-1.3c0,0,0-0.1,0-0.1c0,0,0,0,0,0.1V27
		c0,0,0,0.1,0.1,0.1h0.1c0,0,0.1,0,0.1-0.1l0-1.3v-0.2v-0.7c0,0,0-0.1,0-0.1c0,0,0,0,0,0.1v0.8c0,0,0,0.1,0.1,0.1h0
		c0,0,0.1,0,0.1-0.1L52.8,24.7z"/>
	<path d="M53.7,24.2c0.2,0,0.3-0.1,0.3-0.3c0-0.2-0.1-0.3-0.3-0.3s-0.3,0.1-0.3,0.3C53.4,24.1,53.5,24.2,53.7,24.2z"/>
	<path d="M54.3,24.7c0-0.2-0.2-0.4-0.4-0.4h-0.5c-0.2,0-0.4,0.2-0.4,0.4v0.9c0,0,0,0.1,0.1,0.1h0c0,0,0.1,0,0.1-0.1l0-0.8
		c0,0,0-0.1,0-0.1c0,0,0,0,0,0.1v0.7v0.2V27c0,0,0,0.1,0.1,0.1h0.1c0,0,0.1,0,0.1-0.1v-1.3c0,0,0-0.1,0-0.1c0,0,0,0,0,0.1V27
		c0,0,0,0.1,0.1,0.1h0.1c0,0,0.1,0,0.1-0.1l0-1.3v-0.2v-0.7c0,0,0-0.1,0-0.1c0,0,0,0,0,0.1v0.8c0,0,0,0.1,0.1,0.1h0
		c0,0,0.1,0,0.1-0.1L54.3,24.7z"/>
	<path d="M55.2,24.2c0.2,0,0.3-0.1,0.3-0.3c0-0.2-0.1-0.3-0.3-0.3c-0.2,0-0.3,0.1-0.3,0.3C54.9,24.1,55,24.2,55.2,24.2z"/>
	<path d="M55.8,24.7c0-0.2-0.2-0.4-0.4-0.4H55c-0.2,0-0.4,0.2-0.4,0.4v0.9c0,0,0,0.1,0.1,0.1h0c0,0,0.1,0,0.1-0.1l0-0.8
		c0,0,0-0.1,0-0.1c0,0,0,0,0,0.1v0.7v0.2V27c0,0,0,0.1,0.1,0.1H55c0,0,0.1,0,0.1-0.1v-1.3c0,0,0-0.1,0-0.1c0,0,0,0,0,0.1V27
		c0,0,0,0.1,0.1,0.1h0.1c0,0,0.1,0,0.1-0.1l0-1.3v-0.2v-0.7c0,0,0-0.1,0-0.1c0,0,0,0,0,0.1v0.8c0,0,0,0.1,0.1,0.1h0
		c0,0,0.1,0,0.1-0.1L55.8,24.7z"/>
	<path d="M44.8,28.2c0.2,0,0.3-0.1,0.3-0.3c0-0.2-0.1-0.3-0.3-0.3s-0.3,0.1-0.3,0.3C44.5,28,44.6,28.2,44.8,28.2z"/>
	<path d="M45.4,28.7c0-0.2-0.2-0.4-0.4-0.4h-0.5c-0.2,0-0.4,0.2-0.4,0.4v0.9c0,0,0,0.1,0.1,0.1h0c0,0,0.1,0,0.1-0.1l0-0.8
		c0,0,0-0.1,0-0.1c0,0,0,0,0,0.1v0.7v0.2v1.3c0,0,0,0.1,0.1,0.1h0.1c0,0,0.1,0,0.1-0.1v-1.3c0,0,0-0.1,0-0.1c0,0,0,0,0,0.1v1.3
		c0,0,0,0.1,0.1,0.1H45c0,0,0.1,0,0.1-0.1l0-1.3v-0.2v-0.7c0,0,0-0.1,0-0.1c0,0,0,0,0,0.1v0.8c0,0,0,0.1,0.1,0.1h0
		c0,0,0.1,0,0.1-0.1L45.4,28.7z"/>
	<path d="M46.3,28.2c0.2,0,0.3-0.1,0.3-0.3c0-0.2-0.1-0.3-0.3-0.3S46,27.7,46,27.9C46,28,46.1,28.2,46.3,28.2z"/>
	<path d="M46.9,28.7c0-0.2-0.2-0.4-0.4-0.4H46c-0.2,0-0.4,0.2-0.4,0.4v0.9c0,0,0,0.1,0.1,0.1h0c0,0,0.1,0,0.1-0.1l0-0.8
		c0,0,0-0.1,0-0.1c0,0,0,0,0,0.1v0.7v0.2v1.3c0,0,0,0.1,0.1,0.1h0.1c0,0,0.1,0,0.1-0.1v-1.3c0,0,0-0.1,0-0.1c0,0,0,0,0,0.1v1.3
		c0,0,0,0.1,0.1,0.1h0.1c0,0,0.1,0,0.1-0.1l0-1.3v-0.2v-0.7c0,0,0-0.1,0-0.1c0,0,0,0,0,0.1v0.8c0,0,0,0.1,0.1,0.1h0
		c0,0,0.1,0,0.1-0.1L46.9,28.7z"/>
	<path d="M47.7,28.2c0.2,0,0.3-0.1,0.3-0.3c0-0.2-0.1-0.3-0.3-0.3c-0.2,0-0.3,0.1-0.3,0.3C47.4,28,47.6,28.2,47.7,28.2z"/>
	<path d="M48.4,28.7c0-0.2-0.2-0.4-0.4-0.4h-0.5c-0.2,0-0.4,0.2-0.4,0.4v0.9c0,0,0,0.1,0.1,0.1h0c0,0,0.1,0,0.1-0.1l0-0.8
		c0,0,0-0.1,0-0.1c0,0,0,0,0,0.1v0.7v0.2v1.3c0,0,0,0.1,0.1,0.1h0.1c0,0,0.1,0,0.1-0.1v-1.3c0,0,0-0.1,0-0.1c0,0,0,0,0,0.1v1.3
		c0,0,0,0.1,0.1,0.1H48c0,0,0.1,0,0.1-0.1l0-1.3v-0.2v-0.7c0,0,0-0.1,0-0.1c0,0,0,0,0,0.1v0.8c0,0,0,0.1,0.1,0.1h0
		c0,0,0.1,0,0.1-0.1L48.4,28.7z"/>
	<path d="M49.2,28.2c0.2,0,0.3-0.1,0.3-0.3c0-0.2-0.1-0.3-0.3-0.3s-0.3,0.1-0.3,0.3C48.9,28,49.1,28.2,49.2,28.2z"/>
	<path d="M49.9,28.7c0-0.2-0.2-0.4-0.4-0.4H49c-0.2,0-0.4,0.2-0.4,0.4v0.9c0,0,0,0.1,0.1,0.1h0c0,0,0.1,0,0.1-0.1l0-0.8
		c0,0,0-0.1,0-0.1c0,0,0,0,0,0.1v0.7v0.2v1.3c0,0,0,0.1,0.1,0.1h0.1c0,0,0.1,0,0.1-0.1v-1.3c0,0,0-0.1,0-0.1c0,0,0,0,0,0.1v1.3
		c0,0,0,0.1,0.1,0.1h0.1c0,0,0.1,0,0.1-0.1l0-1.3v-0.2v-0.7c0,0,0-0.1,0-0.1c0,0,0,0,0,0.1v0.8c0,0,0,0.1,0.1,0.1h0
		c0,0,0.1,0,0.1-0.1L49.9,28.7z"/>
	<path d="M50.7,28.2c0.2,0,0.3-0.1,0.3-0.3c0-0.2-0.1-0.3-0.3-0.3c-0.2,0-0.3,0.1-0.3,0.3C50.4,28,50.6,28.2,50.7,28.2z"/>
	<path d="M51.3,28.7c0-0.2-0.2-0.4-0.4-0.4h-0.5c-0.2,0-0.4,0.2-0.4,0.4v0.9c0,0,0,0.1,0.1,0.1h0c0,0,0.1,0,0.1-0.1l0-0.8
		c0,0,0-0.1,0-0.1c0,0,0,0,0,0.1v0.7v0.2v1.3c0,0,0,0.1,0.1,0.1h0.1c0,0,0.1,0,0.1-0.1v-1.3c0,0,0-0.1,0-0.1c0,0,0,0,0,0.1v1.3
		c0,0,0,0.1,0.1,0.1H51c0,0,0.1,0,0.1-0.1l0-1.3v-0.2v-0.7c0,0,0-0.1,0-0.1c0,0,0,0,0,0.1v0.8c0,0,0,0.1,0.1,0.1h0
		c0,0,0.1,0,0.1-0.1L51.3,28.7z"/>
	<path d="M52.2,28.2c0.2,0,0.3-0.1,0.3-0.3c0-0.2-0.1-0.3-0.3-0.3c-0.2,0-0.3,0.1-0.3,0.3C51.9,28,52,28.2,52.2,28.2z"/>
	<path d="M52.8,28.7c0-0.2-0.2-0.4-0.4-0.4H52c-0.2,0-0.4,0.2-0.4,0.4v0.9c0,0,0,0.1,0.1,0.1h0c0,0,0.1,0,0.1-0.1l0-0.8
		c0,0,0-0.1,0-0.1c0,0,0,0,0,0.1v0.7v0.2v1.3c0,0,0,0.1,0.1,0.1h0.1c0,0,0.1,0,0.1-0.1v-1.3c0,0,0-0.1,0-0.1c0,0,0,0,0,0.1v1.3
		c0,0,0,0.1,0.1,0.1h0.1c0,0,0.1,0,0.1-0.1l0-1.3v-0.2v-0.7c0,0,0-0.1,0-0.1c0,0,0,0,0,0.1v0.8c0,0,0,0.1,0.1,0.1h0
		c0,0,0.1,0,0.1-0.1L52.8,28.7z"/>
	<path d="M53.7,28.2c0.2,0,0.3-0.1,0.3-0.3c0-0.2-0.1-0.3-0.3-0.3s-0.3,0.1-0.3,0.3C53.4,28,53.5,28.2,53.7,28.2z"/>
	<path d="M54.3,28.7c0-0.2-0.2-0.4-0.4-0.4h-0.5c-0.2,0-0.4,0.2-0.4,0.4v0.9c0,0,0,0.1,0.1,0.1h0c0,0,0.1,0,0.1-0.1l0-0.8
		c0,0,0-0.1,0-0.1c0,0,0,0,0,0.1v0.7v0.2v1.3c0,0,0,0.1,0.1,0.1h0.1c0,0,0.1,0,0.1-0.1v-1.3c0,0,0-0.1,0-0.1c0,0,0,0,0,0.1v1.3
		c0,0,0,0.1,0.1,0.1h0.1c0,0,0.1,0,0.1-0.1l0-1.3v-0.2v-0.7c0,0,0-0.1,0-0.1c0,0,0,0,0,0.1v0.8c0,0,0,0.1,0.1,0.1h0
		c0,0,0.1,0,0.1-0.1L54.3,28.7z"/>
	<path d="M55.2,28.2c0.2,0,0.3-0.1,0.3-0.3c0-0.2-0.1-0.3-0.3-0.3c-0.2,0-0.3,0.1-0.3,0.3C54.9,28,55,28.2,55.2,28.2z"/>
	<path d="M55.8,28.7c0-0.2-0.2-0.4-0.4-0.4H55c-0.2,0-0.4,0.2-0.4,0.4v0.9c0,0,0,0.1,0.1,0.1h0c0,0,0.1,0,0.1-0.1l0-0.8
		c0,0,0-0.1,0-0.1c0,0,0,0,0,0.1v0.7v0.2v1.3c0,0,0,0.1,0.1,0.1H55c0,0,0.1,0,0.1-0.1v-1.3c0,0,0-0.1,0-0.1c0,0,0,0,0,0.1v1.3
		c0,0,0,0.1,0.1,0.1h0.1c0,0,0.1,0,0.1-0.1l0-1.3v-0.2v-0.7c0,0,0-0.1,0-0.1c0,0,0,0,0,0.1v0.8c0,0,0,0.1,0.1,0.1h0
		c0,0,0.1,0,0.1-0.1L55.8,28.7z"/>
	<path d="M44.8,32.1c0.2,0,0.3-0.1,0.3-0.3c0-0.2-0.1-0.3-0.3-0.3s-0.3,0.1-0.3,0.3C44.5,32,44.6,32.1,44.8,32.1z"/>
	<path d="M45.4,32.6c0-0.2-0.2-0.4-0.4-0.4h-0.5c-0.2,0-0.4,0.2-0.4,0.4v0.9c0,0,0,0.1,0.1,0.1h0c0,0,0.1,0,0.1-0.1l0-0.8
		c0,0,0-0.1,0-0.1c0,0,0,0,0,0.1v0.7v0.2v1.3c0,0,0,0.1,0.1,0.1h0.1c0,0,0.1,0,0.1-0.1v-1.3c0,0,0-0.1,0-0.1c0,0,0,0,0,0.1v1.3
		c0,0,0,0.1,0.1,0.1H45c0,0,0.1,0,0.1-0.1l0-1.3v-0.2v-0.7c0,0,0-0.1,0-0.1c0,0,0,0,0,0.1v0.8c0,0,0,0.1,0.1,0.1h0
		c0,0,0.1,0,0.1-0.1L45.4,32.6z"/>
	<path d="M46.3,32.1c0.2,0,0.3-0.1,0.3-0.3c0-0.2-0.1-0.3-0.3-0.3S46,31.6,46,31.8C46,32,46.1,32.1,46.3,32.1z"/>
	<path d="M46.9,32.6c0-0.2-0.2-0.4-0.4-0.4H46c-0.2,0-0.4,0.2-0.4,0.4v0.9c0,0,0,0.1,0.1,0.1h0c0,0,0.1,0,0.1-0.1l0-0.8
		c0,0,0-0.1,0-0.1c0,0,0,0,0,0.1v0.7v0.2v1.3c0,0,0,0.1,0.1,0.1h0.1c0,0,0.1,0,0.1-0.1v-1.3c0,0,0-0.1,0-0.1c0,0,0,0,0,0.1v1.3
		c0,0,0,0.1,0.1,0.1h0.1c0,0,0.1,0,0.1-0.1l0-1.3v-0.2v-0.7c0,0,0-0.1,0-0.1c0,0,0,0,0,0.1v0.8c0,0,0,0.1,0.1,0.1h0
		c0,0,0.1,0,0.1-0.1L46.9,32.6z"/>
	<path d="M47.7,32.1c0.2,0,0.3-0.1,0.3-0.3c0-0.2-0.1-0.3-0.3-0.3c-0.2,0-0.3,0.1-0.3,0.3C47.4,32,47.6,32.1,47.7,32.1z"/>
	<path d="M48.4,32.6c0-0.2-0.2-0.4-0.4-0.4h-0.5c-0.2,0-0.4,0.2-0.4,0.4v0.9c0,0,0,0.1,0.1,0.1h0c0,0,0.1,0,0.1-0.1l0-0.8
		c0,0,0-0.1,0-0.1c0,0,0,0,0,0.1v0.7v0.2v1.3c0,0,0,0.1,0.1,0.1h0.1c0,0,0.1,0,0.1-0.1v-1.3c0,0,0-0.1,0-0.1c0,0,0,0,0,0.1v1.3
		c0,0,0,0.1,0.1,0.1H48c0,0,0.1,0,0.1-0.1l0-1.3v-0.2v-0.7c0,0,0-0.1,0-0.1c0,0,0,0,0,0.1v0.8c0,0,0,0.1,0.1,0.1h0
		c0,0,0.1,0,0.1-0.1L48.4,32.6z"/>
	<path d="M49.2,32.1c0.2,0,0.3-0.1,0.3-0.3c0-0.2-0.1-0.3-0.3-0.3s-0.3,0.1-0.3,0.3C48.9,32,49.1,32.1,49.2,32.1z"/>
	<path d="M49.9,32.6c0-0.2-0.2-0.4-0.4-0.4H49c-0.2,0-0.4,0.2-0.4,0.4v0.9c0,0,0,0.1,0.1,0.1h0c0,0,0.1,0,0.1-0.1l0-0.8
		c0,0,0-0.1,0-0.1c0,0,0,0,0,0.1v0.7v0.2v1.3c0,0,0,0.1,0.1,0.1h0.1c0,0,0.1,0,0.1-0.1v-1.3c0,0,0-0.1,0-0.1c0,0,0,0,0,0.1v1.3
		c0,0,0,0.1,0.1,0.1h0.1c0,0,0.1,0,0.1-0.1l0-1.3v-0.2v-0.7c0,0,0-0.1,0-0.1c0,0,0,0,0,0.1v0.8c0,0,0,0.1,0.1,0.1h0
		c0,0,0.1,0,0.1-0.1L49.9,32.6z"/>
	<path d="M50.7,32.1c0.2,0,0.3-0.1,0.3-0.3c0-0.2-0.1-0.3-0.3-0.3c-0.2,0-0.3,0.1-0.3,0.3C50.4,32,50.6,32.1,50.7,32.1z"/>
	<path d="M51.3,32.6c0-0.2-0.2-0.4-0.4-0.4h-0.5c-0.2,0-0.4,0.2-0.4,0.4v0.9c0,0,0,0.1,0.1,0.1h0c0,0,0.1,0,0.1-0.1l0-0.8
		c0,0,0-0.1,0-0.1c0,0,0,0,0,0.1v0.7v0.2v1.3c0,0,0,0.1,0.1,0.1h0.1c0,0,0.1,0,0.1-0.1v-1.3c0,0,0-0.1,0-0.1c0,0,0,0,0,0.1v1.3
		c0,0,0,0.1,0.1,0.1H51c0,0,0.1,0,0.1-0.1l0-1.3v-0.2v-0.7c0,0,0-0.1,0-0.1c0,0,0,0,0,0.1v0.8c0,0,0,0.1,0.1,0.1h0
		c0,0,0.1,0,0.1-0.1L51.3,32.6z"/>
	<path d="M52.2,32.1c0.2,0,0.3-0.1,0.3-0.3c0-0.2-0.1-0.3-0.3-0.3c-0.2,0-0.3,0.1-0.3,0.3C51.9,32,52,32.1,52.2,32.1z"/>
	<path d="M52.8,32.6c0-0.2-0.2-0.4-0.4-0.4H52c-0.2,0-0.4,0.2-0.4,0.4v0.9c0,0,0,0.1,0.1,0.1h0c0,0,0.1,0,0.1-0.1l0-0.8
		c0,0,0-0.1,0-0.1c0,0,0,0,0,0.1v0.7v0.2v1.3c0,0,0,0.1,0.1,0.1h0.1c0,0,0.1,0,0.1-0.1v-1.3c0,0,0-0.1,0-0.1c0,0,0,0,0,0.1v1.3
		c0,0,0,0.1,0.1,0.1h0.1c0,0,0.1,0,0.1-0.1l0-1.3v-0.2v-0.7c0,0,0-0.1,0-0.1c0,0,0,0,0,0.1v0.8c0,0,0,0.1,0.1,0.1h0
		c0,0,0.1,0,0.1-0.1L52.8,32.6z"/>
	<path d="M53.7,32.1c0.2,0,0.3-0.1,0.3-0.3c0-0.2-0.1-0.3-0.3-0.3s-0.3,0.1-0.3,0.3C53.4,32,53.5,32.1,53.7,32.1z"/>
	<path d="M54.3,32.6c0-0.2-0.2-0.4-0.4-0.4h-0.5c-0.2,0-0.4,0.2-0.4,0.4v0.9c0,0,0,0.1,0.1,0.1h0c0,0,0.1,0,0.1-0.1l0-0.8
		c0,0,0-0.1,0-0.1c0,0,0,0,0,0.1v0.7v0.2v1.3c0,0,0,0.1,0.1,0.1h0.1c0,0,0.1,0,0.1-0.1v-1.3c0,0,0-0.1,0-0.1c0,0,0,0,0,0.1v1.3
		c0,0,0,0.1,0.1,0.1h0.1c0,0,0.1,0,0.1-0.1l0-1.3v-0.2v-0.7c0,0,0-0.1,0-0.1c0,0,0,0,0,0.1v0.8c0,0,0,0.1,0.1,0.1h0
		c0,0,0.1,0,0.1-0.1L54.3,32.6z"/>
	<path d="M55.2,32.1c0.2,0,0.3-0.1,0.3-0.3c0-0.2-0.1-0.3-0.3-0.3c-0.2,0-0.3,0.1-0.3,0.3C54.9,32,55,32.1,55.2,32.1z"/>
	<path d="M55.8,32.6c0-0.2-0.2-0.4-0.4-0.4H55c-0.2,0-0.4,0.2-0.4,0.4v0.9c0,0,0,0.1,0.1,0.1h0c0,0,0.1,0,0.1-0.1l0-0.8
		c0,0,0-0.1,0-0.1c0,0,0,0,0,0.1v0.7v0.2v1.3c0,0,0,0.1,0.1,0.1H55c0,0,0.1,0,0.1-0.1v-1.3c0,0,0-0.1,0-0.1c0,0,0,0,0,0.1v1.3
		c0,0,0,0.1,0.1,0.1h0.1c0,0,0.1,0,0.1-0.1l0-1.3v-0.2v-0.7c0,0,0-0.1,0-0.1c0,0,0,0,0,0.1v0.8c0,0,0,0.1,0.1,0.1h0
		c0,0,0.1,0,0.1-0.1L55.8,32.6z"/>
	<line class="st4" x1="42.7" y1="38" x2="42.7" y2="9.7"/>
	<circle class="st0" cx="42.7" cy="38" r="0.9"/>
</g>
<g>
	<line class="st11" x1="82" y1="38" x2="82" y2="13.9"/>
	<text transform="matrix(1 0 0 1 81.99 42.2437)"><tspan x="0" y="0" class="st1 st2">Rescate de las 14</tspan><tspan x="0" y="2.4" class="st1 st2">personas en el</tspan><tspan x="0" y="4.8" class="st1 st2">lugar del accidente</tspan></text>
	<g>
		<path class="st7" d="M84.1,14.4c0.2,0,0.3-0.1,0.3-0.3c0-0.2-0.1-0.3-0.3-0.3c-0.2,0-0.3,0.1-0.3,0.3
			C83.8,14.2,83.9,14.4,84.1,14.4z"/>
		<path class="st7" d="M84.7,14.9c0-0.2-0.2-0.4-0.4-0.4h-0.5c-0.2,0-0.4,0.2-0.4,0.4v0.9c0,0,0,0.1,0.1,0.1h0c0,0,0.1,0,0.1-0.1
			l0-0.8c0,0,0-0.1,0-0.1c0,0,0,0,0,0.1v0.7v0.2v1.3c0,0,0,0.1,0.1,0.1H84c0,0,0.1,0,0.1-0.1v-1.3c0,0,0-0.1,0-0.1c0,0,0,0,0,0.1
			v1.3c0,0,0,0.1,0.1,0.1h0.1c0,0,0.1,0,0.1-0.1l0-1.3v-0.2V15c0,0,0-0.1,0-0.1c0,0,0,0,0,0.1v0.8c0,0,0,0.1,0.1,0.1h0
			c0,0,0.1,0,0.1-0.1L84.7,14.9z"/>
	</g>
	<g>
		<path class="st7" d="M85.6,14.4c0.2,0,0.3-0.1,0.3-0.3c0-0.2-0.1-0.3-0.3-0.3s-0.3,0.1-0.3,0.3C85.3,14.2,85.4,14.4,85.6,14.4z"/>
		<path class="st7" d="M86.2,14.9c0-0.2-0.2-0.4-0.4-0.4h-0.5c-0.2,0-0.4,0.2-0.4,0.4v0.9c0,0,0,0.1,0.1,0.1h0c0,0,0.1,0,0.1-0.1
			l0-0.8c0,0,0-0.1,0-0.1c0,0,0,0,0,0.1v0.7v0.2v1.3c0,0,0,0.1,0.1,0.1h0.1c0,0,0.1,0,0.1-0.1v-1.3c0,0,0-0.1,0-0.1c0,0,0,0,0,0.1
			v1.3c0,0,0,0.1,0.1,0.1h0.1c0,0,0.1,0,0.1-0.1l0-1.3v-0.2V15c0,0,0-0.1,0-0.1c0,0,0,0,0,0.1v0.8c0,0,0,0.1,0.1,0.1h0
			c0,0,0.1,0,0.1-0.1L86.2,14.9z"/>
	</g>
	<g>
		<path class="st7" d="M87.1,14.4c0.2,0,0.3-0.1,0.3-0.3c0-0.2-0.1-0.3-0.3-0.3s-0.3,0.1-0.3,0.3C86.8,14.2,86.9,14.4,87.1,14.4z"/>
		<path class="st7" d="M87.7,14.9c0-0.2-0.2-0.4-0.4-0.4h-0.5c-0.2,0-0.4,0.2-0.4,0.4v0.9c0,0,0,0.1,0.1,0.1h0c0,0,0.1,0,0.1-0.1
			l0-0.8c0,0,0-0.1,0-0.1c0,0,0,0,0,0.1v0.7v0.2v1.3c0,0,0,0.1,0.1,0.1h0.1c0,0,0.1,0,0.1-0.1v-1.3c0,0,0-0.1,0-0.1c0,0,0,0,0,0.1
			v1.3c0,0,0,0.1,0.1,0.1h0.1c0,0,0.1,0,0.1-0.1l0-1.3v-0.2V15c0,0,0-0.1,0-0.1c0,0,0,0,0,0.1v0.8c0,0,0,0.1,0.1,0.1h0
			c0,0,0.1,0,0.1-0.1L87.7,14.9z"/>
	</g>
	<g>
		<path class="st7" d="M88.6,14.4c0.2,0,0.3-0.1,0.3-0.3c0-0.2-0.1-0.3-0.3-0.3s-0.3,0.1-0.3,0.3C88.2,14.2,88.4,14.4,88.6,14.4z"/>
		<path class="st7" d="M89.2,14.9c0-0.2-0.2-0.4-0.4-0.4h-0.5c-0.2,0-0.4,0.2-0.4,0.4v0.9c0,0,0,0.1,0.1,0.1h0c0,0,0.1,0,0.1-0.1
			l0-0.8c0,0,0-0.1,0-0.1c0,0,0,0,0,0.1v0.7v0.2v1.3c0,0,0,0.1,0.1,0.1h0.1c0,0,0.1,0,0.1-0.1v-1.3c0,0,0-0.1,0-0.1c0,0,0,0,0,0.1
			v1.3c0,0,0,0.1,0.1,0.1h0.1c0,0,0.1,0,0.1-0.1l0-1.3v-0.2V15c0,0,0-0.1,0-0.1c0,0,0,0,0,0.1v0.8c0,0,0,0.1,0.1,0.1h0
			c0,0,0.1,0,0.1-0.1L89.2,14.9z"/>
	</g>
	<g>
		<path class="st7" d="M90,14.4c0.2,0,0.3-0.1,0.3-0.3c0-0.2-0.1-0.3-0.3-0.3s-0.3,0.1-0.3,0.3C89.7,14.2,89.9,14.4,90,14.4z"/>
		<path class="st7" d="M90.7,14.9c0-0.2-0.2-0.4-0.4-0.4h-0.5c-0.2,0-0.4,0.2-0.4,0.4v0.9c0,0,0,0.1,0.1,0.1h0c0,0,0.1,0,0.1-0.1
			l0-0.8c0,0,0-0.1,0-0.1c0,0,0,0,0,0.1v0.7v0.2v1.3c0,0,0,0.1,0.1,0.1h0.1c0,0,0.1,0,0.1-0.1v-1.3c0,0,0-0.1,0-0.1s0,0,0,0.1v1.3
			c0,0,0,0.1,0.1,0.1h0.1c0,0,0.1,0,0.1-0.1l0-1.3v-0.2V15c0,0,0-0.1,0-0.1c0,0,0,0,0,0.1v0.8c0,0,0,0.1,0.1,0.1h0
			c0,0,0.1,0,0.1-0.1L90.7,14.9z"/>
	</g>
	<g>
		<path class="st7" d="M91.5,14.4c0.2,0,0.3-0.1,0.3-0.3c0-0.2-0.1-0.3-0.3-0.3s-0.3,0.1-0.3,0.3C91.2,14.2,91.4,14.4,91.5,14.4z"/>
		<path class="st7" d="M92.2,14.9c0-0.2-0.2-0.4-0.4-0.4h-0.5c-0.2,0-0.4,0.2-0.4,0.4v0.9c0,0,0,0.1,0.1,0.1h0c0,0,0.1,0,0.1-0.1
			l0-0.8c0,0,0-0.1,0-0.1c0,0,0,0,0,0.1v0.7v0.2v1.3c0,0,0,0.1,0.1,0.1h0.1c0,0,0.1,0,0.1-0.1v-1.3c0,0,0-0.1,0-0.1c0,0,0,0,0,0.1
			v1.3c0,0,0,0.1,0.1,0.1h0.1c0,0,0.1,0,0.1-0.1l0-1.3v-0.2V15c0,0,0-0.1,0-0.1c0,0,0,0,0,0.1v0.8c0,0,0,0.1,0.1,0.1h0
			c0,0,0.1,0,0.1-0.1L92.2,14.9z"/>
	</g>
	<g>
		<path class="st7" d="M93,14.4c0.2,0,0.3-0.1,0.3-0.3c0-0.2-0.1-0.3-0.3-0.3s-0.3,0.1-0.3,0.3C92.7,14.2,92.8,14.4,93,14.4z"/>
		<path class="st7" d="M93.6,14.9c0-0.2-0.2-0.4-0.4-0.4h-0.5c-0.2,0-0.4,0.2-0.4,0.4v0.9c0,0,0,0.1,0.1,0.1h0c0,0,0.1,0,0.1-0.1
			l0-0.8c0,0,0-0.1,0-0.1c0,0,0,0,0,0.1v0.7v0.2v1.3c0,0,0,0.1,0.1,0.1h0.1c0,0,0.1,0,0.1-0.1v-1.3c0,0,0-0.1,0-0.1c0,0,0,0,0,0.1
			v1.3c0,0,0,0.1,0.1,0.1h0.1c0,0,0.1,0,0.1-0.1l0-1.3v-0.2V15c0,0,0-0.1,0-0.1c0,0,0,0,0,0.1v0.8c0,0,0,0.1,0.1,0.1h0
			c0,0,0.1,0,0.1-0.1L93.6,14.9z"/>
	</g>
	<g>
		<path class="st7" d="M94.5,14.4c0.2,0,0.3-0.1,0.3-0.3c0-0.2-0.1-0.3-0.3-0.3c-0.2,0-0.3,0.1-0.3,0.3
			C94.2,14.2,94.3,14.4,94.5,14.4z"/>
		<path class="st7" d="M95.1,14.9c0-0.2-0.2-0.4-0.4-0.4h-0.5c-0.2,0-0.4,0.2-0.4,0.4v0.9c0,0,0,0.1,0.1,0.1h0c0,0,0.1,0,0.1-0.1
			l0-0.8c0,0,0-0.1,0-0.1c0,0,0,0,0,0.1v0.7v0.2v1.3c0,0,0,0.1,0.1,0.1h0.1c0,0,0.1,0,0.1-0.1v-1.3c0,0,0-0.1,0-0.1s0,0,0,0.1v1.3
			c0,0,0,0.1,0.1,0.1h0.1c0,0,0.1,0,0.1-0.1l0-1.3v-0.2V15c0,0,0-0.1,0-0.1c0,0,0,0,0,0.1v0.8c0,0,0,0.1,0.1,0.1h0
			c0,0,0.1,0,0.1-0.1L95.1,14.9z"/>
	</g>
	<g>
		<path class="st7" d="M84.1,18.3c0.2,0,0.3-0.1,0.3-0.3c0-0.2-0.1-0.3-0.3-0.3c-0.2,0-0.3,0.1-0.3,0.3
			C83.8,18.2,83.9,18.3,84.1,18.3z"/>
		<path class="st7" d="M84.7,18.8c0-0.2-0.2-0.4-0.4-0.4h-0.5c-0.2,0-0.4,0.2-0.4,0.4v0.9c0,0,0,0.1,0.1,0.1h0c0,0,0.1,0,0.1-0.1
			l0-0.8c0,0,0-0.1,0-0.1c0,0,0,0,0,0.1v0.7v0.2V21c0,0,0,0.1,0.1,0.1H84c0,0,0.1,0,0.1-0.1v-1.3c0,0,0-0.1,0-0.1c0,0,0,0,0,0.1V21
			c0,0,0,0.1,0.1,0.1h0.1c0,0,0.1,0,0.1-0.1l0-1.3v-0.2v-0.7c0,0,0-0.1,0-0.1c0,0,0,0,0,0.1v0.8c0,0,0,0.1,0.1,0.1h0
			c0,0,0.1,0,0.1-0.1L84.7,18.8z"/>
	</g>
	<g>
		<path class="st7" d="M85.6,18.3c0.2,0,0.3-0.1,0.3-0.3c0-0.2-0.1-0.3-0.3-0.3s-0.3,0.1-0.3,0.3C85.3,18.2,85.4,18.3,85.6,18.3z"/>
		<path class="st7" d="M86.2,18.8c0-0.2-0.2-0.4-0.4-0.4h-0.5c-0.2,0-0.4,0.2-0.4,0.4v0.9c0,0,0,0.1,0.1,0.1h0c0,0,0.1,0,0.1-0.1
			l0-0.8c0,0,0-0.1,0-0.1c0,0,0,0,0,0.1v0.7v0.2V21c0,0,0,0.1,0.1,0.1h0.1c0,0,0.1,0,0.1-0.1v-1.3c0,0,0-0.1,0-0.1c0,0,0,0,0,0.1V21
			c0,0,0,0.1,0.1,0.1h0.1c0,0,0.1,0,0.1-0.1l0-1.3v-0.2v-0.7c0,0,0-0.1,0-0.1c0,0,0,0,0,0.1v0.8c0,0,0,0.1,0.1,0.1h0
			c0,0,0.1,0,0.1-0.1L86.2,18.8z"/>
	</g>
	<g>
		<path class="st7" d="M87.1,18.3c0.2,0,0.3-0.1,0.3-0.3c0-0.2-0.1-0.3-0.3-0.3s-0.3,0.1-0.3,0.3C86.8,18.2,86.9,18.3,87.1,18.3z"/>
		<path class="st7" d="M87.7,18.8c0-0.2-0.2-0.4-0.4-0.4h-0.5c-0.2,0-0.4,0.2-0.4,0.4v0.9c0,0,0,0.1,0.1,0.1h0c0,0,0.1,0,0.1-0.1
			l0-0.8c0,0,0-0.1,0-0.1c0,0,0,0,0,0.1v0.7v0.2V21c0,0,0,0.1,0.1,0.1h0.1c0,0,0.1,0,0.1-0.1v-1.3c0,0,0-0.1,0-0.1c0,0,0,0,0,0.1V21
			c0,0,0,0.1,0.1,0.1h0.1c0,0,0.1,0,0.1-0.1l0-1.3v-0.2v-0.7c0,0,0-0.1,0-0.1c0,0,0,0,0,0.1v0.8c0,0,0,0.1,0.1,0.1h0
			c0,0,0.1,0,0.1-0.1L87.7,18.8z"/>
	</g>
	<g>
		<path class="st7" d="M88.6,18.3c0.2,0,0.3-0.1,0.3-0.3c0-0.2-0.1-0.3-0.3-0.3s-0.3,0.1-0.3,0.3C88.2,18.2,88.4,18.3,88.6,18.3z"/>
		<path class="st7" d="M89.2,18.8c0-0.2-0.2-0.4-0.4-0.4h-0.5c-0.2,0-0.4,0.2-0.4,0.4v0.9c0,0,0,0.1,0.1,0.1h0c0,0,0.1,0,0.1-0.1
			l0-0.8c0,0,0-0.1,0-0.1c0,0,0,0,0,0.1v0.7v0.2V21c0,0,0,0.1,0.1,0.1h0.1c0,0,0.1,0,0.1-0.1v-1.3c0,0,0-0.1,0-0.1c0,0,0,0,0,0.1V21
			c0,0,0,0.1,0.1,0.1h0.1c0,0,0.1,0,0.1-0.1l0-1.3v-0.2v-0.7c0,0,0-0.1,0-0.1c0,0,0,0,0,0.1v0.8c0,0,0,0.1,0.1,0.1h0
			c0,0,0.1,0,0.1-0.1L89.2,18.8z"/>
	</g>
	<g>
		<path class="st7" d="M90,18.3c0.2,0,0.3-0.1,0.3-0.3c0-0.2-0.1-0.3-0.3-0.3s-0.3,0.1-0.3,0.3C89.7,18.2,89.9,18.3,90,18.3z"/>
		<path class="st7" d="M90.7,18.8c0-0.2-0.2-0.4-0.4-0.4h-0.5c-0.2,0-0.4,0.2-0.4,0.4v0.9c0,0,0,0.1,0.1,0.1h0c0,0,0.1,0,0.1-0.1
			l0-0.8c0,0,0-0.1,0-0.1c0,0,0,0,0,0.1v0.7v0.2V21c0,0,0,0.1,0.1,0.1h0.1c0,0,0.1,0,0.1-0.1v-1.3c0,0,0-0.1,0-0.1s0,0,0,0.1V21
			c0,0,0,0.1,0.1,0.1h0.1c0,0,0.1,0,0.1-0.1l0-1.3v-0.2v-0.7c0,0,0-0.1,0-0.1c0,0,0,0,0,0.1v0.8c0,0,0,0.1,0.1,0.1h0
			c0,0,0.1,0,0.1-0.1L90.7,18.8z"/>
	</g>
	<g>
		<path class="st7" d="M91.5,18.3c0.2,0,0.3-0.1,0.3-0.3c0-0.2-0.1-0.3-0.3-0.3s-0.3,0.1-0.3,0.3C91.2,18.2,91.4,18.3,91.5,18.3z"/>
		<path class="st7" d="M92.2,18.8c0-0.2-0.2-0.4-0.4-0.4h-0.5c-0.2,0-0.4,0.2-0.4,0.4v0.9c0,0,0,0.1,0.1,0.1h0c0,0,0.1,0,0.1-0.1
			l0-0.8c0,0,0-0.1,0-0.1c0,0,0,0,0,0.1v0.7v0.2V21c0,0,0,0.1,0.1,0.1h0.1c0,0,0.1,0,0.1-0.1v-1.3c0,0,0-0.1,0-0.1c0,0,0,0,0,0.1V21
			c0,0,0,0.1,0.1,0.1h0.1c0,0,0.1,0,0.1-0.1l0-1.3v-0.2v-0.7c0,0,0-0.1,0-0.1c0,0,0,0,0,0.1v0.8c0,0,0,0.1,0.1,0.1h0
			c0,0,0.1,0,0.1-0.1L92.2,18.8z"/>
	</g>
	<g>
		<path class="st7" d="M93,18.3c0.2,0,0.3-0.1,0.3-0.3c0-0.2-0.1-0.3-0.3-0.3s-0.3,0.1-0.3,0.3C92.7,18.2,92.8,18.3,93,18.3z"/>
		<path class="st7" d="M93.6,18.8c0-0.2-0.2-0.4-0.4-0.4h-0.5c-0.2,0-0.4,0.2-0.4,0.4v0.9c0,0,0,0.1,0.1,0.1h0c0,0,0.1,0,0.1-0.1
			l0-0.8c0,0,0-0.1,0-0.1c0,0,0,0,0,0.1v0.7v0.2V21c0,0,0,0.1,0.1,0.1h0.1c0,0,0.1,0,0.1-0.1v-1.3c0,0,0-0.1,0-0.1c0,0,0,0,0,0.1V21
			c0,0,0,0.1,0.1,0.1h0.1c0,0,0.1,0,0.1-0.1l0-1.3v-0.2v-0.7c0,0,0-0.1,0-0.1c0,0,0,0,0,0.1v0.8c0,0,0,0.1,0.1,0.1h0
			c0,0,0.1,0,0.1-0.1L93.6,18.8z"/>
	</g>
	<g>
		<path class="st7" d="M94.5,18.3c0.2,0,0.3-0.1,0.3-0.3c0-0.2-0.1-0.3-0.3-0.3c-0.2,0-0.3,0.1-0.3,0.3
			C94.2,18.2,94.3,18.3,94.5,18.3z"/>
		<path class="st7" d="M95.1,18.8c0-0.2-0.2-0.4-0.4-0.4h-0.5c-0.2,0-0.4,0.2-0.4,0.4v0.9c0,0,0,0.1,0.1,0.1h0c0,0,0.1,0,0.1-0.1
			l0-0.8c0,0,0-0.1,0-0.1c0,0,0,0,0,0.1v0.7v0.2V21c0,0,0,0.1,0.1,0.1h0.1c0,0,0.1,0,0.1-0.1v-1.3c0,0,0-0.1,0-0.1s0,0,0,0.1V21
			c0,0,0,0.1,0.1,0.1h0.1c0,0,0.1,0,0.1-0.1l0-1.3v-0.2v-0.7c0,0,0-0.1,0-0.1c0,0,0,0,0,0.1v0.8c0,0,0,0.1,0.1,0.1h0
			c0,0,0.1,0,0.1-0.1L95.1,18.8z"/>
	</g>
	<g>
		<path class="st7" d="M84.1,22.2c0.2,0,0.3-0.1,0.3-0.3c0-0.2-0.1-0.3-0.3-0.3c-0.2,0-0.3,0.1-0.3,0.3
			C83.8,22.1,83.9,22.2,84.1,22.2z"/>
		<path class="st7" d="M84.7,22.7c0-0.2-0.2-0.4-0.4-0.4h-0.5c-0.2,0-0.4,0.2-0.4,0.4v0.9c0,0,0,0.1,0.1,0.1h0c0,0,0.1,0,0.1-0.1
			l0-0.8c0,0,0-0.1,0-0.1c0,0,0,0,0,0.1v0.7v0.2V25c0,0,0,0.1,0.1,0.1H84c0,0,0.1,0,0.1-0.1v-1.3c0,0,0-0.1,0-0.1c0,0,0,0,0,0.1V25
			c0,0,0,0.1,0.1,0.1h0.1c0,0,0.1,0,0.1-0.1l0-1.3v-0.2v-0.7c0,0,0-0.1,0-0.1c0,0,0,0,0,0.1v0.8c0,0,0,0.1,0.1,0.1h0
			c0,0,0.1,0,0.1-0.1L84.7,22.7z"/>
	</g>
	<g>
		<path class="st7" d="M85.6,22.2c0.2,0,0.3-0.1,0.3-0.3c0-0.2-0.1-0.3-0.3-0.3s-0.3,0.1-0.3,0.3C85.3,22.1,85.4,22.2,85.6,22.2z"/>
		<path class="st7" d="M86.2,22.7c0-0.2-0.2-0.4-0.4-0.4h-0.5c-0.2,0-0.4,0.2-0.4,0.4v0.9c0,0,0,0.1,0.1,0.1h0c0,0,0.1,0,0.1-0.1
			l0-0.8c0,0,0-0.1,0-0.1c0,0,0,0,0,0.1v0.7v0.2V25c0,0,0,0.1,0.1,0.1h0.1c0,0,0.1,0,0.1-0.1v-1.3c0,0,0-0.1,0-0.1c0,0,0,0,0,0.1V25
			c0,0,0,0.1,0.1,0.1h0.1c0,0,0.1,0,0.1-0.1l0-1.3v-0.2v-0.7c0,0,0-0.1,0-0.1c0,0,0,0,0,0.1v0.8c0,0,0,0.1,0.1,0.1h0
			c0,0,0.1,0,0.1-0.1L86.2,22.7z"/>
	</g>
	<g>
		<path class="st7" d="M87.1,22.2c0.2,0,0.3-0.1,0.3-0.3c0-0.2-0.1-0.3-0.3-0.3s-0.3,0.1-0.3,0.3C86.8,22.1,86.9,22.2,87.1,22.2z"/>
		<path class="st7" d="M87.7,22.7c0-0.2-0.2-0.4-0.4-0.4h-0.5c-0.2,0-0.4,0.2-0.4,0.4v0.9c0,0,0,0.1,0.1,0.1h0c0,0,0.1,0,0.1-0.1
			l0-0.8c0,0,0-0.1,0-0.1c0,0,0,0,0,0.1v0.7v0.2V25c0,0,0,0.1,0.1,0.1h0.1c0,0,0.1,0,0.1-0.1v-1.3c0,0,0-0.1,0-0.1c0,0,0,0,0,0.1V25
			c0,0,0,0.1,0.1,0.1h0.1c0,0,0.1,0,0.1-0.1l0-1.3v-0.2v-0.7c0,0,0-0.1,0-0.1c0,0,0,0,0,0.1v0.8c0,0,0,0.1,0.1,0.1h0
			c0,0,0.1,0,0.1-0.1L87.7,22.7z"/>
	</g>
	<g>
		<path class="st7" d="M88.6,22.2c0.2,0,0.3-0.1,0.3-0.3c0-0.2-0.1-0.3-0.3-0.3s-0.3,0.1-0.3,0.3C88.2,22.1,88.4,22.2,88.6,22.2z"/>
		<path class="st7" d="M89.2,22.7c0-0.2-0.2-0.4-0.4-0.4h-0.5c-0.2,0-0.4,0.2-0.4,0.4v0.9c0,0,0,0.1,0.1,0.1h0c0,0,0.1,0,0.1-0.1
			l0-0.8c0,0,0-0.1,0-0.1c0,0,0,0,0,0.1v0.7v0.2V25c0,0,0,0.1,0.1,0.1h0.1c0,0,0.1,0,0.1-0.1v-1.3c0,0,0-0.1,0-0.1c0,0,0,0,0,0.1V25
			c0,0,0,0.1,0.1,0.1h0.1c0,0,0.1,0,0.1-0.1l0-1.3v-0.2v-0.7c0,0,0-0.1,0-0.1c0,0,0,0,0,0.1v0.8c0,0,0,0.1,0.1,0.1h0
			c0,0,0.1,0,0.1-0.1L89.2,22.7z"/>
	</g>
	<g>
		<path class="st7" d="M90,22.2c0.2,0,0.3-0.1,0.3-0.3c0-0.2-0.1-0.3-0.3-0.3s-0.3,0.1-0.3,0.3C89.7,22.1,89.9,22.2,90,22.2z"/>
		<path class="st7" d="M90.7,22.7c0-0.2-0.2-0.4-0.4-0.4h-0.5c-0.2,0-0.4,0.2-0.4,0.4v0.9c0,0,0,0.1,0.1,0.1h0c0,0,0.1,0,0.1-0.1
			l0-0.8c0,0,0-0.1,0-0.1c0,0,0,0,0,0.1v0.7v0.2V25c0,0,0,0.1,0.1,0.1h0.1c0,0,0.1,0,0.1-0.1v-1.3c0,0,0-0.1,0-0.1s0,0,0,0.1V25
			c0,0,0,0.1,0.1,0.1h0.1c0,0,0.1,0,0.1-0.1l0-1.3v-0.2v-0.7c0,0,0-0.1,0-0.1c0,0,0,0,0,0.1v0.8c0,0,0,0.1,0.1,0.1h0
			c0,0,0.1,0,0.1-0.1L90.7,22.7z"/>
	</g>
	<g>
		<path class="st7" d="M91.5,22.2c0.2,0,0.3-0.1,0.3-0.3c0-0.2-0.1-0.3-0.3-0.3s-0.3,0.1-0.3,0.3C91.2,22.1,91.4,22.2,91.5,22.2z"/>
		<path class="st7" d="M92.2,22.7c0-0.2-0.2-0.4-0.4-0.4h-0.5c-0.2,0-0.4,0.2-0.4,0.4v0.9c0,0,0,0.1,0.1,0.1h0c0,0,0.1,0,0.1-0.1
			l0-0.8c0,0,0-0.1,0-0.1c0,0,0,0,0,0.1v0.7v0.2V25c0,0,0,0.1,0.1,0.1h0.1c0,0,0.1,0,0.1-0.1v-1.3c0,0,0-0.1,0-0.1c0,0,0,0,0,0.1V25
			c0,0,0,0.1,0.1,0.1h0.1c0,0,0.1,0,0.1-0.1l0-1.3v-0.2v-0.7c0,0,0-0.1,0-0.1c0,0,0,0,0,0.1v0.8c0,0,0,0.1,0.1,0.1h0
			c0,0,0.1,0,0.1-0.1L92.2,22.7z"/>
	</g>
	<g>
		<path class="st7" d="M93,22.2c0.2,0,0.3-0.1,0.3-0.3c0-0.2-0.1-0.3-0.3-0.3s-0.3,0.1-0.3,0.3C92.7,22.1,92.8,22.2,93,22.2z"/>
		<path class="st7" d="M93.6,22.7c0-0.2-0.2-0.4-0.4-0.4h-0.5c-0.2,0-0.4,0.2-0.4,0.4v0.9c0,0,0,0.1,0.1,0.1h0c0,0,0.1,0,0.1-0.1
			l0-0.8c0,0,0-0.1,0-0.1c0,0,0,0,0,0.1v0.7v0.2V25c0,0,0,0.1,0.1,0.1h0.1c0,0,0.1,0,0.1-0.1v-1.3c0,0,0-0.1,0-0.1c0,0,0,0,0,0.1V25
			c0,0,0,0.1,0.1,0.1h0.1c0,0,0.1,0,0.1-0.1l0-1.3v-0.2v-0.7c0,0,0-0.1,0-0.1c0,0,0,0,0,0.1v0.8c0,0,0,0.1,0.1,0.1h0
			c0,0,0.1,0,0.1-0.1L93.6,22.7z"/>
	</g>
	<g>
		<path class="st7" d="M94.5,22.2c0.2,0,0.3-0.1,0.3-0.3c0-0.2-0.1-0.3-0.3-0.3c-0.2,0-0.3,0.1-0.3,0.3
			C94.2,22.1,94.3,22.2,94.5,22.2z"/>
		<path class="st7" d="M95.1,22.7c0-0.2-0.2-0.4-0.4-0.4h-0.5c-0.2,0-0.4,0.2-0.4,0.4v0.9c0,0,0,0.1,0.1,0.1h0c0,0,0.1,0,0.1-0.1
			l0-0.8c0,0,0-0.1,0-0.1c0,0,0,0,0,0.1v0.7v0.2V25c0,0,0,0.1,0.1,0.1h0.1c0,0,0.1,0,0.1-0.1v-1.3c0,0,0-0.1,0-0.1s0,0,0,0.1V25
			c0,0,0,0.1,0.1,0.1h0.1c0,0,0.1,0,0.1-0.1l0-1.3v-0.2v-0.7c0,0,0-0.1,0-0.1c0,0,0,0,0,0.1v0.8c0,0,0,0.1,0.1,0.1h0
			c0,0,0.1,0,0.1-0.1L95.1,22.7z"/>
	</g>
	<g>
		<path d="M84.1,26.2c0.2,0,0.3-0.1,0.3-0.3c0-0.2-0.1-0.3-0.3-0.3c-0.2,0-0.3,0.1-0.3,0.3C83.8,26,83.9,26.2,84.1,26.2z"/>
		<path d="M84.7,26.7c0-0.2-0.2-0.4-0.4-0.4h-0.5c-0.2,0-0.4,0.2-0.4,0.4v0.9c0,0,0,0.1,0.1,0.1h0c0,0,0.1,0,0.1-0.1l0-0.8
			c0,0,0-0.1,0-0.1c0,0,0,0,0,0.1v0.7v0.2v1.3c0,0,0,0.1,0.1,0.1H84c0,0,0.1,0,0.1-0.1v-1.3c0,0,0-0.1,0-0.1c0,0,0,0,0,0.1v1.3
			c0,0,0,0.1,0.1,0.1h0.1c0,0,0.1,0,0.1-0.1l0-1.3v-0.2v-0.7c0,0,0-0.1,0-0.1c0,0,0,0,0,0.1v0.8c0,0,0,0.1,0.1,0.1h0
			c0,0,0.1,0,0.1-0.1L84.7,26.7z"/>
	</g>
	<g>
		<path d="M85.6,26.2c0.2,0,0.3-0.1,0.3-0.3c0-0.2-0.1-0.3-0.3-0.3s-0.3,0.1-0.3,0.3C85.3,26,85.4,26.2,85.6,26.2z"/>
		<path d="M86.2,26.7c0-0.2-0.2-0.4-0.4-0.4h-0.5c-0.2,0-0.4,0.2-0.4,0.4v0.9c0,0,0,0.1,0.1,0.1h0c0,0,0.1,0,0.1-0.1l0-0.8
			c0,0,0-0.1,0-0.1c0,0,0,0,0,0.1v0.7v0.2v1.3c0,0,0,0.1,0.1,0.1h0.1c0,0,0.1,0,0.1-0.1v-1.3c0,0,0-0.1,0-0.1c0,0,0,0,0,0.1v1.3
			c0,0,0,0.1,0.1,0.1h0.1c0,0,0.1,0,0.1-0.1l0-1.3v-0.2v-0.7c0,0,0-0.1,0-0.1c0,0,0,0,0,0.1v0.8c0,0,0,0.1,0.1,0.1h0
			c0,0,0.1,0,0.1-0.1L86.2,26.7z"/>
	</g>
	<g>
		<path d="M87.1,26.2c0.2,0,0.3-0.1,0.3-0.3c0-0.2-0.1-0.3-0.3-0.3s-0.3,0.1-0.3,0.3C86.8,26,86.9,26.2,87.1,26.2z"/>
		<path d="M87.7,26.7c0-0.2-0.2-0.4-0.4-0.4h-0.5c-0.2,0-0.4,0.2-0.4,0.4v0.9c0,0,0,0.1,0.1,0.1h0c0,0,0.1,0,0.1-0.1l0-0.8
			c0,0,0-0.1,0-0.1c0,0,0,0,0,0.1v0.7v0.2v1.3c0,0,0,0.1,0.1,0.1h0.1c0,0,0.1,0,0.1-0.1v-1.3c0,0,0-0.1,0-0.1c0,0,0,0,0,0.1v1.3
			c0,0,0,0.1,0.1,0.1h0.1c0,0,0.1,0,0.1-0.1l0-1.3v-0.2v-0.7c0,0,0-0.1,0-0.1c0,0,0,0,0,0.1v0.8c0,0,0,0.1,0.1,0.1h0
			c0,0,0.1,0,0.1-0.1L87.7,26.7z"/>
	</g>
	<g>
		<path d="M88.6,26.2c0.2,0,0.3-0.1,0.3-0.3c0-0.2-0.1-0.3-0.3-0.3s-0.3,0.1-0.3,0.3C88.2,26,88.4,26.2,88.6,26.2z"/>
		<path d="M89.2,26.7c0-0.2-0.2-0.4-0.4-0.4h-0.5c-0.2,0-0.4,0.2-0.4,0.4v0.9c0,0,0,0.1,0.1,0.1h0c0,0,0.1,0,0.1-0.1l0-0.8
			c0,0,0-0.1,0-0.1c0,0,0,0,0,0.1v0.7v0.2v1.3c0,0,0,0.1,0.1,0.1h0.1c0,0,0.1,0,0.1-0.1v-1.3c0,0,0-0.1,0-0.1c0,0,0,0,0,0.1v1.3
			c0,0,0,0.1,0.1,0.1h0.1c0,0,0.1,0,0.1-0.1l0-1.3v-0.2v-0.7c0,0,0-0.1,0-0.1c0,0,0,0,0,0.1v0.8c0,0,0,0.1,0.1,0.1h0
			c0,0,0.1,0,0.1-0.1L89.2,26.7z"/>
	</g>
	<g>
		<path d="M90,26.2c0.2,0,0.3-0.1,0.3-0.3c0-0.2-0.1-0.3-0.3-0.3s-0.3,0.1-0.3,0.3C89.7,26,89.9,26.2,90,26.2z"/>
		<path d="M90.7,26.7c0-0.2-0.2-0.4-0.4-0.4h-0.5c-0.2,0-0.4,0.2-0.4,0.4v0.9c0,0,0,0.1,0.1,0.1h0c0,0,0.1,0,0.1-0.1l0-0.8
			c0,0,0-0.1,0-0.1c0,0,0,0,0,0.1v0.7v0.2v1.3c0,0,0,0.1,0.1,0.1h0.1c0,0,0.1,0,0.1-0.1v-1.3c0,0,0-0.1,0-0.1s0,0,0,0.1v1.3
			c0,0,0,0.1,0.1,0.1h0.1c0,0,0.1,0,0.1-0.1l0-1.3v-0.2v-0.7c0,0,0-0.1,0-0.1c0,0,0,0,0,0.1v0.8c0,0,0,0.1,0.1,0.1h0
			c0,0,0.1,0,0.1-0.1L90.7,26.7z"/>
	</g>
	<g>
		<path d="M91.5,26.2c0.2,0,0.3-0.1,0.3-0.3c0-0.2-0.1-0.3-0.3-0.3s-0.3,0.1-0.3,0.3C91.2,26,91.4,26.2,91.5,26.2z"/>
		<path d="M92.2,26.7c0-0.2-0.2-0.4-0.4-0.4h-0.5c-0.2,0-0.4,0.2-0.4,0.4v0.9c0,0,0,0.1,0.1,0.1h0c0,0,0.1,0,0.1-0.1l0-0.8
			c0,0,0-0.1,0-0.1c0,0,0,0,0,0.1v0.7v0.2v1.3c0,0,0,0.1,0.1,0.1h0.1c0,0,0.1,0,0.1-0.1v-1.3c0,0,0-0.1,0-0.1c0,0,0,0,0,0.1v1.3
			c0,0,0,0.1,0.1,0.1h0.1c0,0,0.1,0,0.1-0.1l0-1.3v-0.2v-0.7c0,0,0-0.1,0-0.1c0,0,0,0,0,0.1v0.8c0,0,0,0.1,0.1,0.1h0
			c0,0,0.1,0,0.1-0.1L92.2,26.7z"/>
	</g>
	<g>
		<path d="M93,26.2c0.2,0,0.3-0.1,0.3-0.3c0-0.2-0.1-0.3-0.3-0.3s-0.3,0.1-0.3,0.3C92.7,26,92.8,26.2,93,26.2z"/>
		<path d="M93.6,26.7c0-0.2-0.2-0.4-0.4-0.4h-0.5c-0.2,0-0.4,0.2-0.4,0.4v0.9c0,0,0,0.1,0.1,0.1h0c0,0,0.1,0,0.1-0.1l0-0.8
			c0,0,0-0.1,0-0.1c0,0,0,0,0,0.1v0.7v0.2v1.3c0,0,0,0.1,0.1,0.1h0.1c0,0,0.1,0,0.1-0.1v-1.3c0,0,0-0.1,0-0.1c0,0,0,0,0,0.1v1.3
			c0,0,0,0.1,0.1,0.1h0.1c0,0,0.1,0,0.1-0.1l0-1.3v-0.2v-0.7c0,0,0-0.1,0-0.1c0,0,0,0,0,0.1v0.8c0,0,0,0.1,0.1,0.1h0
			c0,0,0.1,0,0.1-0.1L93.6,26.7z"/>
	</g>
	<g>
		<path d="M94.5,26.2c0.2,0,0.3-0.1,0.3-0.3c0-0.2-0.1-0.3-0.3-0.3c-0.2,0-0.3,0.1-0.3,0.3C94.2,26,94.3,26.2,94.5,26.2z"/>
		<path d="M95.1,26.7c0-0.2-0.2-0.4-0.4-0.4h-0.5c-0.2,0-0.4,0.2-0.4,0.4v0.9c0,0,0,0.1,0.1,0.1h0c0,0,0.1,0,0.1-0.1l0-0.8
			c0,0,0-0.1,0-0.1c0,0,0,0,0,0.1v0.7v0.2v1.3c0,0,0,0.1,0.1,0.1h0.1c0,0,0.1,0,0.1-0.1v-1.3c0,0,0-0.1,0-0.1s0,0,0,0.1v1.3
			c0,0,0,0.1,0.1,0.1h0.1c0,0,0.1,0,0.1-0.1l0-1.3v-0.2v-0.7c0,0,0-0.1,0-0.1c0,0,0,0,0,0.1v0.8c0,0,0,0.1,0.1,0.1h0
			c0,0,0.1,0,0.1-0.1L95.1,26.7z"/>
	</g>
	<g>
		<path d="M84.1,30.1c0.2,0,0.3-0.1,0.3-0.3c0-0.2-0.1-0.3-0.3-0.3c-0.2,0-0.3,0.1-0.3,0.3C83.8,29.9,83.9,30.1,84.1,30.1z"/>
		<path d="M84.7,30.6c0-0.2-0.2-0.4-0.4-0.4h-0.5c-0.2,0-0.4,0.2-0.4,0.4v0.9c0,0,0,0.1,0.1,0.1h0c0,0,0.1,0,0.1-0.1l0-0.8
			c0,0,0-0.1,0-0.1c0,0,0,0,0,0.1v0.7v0.2v1.3c0,0,0,0.1,0.1,0.1H84c0,0,0.1,0,0.1-0.1v-1.3c0,0,0-0.1,0-0.1c0,0,0,0,0,0.1v1.3
			c0,0,0,0.1,0.1,0.1h0.1c0,0,0.1,0,0.1-0.1l0-1.3v-0.2v-0.7c0,0,0-0.1,0-0.1c0,0,0,0,0,0.1v0.8c0,0,0,0.1,0.1,0.1h0
			c0,0,0.1,0,0.1-0.1L84.7,30.6z"/>
	</g>
	<g>
		<path d="M85.6,30.1c0.2,0,0.3-0.1,0.3-0.3c0-0.2-0.1-0.3-0.3-0.3s-0.3,0.1-0.3,0.3C85.3,29.9,85.4,30.1,85.6,30.1z"/>
		<path d="M86.2,30.6c0-0.2-0.2-0.4-0.4-0.4h-0.5c-0.2,0-0.4,0.2-0.4,0.4v0.9c0,0,0,0.1,0.1,0.1h0c0,0,0.1,0,0.1-0.1l0-0.8
			c0,0,0-0.1,0-0.1c0,0,0,0,0,0.1v0.7v0.2v1.3c0,0,0,0.1,0.1,0.1h0.1c0,0,0.1,0,0.1-0.1v-1.3c0,0,0-0.1,0-0.1c0,0,0,0,0,0.1v1.3
			c0,0,0,0.1,0.1,0.1h0.1c0,0,0.1,0,0.1-0.1l0-1.3v-0.2v-0.7c0,0,0-0.1,0-0.1c0,0,0,0,0,0.1v0.8c0,0,0,0.1,0.1,0.1h0
			c0,0,0.1,0,0.1-0.1L86.2,30.6z"/>
	</g>
	<g>
		<path d="M87.1,30.1c0.2,0,0.3-0.1,0.3-0.3c0-0.2-0.1-0.3-0.3-0.3s-0.3,0.1-0.3,0.3C86.8,29.9,86.9,30.1,87.1,30.1z"/>
		<path d="M87.7,30.6c0-0.2-0.2-0.4-0.4-0.4h-0.5c-0.2,0-0.4,0.2-0.4,0.4v0.9c0,0,0,0.1,0.1,0.1h0c0,0,0.1,0,0.1-0.1l0-0.8
			c0,0,0-0.1,0-0.1c0,0,0,0,0,0.1v0.7v0.2v1.3c0,0,0,0.1,0.1,0.1h0.1c0,0,0.1,0,0.1-0.1v-1.3c0,0,0-0.1,0-0.1c0,0,0,0,0,0.1v1.3
			c0,0,0,0.1,0.1,0.1h0.1c0,0,0.1,0,0.1-0.1l0-1.3v-0.2v-0.7c0,0,0-0.1,0-0.1c0,0,0,0,0,0.1v0.8c0,0,0,0.1,0.1,0.1h0
			c0,0,0.1,0,0.1-0.1L87.7,30.6z"/>
	</g>
	<g>
		<path d="M88.6,30.1c0.2,0,0.3-0.1,0.3-0.3c0-0.2-0.1-0.3-0.3-0.3s-0.3,0.1-0.3,0.3C88.2,29.9,88.4,30.1,88.6,30.1z"/>
		<path d="M89.2,30.6c0-0.2-0.2-0.4-0.4-0.4h-0.5c-0.2,0-0.4,0.2-0.4,0.4v0.9c0,0,0,0.1,0.1,0.1h0c0,0,0.1,0,0.1-0.1l0-0.8
			c0,0,0-0.1,0-0.1c0,0,0,0,0,0.1v0.7v0.2v1.3c0,0,0,0.1,0.1,0.1h0.1c0,0,0.1,0,0.1-0.1v-1.3c0,0,0-0.1,0-0.1c0,0,0,0,0,0.1v1.3
			c0,0,0,0.1,0.1,0.1h0.1c0,0,0.1,0,0.1-0.1l0-1.3v-0.2v-0.7c0,0,0-0.1,0-0.1c0,0,0,0,0,0.1v0.8c0,0,0,0.1,0.1,0.1h0
			c0,0,0.1,0,0.1-0.1L89.2,30.6z"/>
	</g>
	<g>
		<path d="M90,30.1c0.2,0,0.3-0.1,0.3-0.3c0-0.2-0.1-0.3-0.3-0.3s-0.3,0.1-0.3,0.3C89.7,29.9,89.9,30.1,90,30.1z"/>
		<path d="M90.7,30.6c0-0.2-0.2-0.4-0.4-0.4h-0.5c-0.2,0-0.4,0.2-0.4,0.4v0.9c0,0,0,0.1,0.1,0.1h0c0,0,0.1,0,0.1-0.1l0-0.8
			c0,0,0-0.1,0-0.1c0,0,0,0,0,0.1v0.7v0.2v1.3c0,0,0,0.1,0.1,0.1h0.1c0,0,0.1,0,0.1-0.1v-1.3c0,0,0-0.1,0-0.1s0,0,0,0.1v1.3
			c0,0,0,0.1,0.1,0.1h0.1c0,0,0.1,0,0.1-0.1l0-1.3v-0.2v-0.7c0,0,0-0.1,0-0.1c0,0,0,0,0,0.1v0.8c0,0,0,0.1,0.1,0.1h0
			c0,0,0.1,0,0.1-0.1L90.7,30.6z"/>
	</g>
	<g>
		<path d="M91.5,30.1c0.2,0,0.3-0.1,0.3-0.3c0-0.2-0.1-0.3-0.3-0.3s-0.3,0.1-0.3,0.3C91.2,29.9,91.4,30.1,91.5,30.1z"/>
		<path d="M92.2,30.6c0-0.2-0.2-0.4-0.4-0.4h-0.5c-0.2,0-0.4,0.2-0.4,0.4v0.9c0,0,0,0.1,0.1,0.1h0c0,0,0.1,0,0.1-0.1l0-0.8
			c0,0,0-0.1,0-0.1c0,0,0,0,0,0.1v0.7v0.2v1.3c0,0,0,0.1,0.1,0.1h0.1c0,0,0.1,0,0.1-0.1v-1.3c0,0,0-0.1,0-0.1c0,0,0,0,0,0.1v1.3
			c0,0,0,0.1,0.1,0.1h0.1c0,0,0.1,0,0.1-0.1l0-1.3v-0.2v-0.7c0,0,0-0.1,0-0.1c0,0,0,0,0,0.1v0.8c0,0,0,0.1,0.1,0.1h0
			c0,0,0.1,0,0.1-0.1L92.2,30.6z"/>
	</g>
	<g>
		<path d="M93,30.1c0.2,0,0.3-0.1,0.3-0.3c0-0.2-0.1-0.3-0.3-0.3s-0.3,0.1-0.3,0.3C92.7,29.9,92.8,30.1,93,30.1z"/>
		<path d="M93.6,30.6c0-0.2-0.2-0.4-0.4-0.4h-0.5c-0.2,0-0.4,0.2-0.4,0.4v0.9c0,0,0,0.1,0.1,0.1h0c0,0,0.1,0,0.1-0.1l0-0.8
			c0,0,0-0.1,0-0.1c0,0,0,0,0,0.1v0.7v0.2v1.3c0,0,0,0.1,0.1,0.1h0.1c0,0,0.1,0,0.1-0.1v-1.3c0,0,0-0.1,0-0.1c0,0,0,0,0,0.1v1.3
			c0,0,0,0.1,0.1,0.1h0.1c0,0,0.1,0,0.1-0.1l0-1.3v-0.2v-0.7c0,0,0-0.1,0-0.1c0,0,0,0,0,0.1v0.8c0,0,0,0.1,0.1,0.1h0
			c0,0,0.1,0,0.1-0.1L93.6,30.6z"/>
	</g>
	<g>
		<path d="M94.5,30.1c0.2,0,0.3-0.1,0.3-0.3c0-0.2-0.1-0.3-0.3-0.3c-0.2,0-0.3,0.1-0.3,0.3C94.2,29.9,94.3,30.1,94.5,30.1z"/>
		<path d="M95.1,30.6c0-0.2-0.2-0.4-0.4-0.4h-0.5c-0.2,0-0.4,0.2-0.4,0.4v0.9c0,0,0,0.1,0.1,0.1h0c0,0,0.1,0,0.1-0.1l0-0.8
			c0,0,0-0.1,0-0.1c0,0,0,0,0,0.1v0.7v0.2v1.3c0,0,0,0.1,0.1,0.1h0.1c0,0,0.1,0,0.1-0.1v-1.3c0,0,0-0.1,0-0.1s0,0,0,0.1v1.3
			c0,0,0,0.1,0.1,0.1h0.1c0,0,0.1,0,0.1-0.1l0-1.3v-0.2v-0.7c0,0,0-0.1,0-0.1c0,0,0,0,0,0.1v0.8c0,0,0,0.1,0.1,0.1h0
			c0,0,0.1,0,0.1-0.1L95.1,30.6z"/>
	</g>
	<circle class="st0" cx="82" cy="38" r="0.9"/>
</g>
<g>
	<text transform="matrix(1 0 0 1 60.571 42.2437)"><tspan x="0" y="0" class="st1 st2">Mueren más del</tspan><tspan x="0" y="2.4" class="st1 st2">grupo con el pasar</tspan><tspan x="0" y="4.8" class="st1 st2">de los días</tspan></text>
	<text transform="matrix(1 0 0 1 62.0481 14.9683)"><tspan x="0" y="0" class="st1 st3">2 de los 16 que </tspan><tspan x="0" y="1.8" class="st1 st3">quedaban parten</tspan><tspan x="0" y="3.6" class="st1 st3">caminando a buscar </tspan><tspan x="0" y="5.4" class="st1 st3">ayuda el 12 de diciembre. </tspan><tspan x="0" y="9" class="st1 st3">Se dirigen hacia Chile,</tspan><tspan x="0" y="10.8" class="st1 st3">aunque estaban</tspan><tspan x="0" y="12.6" class="st1 st3">más cerca de Argentina. </tspan><tspan x="0" y="16.2" class="st1 st3">Luego de 10 días</tspan><tspan x="0" y="18" class="st1 st3">cruzando la cordillera</tspan><tspan x="0" y="19.8" class="st1 st3">encuentran ayuda.  </tspan></text>
	<line class="st11" x1="60.6" y1="38" x2="60.6" y2="13.9"/>
	<circle class="st0" cx="60.6" cy="38" r="0.9"/>
</g>
</svg>
