<?xml version="1.0" encoding="utf-8"?>
<!-- Generator: Adobe Illustrator 26.5.0, SVG Export Plug-In . SVG Version: 6.00 Build 0)  -->
<svg version="1.1" id="Layer_1" xmlns="http://www.w3.org/2000/svg" xmlns:xlink="http://www.w3.org/1999/xlink" x="0px" y="0px"
	 viewBox="0 0 100 86.5" style="enable-background:new 0 0 100 86.5;" xml:space="preserve">
<style type="text/css">
	.st0{fill:#CFD1D2;stroke:#BABCBE;stroke-width:0.75;stroke-miterlimit:10;}
	.st1{fill:#E4E5E6;stroke:#BABCBE;stroke-width:0.75;stroke-miterlimit:10;}
	.st2{fill:none;stroke:#919396;stroke-width:0.9381;stroke-linejoin:round;stroke-miterlimit:3.8637;}
	.st3{fill:none;stroke:#414042;stroke-width:0.75;stroke-miterlimit:10;}
	.st4{fill:none;stroke:#414042;stroke-width:0.75;stroke-miterlimit:10;stroke-dasharray:0.9716,1.2955;}
	.st5{fill:none;stroke:#414042;stroke-width:0.75;stroke-miterlimit:10;stroke-dasharray:1.5501,2.0668;}
	.st6{fill:none;stroke:#DB2323;stroke-width:0.75;stroke-miterlimit:10;}
	.st7{font-family:'SourceSans3-Regular';}
	.st8{font-size:4px;}
	.st9{font-size:1.7789px;}
	.st10{fill:#BA0000;}
	.st11{fill:none;stroke:#BA0000;stroke-width:1.2729;stroke-miterlimit:10;}
	.st12{fill:none;stroke:#BA0000;stroke-miterlimit:10;}
	.st13{fill:none;stroke:#414042;stroke-width:0.75;stroke-miterlimit:10;stroke-dasharray:1.5,1;}
</style>
<path class="st0" d="M54.6-9.1L54.6-9.1c0,0.2-0.2,0.4-0.2,0.5c-0.2,0.2-0.2,0.7-0.3,0.9l0.1,0.5c-0.1,0.3-0.5,0.7-0.1,1
	c0.9-0.1,1.8-0.2,1.4,0.9c0,0.1,0,0.1,0,0.2c0,0.1-0.1,0.4-0.2,0.5l0,0l0,0l0,0c0,0.1-0.1,0.1-0.1,0.2l0,0l0,0
	c-0.2,0.3-0.3,0.5-0.4,0.9l-0.1,0.1c-0.1,0.2-0.1,0.4-0.2,0.6c-0.1,0.1-0.4,0.5-0.7,0.6C53.6-2.1,53.5-2,53.4-2
	c-0.3,0-1.5-0.5-1.8-0.8c0.1,0.2,0.3,0.5,0.4,0.7c0,0.1,0,0.2,0,0.3c0,0.1-0.1,0.2-0.1,0.3c-0.4,0.3-0.6,1-0.8,1.5
	c-0.1,0.4-0.3,0.7-0.3,1.1c0,0.3,0.2,0.6,0.1,0.9c-0.1,0.2-0.4,0.4-0.5,0.6c-0.3,0.6-0.3,1.1-0.5,1.8c0,0,0,0,0,0.1
	c-0.1,0.7,0.3,0.6,0.1,1.6v0.1c-0.2,0,0,0,0,0l0.1,0.1c0,0.1-0.1,0.1-0.2,0.2l0,0c0,0.1-0.2,0.1-0.3,0.2l0,0
	c-0.1,0.2-0.1,0.4-0.2,0.6h-0.1c0,0,0,0.1-0.1,0.1s-0.1,0-0.2,0c0,0.1,0,0.2,0,0.4c0,0.1-0.1,0.2-0.2,0.3c0,0.1,0,0.2-0.1,0.2h-0.1
	V8.2c0,0.1,0,0.2-0.1,0.2h-0.1c-0.1-0.1,0-0.2-0.1-0.3c-0.1-0.3-0.2-0.6-0.4-0.8l0,0c-0.5,0.8-0.6,0.1-0.6,1.7
	c0,0.6-0.3,1.1-0.3,1.7c0.1,0.8,0.1,1.2-0.3,1.8c0,0.2,0.1,0.3,0.1,0.5s0,0.4,0,0.6c0.1,0.5,0.2,0.6,0.5,1.1
	c0.1,0.2,0.1,0.5,0.2,0.7h0.1c0.1,0,0.1,0,0.2,0c0.2,0.2,0.2,0.9,0.3,1.4c0.1,0.2,0.1,0.4,0.2,0.5c0.1,0.2,0.4,0.3,0.5,0.4
	c0.1,0,0.4,0.2,0.5,0.2c1,0,0.8-0.1,1.5,0.6c0.3,0.4,0.3,0.5,0.2,0.7c0,0.3-0.4,0.4-0.6,0.6c-0.2,0.1-0.3,0.4-0.4,0.4
	c-0.7,0.2-0.6,0-0.7,0c-0.2-0.2-0.3-0.3-0.5-0.1c0,0,0.4,0.2,0.5,0.3c0,0.1,0,0.1-0.1,0.2c0,0.2,0.2,0.6,0.5,0.6
	c0.2,0.2,0.1,0.3,0,0.5l0,0c0,0.1,0,0.2-0.1,0.2c0,0.2,0,0.5,0,0.7l0,0l0,0c0,0.1,0,0.1,0,0.2l0,0c0,0.1,0.8,0.6,0.9,0.7
	c0.4,0.2,0.3,0.5,0.2,0.8v0.1c0,0.1-0.1,0.3-0.1,0.4c0,0,0,0,0,0.1l0.1,0.3c0.1,0.1,0.3,0.1,0.5,0.2c0.7,0.2,0.5,0.5,0.7,1.1
	c0,0.2,0.1,0.4,0,0.6c0,0.1,0,0.2-0.1,0.3c-0.2,0.1-0.3,0.2-0.3,0.3c0,0.2,0.2,0.4,0.2,0.8c0,0.2,0,0.6,0,0.8
	c0.1,0.3,0.4,0.5,0.5,0.9c0.2,0.2,0.1,0,0.2,0.3c0.1,0,0.2,0.1,0.3,0.1c0.1,0.1,0,0.4,0.1,0.5c0.2,0.3,0.7,0.2,0.6,0.7v0.1l0,0
	c0,0,0,0,0,0.1s-0.2,0.4-0.3,0.6l0,0c0,0.1,0,0.2,0,0.2c0,0.1,0,0.1-0.1,0.2l0,0c-0.1,0.2-0.1,0.3-0.2,0.3l0,0
	c-0.1,0.1-0.1,0.2-0.3,0.2c0,0-0.2,0.1-0.2,0.2c0.2,0.4,0.3,0.8,0.3,1.2c0,0.1-0.1,0.2,0,0.4c0.1,0.3,0.3,0.5,0.3,0.8
	c0,0.1,0,0.3,0,0.5l0,0c0,0.3,0.1,0.6,0.3,0.7h0.1c0.7-0.3,0.7-0.8,1-1v0.1c0-0.1,0.1-0.2,0.2-0.3c0.2-0.2,0.6,0.3,0.8,0.6l0,0
	c0.2,0.2,0.5,0.5,0.6,0.8l0,0C56,37.7,56,37.9,56,38c0.2,0.2,0.4,0.6,0.3,0.9c-0.2,0.5-1,0.5-1.1,0.9c-0.1,0.3-0.3,0.6-0.4,0.9
	c0,0.2,0,0.5,0,0.7s0,0.3-0.1,0.5c0.1,0.2,0.2,0.4,0.2,0.6c0,0.1-0.1,0.2-0.1,0.3c0.1,0.2,0.2,0.3,0.2,0.5c-0.1,0.4-0.4,0.2-0.4,0.8
	l0,0c0.1,0.2,0.2,0.5,0.3,0.9c0,0,0,0.1-0.1,0.3l0,0c0,0.2,0,0.4,0,0.5c0.1,0.2,0.4,0.4,0.4,0.5c0.1,0.5-0.3,0.8-0.3,1
	c0,0.1,0.1,0.3,0.1,0.4c0,0.1-0.1,0.2-0.2,0.3c0,0.1,0,0.2,0,0.3c0.5,0.4,0.8,0.5,0.6,1.2l0.1,0.1c-0.1,0.3-0.7,0.5-1,0.7l-0.1,0.2
	h-0.1c0,0-0.1,0-0.1-0.1l0,0h-0.1c-0.1,0-0.5-0.4-0.6-0.6c-0.2,0.1-0.8,0.5-0.8,0.5l0,0c0.5,0.8,0.1,0.7,0.1,1
	c0,0.1,0.2,0.4,0.2,0.5s-0.2,0.3-0.4,0.4c-0.1,0-0.1,0.1-0.1,0.1c-0.1,0.3-0.2,0.4-0.4,0.5l0,0C52,52.9,51.9,53,51.7,53
	c-0.1,0.1-0.1,0.3-0.2,0.4c-0.1,0.4-0.4,0.6-0.6,0.9c-0.1,0.1-0.4,0.5-0.4,0.7c0,0.1,0.1,0.6,0,0.7c-0.1,0-0.1,0-0.2,0.1
	c0,0,0,0,0,0.1c0,0-0.1,0-0.1,0.1l0,0c-0.1,0.1,0.1,0.2-0.1,0.4H50c0,0,0,0.1-0.1,0.1s-0.2,0-0.3,0.1l0,0c-0.1,0.1-0.1,0.2,0,0.3
	c0,0,0.5,0.3,0.6,0.4c0,0.1,0,0.2,0,0.2c-0.2,0.7-0.9,1.5-0.9,1.7c-0.1,0.3,0,0.6-0.2,0.9l0,0c-0.4,0.8,0.1,1.6-0.1,1.9
	c-0.1,0.1-0.2,0.1-0.2,0.2c-0.1,0.1-0.1,0.3-0.3,0.4c-0.1,0-0.1,0.1-0.2,0.1l0,0l0,0c-0.5,0.4-1.2,0.1-1.6,0.2l0,0
	c-0.1,0.1-0.1,0.2-0.1,0.4c0,0.1-0.2,0.3-0.2,0.5c0.1,0.1,0.2,0.2,0.3,0.3c0.6,0.5,1.3-0.1,1.6,0.8l-0.1,0.3
	c-0.1,0.3-0.2,0.6-0.2,0.9c0.1,0.4,0.7,0.7,0.6,1c-0.2,0.2-0.1,0.2-0.2,0.4c0.1,0.1,0.2,0.5,0.3,0.6v0.1l-0.1,0.1
	c-0.2,0.4,0,0.7,0.2,1c0.3,0.5,0.2,0.9,0.3,1.2c0.1,0.1,0.2,0.2,0.3,0.3v0.1c0,0.1-0.1,0.1-0.1,0.2c-0.1,0-0.1,0-0.1,0l-0.1,0.1
	c-0.1,0-0.1,0-0.2,0.1c-0.1,0.1-0.2,0.2-0.3,0.4c-0.1,0.1-0.3,0.3-0.3,0.5v0.1c0.1,0,0.4,0,0.5,0.1c0.1,0.2-0.3,0.3-0.3,0.5
	c0,0.3,0.4,0.6,0.4,1c0,0.1-0.4,0.4-0.4,0.6c-0.1,0.3-0.1,0.6-0.1,0.8c0,0.1-0.1,0.2-0.2,0.3l0,0c-0.1,0-0.1,0.1-0.2,0.1l0,0l0,0
	c-0.5,0.3-1-0.5-1.5-0.6c0,0.1,0,0.4,0,0.4c-0.3,0.4-0.3,0.3-0.5,0.5s0,0.4-0.3,0.4c0,0.1-0.1,0.1-0.4,0.2l0,0c0,0-0.1,0-0.1,0.1
	l0,0c0,0.1,0.1,0.3,0.1,0.5c0,0.1-0.3,0.3-0.2,0.5c0.1,0.1,0.3,0.4,0.3,0.4c0.1,0.3-0.1,0.6-0.3,0.6c-0.2,0.2-0.6,0.2-0.8,0h-0.1
	c0,0,0,0.1-0.1,0.1l0,0c0,0-0.1,0.1-0.2,0.1h-0.1c0-0.1-0.1-0.2-0.2-0.2c-0.1,0-0.6-0.1-0.7-0.2c0.1,0.1,0.1,0.2,0.1,0.3
	c0,0.3-0.3,0.6-0.6,0.8c0,0-0.1,0-0.1,0.1c-0.1,0.1-0.2,0.1-0.4,0.2c-0.3,0-0.5-0.3-0.8-0.3l0,0C41,80,40.9,81,40.9,81.3
	c0,0.2,0.2,0.5,0.3,0.7c0.1,0.1-0.2,0.5-0.3,0.5s-0.1,0.1-0.2,0.1l0,0l0,0c-0.1,0-0.2,0.2-0.3,0.1c-0.1-0.2-0.1-0.4-0.2-0.5
	c0,0,0,0-0.1,0c0,0.2,0,0.6,0,0.7c0,0.2-0.2,0.9-0.1,1c-0.1,0.5-0.7,0.5-0.4,1c0.1,0,0.2-0.1,0.4-0.1h0.1v0.1
	c-0.1,0.1-0.2,0.3-0.2,0.5s0.7,0.3,0.4,0.7c0,0.1-0.1,0.1-0.2,0.2H40l-0.1,0.1c-0.2,0-0.5-0.2-0.7-0.1l0,0v0.1
	c0.1,0.1,0.4,0.2,0.5,0.3c0.4,0.7-0.1,0.8,0.7,1.3l0.1,0.1c-0.1,0.1-0.2,0.2-0.3,0.2l0,0c0,0-0.1,0.1-0.2,0.1l0,0l-0.1,0.1
	c-0.2,0.5,0.4,0.4-0.4,1.5c-0.1,0.2-0.3,0.2-0.4,0.4c-0.1,0.2,0,0.5,0.1,0.6h61V-9.1H54.6z"/>
<path class="st1" d="M54.9,40.2c-0.1,0.3-0.3,0.6-0.4,0.9c0,0.2,0,0.5,0,0.7c0,0.1,0.1,0.2,0.1,0.4c0,0.1-0.1,0.2-0.1,0.4
	c0,0.1,0.1,0.3,0.2,0.5c-0.2,0.2-0.4,0.5-0.4,0.8c-0.1,0.4-0.1,0,0.2,0.6l0,0c0,0.2,0.1,0.5,0.2,1c0,0,0,0.1,0,0.2l0,0
	c-0.1,0.2-0.2,0.5-0.2,0.6c0.1,0.2,0.4,0.4,0.4,0.5c0.1,0.5-0.3,0.8-0.3,1c0,0.1,0.1,0.3,0.1,0.4v0.1c-0.1,0.1-0.2,0.2-0.2,0.4
	c0.5,0.4,0.8,0.5,0.6,1.2l0.1,0.1c-0.1,0.3-0.7,0.5-1,0.7l-0.1,0.2c-0.2-0.1-0.5-0.5-0.5-0.5h-0.1c0,0-0.1,0-0.1,0.1l0,0h-0.1
	c-0.1,0-0.4,0.4-0.5,0.4s-0.2,0-0.2,0V51c0,0,0,0,0,0.1l0,0c-0.1,0-0.2,0-0.2,0v0.1c0,0,0,0,0,0.1c0.5,0.9,0.1,0.7,0.1,1
	c0,0.1,0.2,0.3,0.2,0.5c0,0.1-0.1,0.2-0.2,0.2h-0.1c0,0,0,0,0,0.1c-0.1,0-0.1,0.1-0.2,0.1c0,0.2-0.1,0.3-0.2,0.4l0,0
	c-0.1,0.1-0.3,0.1-0.4,0.2c-0.1,0-0.1,0.1-0.2,0.1c-0.1,0.1-0.1,0.3-0.2,0.4c-0.1,0.3-0.4,0.6-0.6,0.9c-0.1,0.1-0.4,0.5-0.4,0.7
	c0,0.1,0.1,0.4,0,0.6c-0.1,0-0.1,0.1-0.2,0.1l0,0c-0.4,0.2-0.1,0.3-0.3,0.5c-0.1,0-0.2,0.1-0.3,0.2l0,0c-0.2,0.1-0.3,0.2-0.2,0.4
	c0,0,0.5,0.3,0.6,0.4s0,0.2,0,0.2c-0.1,0.7-0.9,1.5-0.9,1.7c-0.1,0.3,0,0.6-0.2,0.9l0,0c-0.4,0.8,0.1,1.6-0.1,1.9
	c-0.1,0.1-0.2,0.1-0.2,0.2c-0.1,0.1-0.1,0.2-0.2,0.4l0,0l0,0c-0.6,0.3-1.2-0.2-1.6,0.2c-0.1,0-0.2,0.1-0.2,0.2
	c-0.1,0.1-0.1,0.2-0.1,0.4c0,0.1-0.2,0.3-0.2,0.5c0,0.1,0.2,0.2,0.3,0.3c0.6,0.5,1.3-0.1,1.6,0.8l-0.1,0.3c-0.1,0.3-0.2,0.6-0.2,0.9
	c0.1,0.4,0.7,0.7,0.6,1c-0.2,0.2-0.1,0.2-0.2,0.4c0.1,0.1,0.2,0.5,0.3,0.6v0.1l-0.1,0.1c-0.2,0.4,0,0.7,0.2,1
	c0.3,0.5,0.2,0.9,0.3,1.2c0.1,0.1,0.2,0.2,0.3,0.3v0.1c0,0,0,0,0,0.1c-0.1,0-0.2,0.1-0.3,0.2c-0.3,0.1-0.3,0.3-0.5,0.6
	C48.2,72.8,48,73,48,73.2v0.1c0.1,0.1,0.4,0,0.5,0.1c0.1,0.2-0.3,0.3-0.3,0.5c0,0.3,0.4,0.7,0.4,1c0,0.1-0.4,0.4-0.4,0.6
	c-0.1,0.4,0,0.8-0.3,1.2c-0.5,0.1-1-0.6-1.4-0.7c0,0-0.1,0-0.1,0.1c0,0,0,0,0,0.1h-0.1c0,0-0.1,0-0.1,0.1s0,0.5,0,0.5
	c-0.3,0.4-0.3,0.3-0.5,0.5c-0.1,0.1-0.1,0.2-0.1,0.3c0,0-0.1,0-0.2,0l0,0c-0.1,0.1-0.3,0.1-0.3,0.2c-0.1,0-0.2,0.1-0.2,0.2
	s0.1,0.3,0.1,0.5c0,0.1-0.3,0.3-0.2,0.5c0,0.1,0.3,0.4,0.3,0.4c0.1,0.2,0,0.4-0.1,0.5c-0.2,0.1-0.4,0-0.6-0.2h-0.2
	c0,0.1-0.1,0.1-0.2,0.1h-0.1c0,0,0,0,0,0.1l0,0c0-0.1-0.1-0.2-0.2-0.2c-0.1,0-0.8-0.2-0.8-0.2h-0.1v0.1h-0.1h-0.1v0.1
	c0.2,0.5,0,0.8-0.3,1c0,0-0.1,0-0.1,0.1c0,0-0.1,0-0.2,0.1c-0.3-0.1-0.6-0.5-0.9-0.3v0.1c0,0-0.1,0-0.2,0.1v0.1
	c-0.1,0.4-0.2,1.4-0.1,1.7c0,0.2,0.2,0.5,0.3,0.7c0,0.1-0.1,0.4-0.2,0.5l0,0h-0.1c-0.1-0.2-0.1-0.4-0.2-0.5c-0.1,0-0.2-0.1-0.2,0
	v0.1c-0.1,0-0.1,0-0.2,0c-0.1,0-0.1,0.7-0.1,0.8c0,0.2-0.2,0.9-0.1,1c-0.1,0.5-0.7,0.5-0.4,1c0.1,0,0.2-0.1,0.4-0.1h0.1v0.1
	c-0.1,0.2-0.2,0.3-0.2,0.5s0.7,0.3,0.4,0.7c0,0,0,0,0,0.1c-0.3,0-0.6-0.3-0.8,0l0,0c-0.1,0-0.1,0-0.2,0.1v0.1v0.1
	c0.1,0.1,0.4,0.2,0.5,0.3c0.4,0.7-0.1,0.8,0.7,1.3l0.1,0.1l-0.1,0.1l0,0c-0.1,0-0.1,0.1-0.2,0.1l0,0c-0.1,0.1-0.2,0.1-0.3,0.2
	c-0.2,0.5,0.4,0.4-0.4,1.5c-0.1,0.2-0.3,0.2-0.4,0.4c-0.1,0.2,0,0.4,0.1,0.5h-0.6l0,0c0-0.1-0.1-0.2-0.1-0.3c0-0.1,0.1-0.2,0.1-0.2
	h-0.1l-0.1,0.1h-0.1l0,0c-0.1-0.5,0.4-0.4,0.7-0.5v-0.1L39,91.2l0.1-0.1l0,0c-0.3,0-0.4,0.1-0.7,0.2h-0.1v-0.1c0-0.1,0.1-0.2,0-0.3
	l0,0h-0.1c-0.1,0-0.1,0.1-0.1,0.2l0.1,0.1c0,0.1-0.2,0.1-0.2,0.2s0,0.1,0.1,0.2v0.1c-0.1,0.1-0.2,0-0.3,0v0.1v0.1
	C37.9,92,38,92,38.1,92c0.1,0.1,0.2,0.3,0.2,0.5H9.7c0-0.1,0.1-0.2,0.1-0.2c0-0.1,0.1-0.2,0.1-0.2c0-0.1,0.1-0.2,0.1-0.3
	c0-0.5-0.1-0.9,0.2-1.3c0.2-0.1,0.3-0.3,0.4-0.4h0.1c0.1,0.3,0.6,0.8,0.9,0.8c0.2,0,0.3-0.1,0.5,0l0,0c0,0.1-0.1,0.2,0,0.3l0.1,0.1
	c0.1,0,0.2-0.1,0.3-0.2c0.2,0,0.5,0,0.7,0c0.3,0,0.5-0.1,0.7-0.2c0.9-0.2,1.3-0.6,1.5-1.6c0-0.3,0.2-0.5,0.3-0.9
	c0-0.3-0.2-0.4-0.2-0.5s0.2-0.4,0.3-0.6c0.1-0.3,0.2-1.8,0.1-2.1c0-0.1-0.1-0.1-0.1-0.2c0,0,0-0.1-0.1-0.1c-0.2-0.1-0.4-0.1-0.4-0.2
	v-0.1c0.2-0.1,0.2-0.3,0.4-0.3h0.1c0.1,0,0.1,0.1,0.1,0.2H16c0.1-0.1,0.3-0.2,0.3-0.4h-0.1c-0.1,0-0.2,0-0.3-0.1
	c0-0.2,0.2-0.2,0.3-0.4c0-0.1,0-0.2,0-0.4l0,0v-0.1c0-0.1,0.1-0.2,0.2-0.3c0-0.1,0-0.1,0-0.2h0.1c0.4,0,0.4,0.5,0.3,0.8
	c0,0.4-0.3,0.6,0.3,0.8c0.1,0,0.4,0.1,0.5,0c0.6-0.2,0.3-0.6,0.4-1c0-0.2,0.2-0.2,0.2-0.4c0-0.2-0.4-0.6-0.4-0.8
	c0-0.1,0.1-0.2,0.1-0.3c0-0.1,0-0.3,0.1-0.3s0.1,0,0.2,0.1v0.2h0.1c0.2,0,0.2-0.1,0.3-0.3c0.1-0.2,0-0.4,0.1-0.6s0.3-0.4,0.4-0.6
	s0-0.5,0.1-0.7c0.2-0.4,0.5-0.6,0.5-1c0.2-0.7-0.1-1.4-0.1-1.7c0.3-0.4,0.3-0.2,0.2-0.8c-0.2-0.4,0.2-0.7,0.3-1
	c0.1-0.3-0.2-0.7-0.1-1c0.1-0.1,0.3-0.2,0.4-0.3c0.1-0.1,0.1-0.2,0.2-0.3c0.2-0.2,0.4,0,0.7-0.6c0.2-0.1,0.2-0.3,0.3-0.4
	c0.1-0.2,0.6-0.2,0.7-0.3c0.2-0.3,0.3-0.9,0.2-1.2c-0.1-0.2-0.2-0.4-0.3-0.6c-0.1-0.2,0-0.4-0.2-0.5c-0.1-0.2-0.3-0.4-0.3-0.7
	c-0.1-0.6,0.5-0.7,0.9-1c0.1-0.1,0.2-0.3,0.3-0.4c0.5-0.3,0.5-0.1,0.6-0.8v-0.1v-0.1c0-0.2,0-0.5,0-0.7c0.1-0.3,0.4-0.2,0.6-0.5
	c0,0,0-0.1,0.1-0.1v-0.1v-0.1c0.1-0.3,0.1-0.6,0.2-0.9c0.6-1,1.8-1.1,2.2-2c0.4-0.9,0.1-2,0.4-2.9c0.1-0.2,0.3-0.3,0.4-0.5
	s0.1-0.5,0.3-0.8c0.1-0.2,0.4-0.3,0.5-0.5s0.1-0.3,0.1-0.5c0.1-0.3,0.2-0.5,0.3-0.8c0.1-0.6-0.1-1.1,0-1.6c0-0.1,0.2-0.2,0.2-0.4
	c0-0.3-0.2-1-0.2-1.2c0-0.1,0.1-0.2,0.2-0.3c0.1-0.2,0.5-0.2,0.6-0.4c0-0.2,0-0.9,0-1.1c0-0.1-0.1-0.2-0.1-0.3
	c0-0.2,0.1-0.4,0.1-0.6c0-0.2-0.5-0.3-0.3-1c0-0.1,0.7-0.9,0.8-1.1c0.1-0.2,0.1-0.6,0.5-0.7c0.1-0.1,0-0.5,0.1-0.6
	c0-0.2,0.4-0.3,0.4-0.5c0.1-0.2,0.2-0.6,0.3-0.8c0-0.1,0-0.3,0.1-0.4c0.1-0.2,0.2-0.3,0.3-0.5c0-0.1,0-0.3,0.1-0.4
	c0.2-0.1,0.3-0.1,0.5-0.1c0.1,0,0.6-0.2,0.7-0.3c0.2-0.2,0.4-0.5,0.5-0.9c0-0.1,0-0.2,0.1-0.3c0-0.2,0.1-0.3,0.1-0.5
	c0-0.1,0-0.2,0-0.3s0-0.5,0-0.6s0.3-0.1,0.2-0.3c0-0.1-0.3-0.3-0.3-0.4c-0.1-0.2-0.7-0.9-0.7-1s0.1-0.6,0.1-0.7
	c0.1-0.1,0.2-0.1,0.3-0.2c0.1-0.1,0-0.2,0-0.3c0.1-0.8-0.3-0.8-0.4-1.1c-0.1-0.4-0.1-0.9-0.2-1.3c-0.1-0.3-0.6-0.7-0.5-1
	c0.1-0.3,0.6,0,0.8-0.1c0.2-0.2,0.1-0.7,0.5-0.9c0.2-0.1,0.6,0.3,0.9-0.1c0,0,0.2-0.6,0.2-0.7c0-0.1-0.1-0.3,0-0.4
	c0.1-0.2,0.5-0.3,0.4-0.9c-0.1-0.3-0.4-0.7-0.3-1.1c0.1-0.6,0.6-0.1,0.6-0.5c0-0.2-0.3-0.4-0.1-0.6c0.1-0.1,0.3,0.1,0.5-0.1
	c0.6-0.9-0.4-2.3-0.1-2.6c0.1-0.1,0.2-0.1,0.3-0.2c0.1-0.1,0-0.2,0-0.3c0-0.3,0.2-0.2,0.1-0.6c0-0.1,0-0.1,0-0.2
	c0.1-0.2,0.3-0.1,0.3-0.4v-0.1c-0.1-0.1-0.1-0.1-0.2-0.2c0.3-0.9,0-0.7-0.1-0.9c0,0,0-0.6-0.1-0.8c-0.1-0.3-0.6-0.5-0.7-0.8
	c-0.1-0.2,0-0.5,0-0.7c0-0.1-0.1-0.2,0-0.3c0.1-0.2,0.3-0.2,0.1-0.6c0.1-0.3,0.2-0.7,0.2-1.1c0-0.1,0-0.2,0-0.3
	c0-0.1,0.1-0.1,0.1-0.3c0-0.2-0.2-0.3-0.2-0.6c0-0.6,0.3-0.4,0.3-0.7c0-0.4-0.5-0.4-0.5-0.6c0-0.3,0.5-0.4,0.4-0.9
	c0-0.3-0.3-0.5-0.3-0.8c-0.1-0.4-0.1-0.8-0.2-1.1c0-0.1-0.1-0.3-0.2-0.4c-0.1-0.3,0.1-0.8,0-1.2c-0.1-0.3-0.6-1.8-0.6-2
	c0-0.5-0.1-0.9-0.2-1.4c0-0.3-0.2-0.7-0.3-1c0-0.1-0.1-0.3-0.2-0.4c-0.1-0.4,0.1-0.6,0.2-1c0.1-0.4-0.1-0.7,0.1-1.2c0,0,0-0.1,0-0.2
	c0-0.3-0.3-0.5-0.3-0.8c-0.1-0.4-0.1-1.2-0.2-1.6c0-0.1-0.1-0.2-0.1-0.3c0-0.3,0.1-0.6,0.1-0.9c0-0.2-0.1-0.3-0.1-0.4
	c0-0.1,0-0.3,0-0.4C33,1.1,33,0.8,33,0.6c0-0.3,0.2-0.5,0.2-0.8s-0.1-0.7-0.1-1c0-0.1,0.1-0.2,0.2-0.3c0-0.1,0-1.2,0-1.4
	c0-0.2,0.2-0.2,0.2-0.4c0.1-0.2,0.3-1,0.4-1H34c0.1,0.1,0.1,0.5,0.4,0.6c0.1,0.1,0.4,0.1,0.5,0.1s0.2-0.1,0.2-0.1
	c0.2-0.1,0.5-0.2,0.2-0.5v-0.1c0.1,0,0.3,0,0.4-0.1v-0.1c-0.1-0.4,0.2-0.5,0.4-0.9h0.1l0,0c0,0.1,0,0.3,0.2,0.4l0,0
	c0.2-0.1,0.2-0.2,0.3-0.3c0.4-0.5,0.4-1.4,0.1-2c-0.1-0.1-0.2-0.4-0.2-0.5l0.1-0.1h0.1c0,0,0.1,0,0.2,0l0,0c0-0.1,0-0.2,0.2-0.2h0.1
	v-0.1c0-0.1-0.1-0.4,0.1-0.5h0.1c0.2,0.2,0.2,0.2,0.5,0.1c-0.1,0,0,0,0-0.2c0,0,0,0,0-0.1c0,0,0,0,0-0.1c0-0.1,0-0.1,0-0.2h16.4
	c0,0,0,0,0,0.1v0.2c0,0.1-0.2,0.3-0.2,0.4c-0.2,0.3-0.2,0.7-0.3,1C53.9-7.4,54-7,54-7c-0.1,0.3-0.5,0.5-0.1,0.8H54l0,0
	c0.8,0,1.4,0.1,1.4,0.9c0,0.1-0.1,0.2-0.1,0.3c0,0.1-0.1,0.2-0.2,0.3l0,0H55l-0.1,0.1h-0.1c-0.2,0.4-0.3,0.6-0.5,1l-0.1,0.1
	c-0.1,0.2-0.1,0.4-0.2,0.6c-0.1,0.1-0.3,0.3-0.5,0.5c-0.1,0.1-0.2,0.1-0.2,0.1c-0.4,0-1.5-0.5-1.8-0.8h-0.2V-3l0,0l0,0h-0.1v0.1
	c0.1,0.2,0.3,0.6,0.4,0.8c0,0.1,0,0.2,0,0.3c0,0.1-0.1,0.2-0.1,0.3c-0.4,0.3-0.7,1-0.8,1.5c-0.1,0.3-0.3,0.7-0.3,1.1
	c0,0.3,0.2,0.6,0.1,0.9c-0.1,0.1-0.4,0.4-0.5,0.5c-0.3,0.7-0.3,1.1-0.5,1.8c0,0,0,0,0,0.1C49.4,5.1,49.8,5,49.6,6v0.1
	c0.1,0.1,0.2,0,0.3,0.1L50,6.3l0,0l0,0c-0.1,0.1-0.2,0.1-0.2,0.1s0,0,0,0.1l0,0c-0.1,0-0.1,0.1-0.2,0.1c-0.1,0.1-0.1,0.3-0.2,0.5
	c-0.2,0-0.2,0.1-0.3,0.2c-0.3,0.1-0.2,0.2-0.3,0.5c0,0.1-0.1,0.2-0.2,0.3c0-0.1,0-0.2,0-0.2c-0.1-0.2-0.3-0.6-0.4-0.8L48,7.2h-0.1
	l-0.1,0.1l0,0h-0.1c-0.6,1-0.7,0.1-0.7,1.8c0,0.6-0.3,1.1-0.3,1.7c0.1,0.8,0.1,1.2-0.3,1.8c0,0.2,0.1,0.3,0.1,0.5s0,0.4,0,0.5
	c0.1,0.5,0.2,0.7,0.5,1.1c0.1,0.2,0.1,0.5,0.2,0.7h0.1c0.1,0,0.1,0,0.2,0c0.3,0.3,0.4,0.8,0.5,1.3c0,0.3,0,0.6,0.1,0.7
	s0.4,0.3,0.5,0.4c0.1,0,0.4,0.2,0.5,0.2c1,0,0.8-0.1,1.5,0.6c0.2,0.2,0.3,0.4,0.3,0.5c-0.1,0.1-0.4,0.2-0.5,0.4
	c-0.1,0.1-0.2,0.4-0.3,0.4c-0.7,0.2-0.5,0-0.7,0c-0.2-0.2-0.3-0.3-0.5,0V20v0.1l0,0v0.1v0.1c0,0,0.4,0.2,0.5,0.3c0,0,0,0.1-0.1,0.2
	c0,0.2,0.2,0.6,0.5,0.6c0.1,0.1,0.1,0.2,0.1,0.3l0,0c0,0.1-0.1,0.2-0.1,0.2c0,0.1-0.1,0.1-0.1,0.2c0,0.2,0,0.3,0,0.5l0,0
	c0,0.1-0.1,0.2-0.1,0.2l0,0c0,0.1-0.1,0.1-0.1,0.2c0,0,0.1,0.1,0.3,0.3l0,0l0,0v0.1l0.1,0.1H50c0.1,0.1,0.2,0.1,0.3,0.2h0.1
	c0.3,0.2,0.3,0.4,0.3,0.6v0.1c-0.1,0.1-0.1,0.3-0.1,0.4c0,0.1-0.1,0.2-0.1,0.3s0.1,0.3,0.1,0.3c0.1,0.1,0.3,0.1,0.5,0.1
	c0.7,0.2,0.5,0.5,0.7,1.1c0,0.1,0.1,0.2,0,0.4l-0.1,0.1c-0.3,0.2-0.4,0.4-0.4,0.5c-0.2,0.3,0.2,0.5,0.2,1c0,0.2,0,0.6,0,0.8
	c0.1,0.3,0.4,0.5,0.4,0.9c0.2,0.2,0.1,0,0.2,0.3c0.1,0.1,0.2,0.1,0.3,0.2c0.1,0.1,0,0.4,0.1,0.5c0.2,0.3,0.7,0.2,0.6,0.6l0,0
	c-0.1,0.2-0.2,0.4-0.3,0.5v0.1l0,0c0,0,0,0.1-0.1,0.1c0,0,0,0.2,0,0.3s-0.1,0.3-0.2,0.4l0,0c-0.1,0.1-0.2,0.1-0.3,0.2
	c0,0-0.2,0.1-0.2,0.2c0.2,0.4,0.3,0.8,0.3,1.2c0,0.1-0.1,0.2,0,0.4c0.1,0.3,0.3,0.5,0.3,0.8c0,0.1,0,0.3,0.1,0.5l0,0
	c0,0.3,0,0.7,0.3,0.7c0.1,0.1,0.1,0.1,0.2,0.1c0.7-0.1,0.8-0.5,0.9-0.9c0.1,0.2,0.7,0.4,1,0.3c0,0.1,0.1,0.1,0.1,0.2
	c0.1,0.2,0.4,0.4,0.5,0.7l0,0c0,0.1,0,0.2,0,0.2c0.2,0.2-0.1,0.8-0.2,1.1C55.4,39.6,55,39.8,54.9,40.2z"/>
<path class="st2" d="M54.4-9.1L54.4-9.1c0,0.1,0,0.2,0,0.3c0,0.1-0.2,0.3-0.2,0.4C54-8.2,54-7.8,53.9-7.5C53.9-7.4,54-7,54-7
	c-0.1,0.3-0.5,0.5-0.1,0.8H54l0,0c0.8,0,1.4,0.1,1.4,0.9c0,0.1-0.1,0.2-0.1,0.3c0,0.1-0.1,0.2-0.2,0.3l0,0H55l-0.1,0.1h-0.1
	c-0.2,0.4-0.3,0.6-0.5,1l-0.1,0.1c-0.1,0.2-0.1,0.4-0.2,0.6c-0.1,0.1-0.3,0.3-0.5,0.5c-0.1,0.1-0.2,0.1-0.2,0.1
	c-0.4,0-1.5-0.5-1.8-0.8h-0.2V-3l0,0l0,0h-0.1v0.1c0.1,0.2,0.3,0.6,0.4,0.8c0,0.1,0,0.2,0,0.3c0,0.1-0.1,0.2-0.1,0.3
	c-0.4,0.3-0.7,1-0.8,1.5c-0.1,0.3-0.3,0.7-0.3,1.1c0,0.3,0.2,0.6,0.1,0.9c-0.1,0.1-0.4,0.4-0.5,0.5c-0.3,0.7-0.3,1.1-0.5,1.8
	c0,0,0,0,0,0.1C49.4,5.1,49.8,5,49.6,6v0.1c0.1,0.1,0.2,0,0.3,0.1L50,6.3l0,0l0,0c-0.1,0.1-0.2,0.1-0.2,0.1s0,0,0,0.1l0,0
	c-0.1,0-0.1,0.1-0.2,0.1c-0.1,0.1-0.1,0.3-0.2,0.5c-0.2,0-0.2,0.1-0.3,0.2c-0.3,0.1-0.2,0.2-0.3,0.5c0,0.1-0.1,0.2-0.2,0.3
	c0-0.1,0-0.2,0-0.2c-0.1-0.2-0.3-0.6-0.4-0.8L48,7.2h-0.1l-0.1,0.1l0,0h-0.1c-0.6,1-0.7,0.1-0.7,1.8c0,0.6-0.3,1.1-0.3,1.7
	c0.1,0.8,0.1,1.2-0.3,1.8c0,0.2,0.1,0.3,0.1,0.5s0,0.4,0,0.5c0.1,0.5,0.2,0.7,0.5,1.1c0.1,0.2,0.1,0.5,0.2,0.7h0.1
	c0.1,0,0.1,0,0.2,0c0.3,0.3,0.4,0.8,0.5,1.3c0,0.3,0,0.6,0.1,0.7s0.4,0.3,0.5,0.4c0.1,0,0.4,0.2,0.5,0.2c1,0,0.8-0.1,1.5,0.6
	c0.2,0.2,0.3,0.4,0.3,0.5c-0.1,0.1-0.4,0.2-0.5,0.4c-0.1,0.1-0.2,0.4-0.3,0.4c-0.7,0.2-0.5,0-0.7,0c-0.2-0.2-0.3-0.3-0.5,0V20v0.1
	l0,0v0.1v0.1c0,0,0.4,0.2,0.5,0.3c0,0,0,0.1-0.1,0.2c0,0.2,0.2,0.6,0.5,0.6c0.1,0.1,0.1,0.2,0.1,0.3l0,0c0,0.1-0.1,0.2-0.1,0.2
	c0,0.1-0.1,0.1-0.1,0.2c0,0.2,0,0.3,0,0.5l0,0c0,0.1-0.1,0.2-0.1,0.2l0,0c0,0.1-0.1,0.1-0.1,0.2c0,0,0.1,0.1,0.3,0.3l0,0l0,0v0.1
	l0.1,0.1H50c0.1,0.1,0.2,0.1,0.3,0.2h0.1c0.3,0.2,0.3,0.4,0.3,0.6v0.1c-0.1,0.1-0.1,0.3-0.1,0.4c0,0.1-0.1,0.2-0.1,0.3
	s0.1,0.3,0.1,0.3c0.1,0.1,0.3,0.1,0.5,0.1c0.7,0.2,0.5,0.5,0.7,1.1c0,0.1,0.1,0.2,0,0.4l-0.1,0.1c-0.3,0.2-0.4,0.4-0.4,0.5
	c-0.2,0.3,0.2,0.5,0.2,1c0,0.2,0,0.6,0,0.8c0.1,0.3,0.4,0.5,0.4,0.9c0.2,0.2,0.1,0,0.2,0.3c0.1,0.1,0.2,0.1,0.3,0.2
	c0.1,0.1,0,0.4,0.1,0.5c0.2,0.3,0.7,0.2,0.6,0.6l0,0c-0.1,0.2-0.2,0.4-0.3,0.5v0.1l0,0c0,0,0,0.1-0.1,0.1c0,0,0,0.2,0,0.3
	s-0.1,0.3-0.2,0.4l0,0c-0.1,0.1-0.2,0.1-0.3,0.2c0,0-0.2,0.1-0.2,0.2c0.2,0.4,0.3,0.8,0.3,1.2c0,0.1-0.1,0.2,0,0.4
	c0.1,0.3,0.3,0.5,0.3,0.8c0,0.1,0,0.3,0.1,0.5l0,0c0,0.3,0,0.7,0.3,0.7c0.1,0.1,0.1,0.1,0.2,0.1c0.7-0.1,0.8-0.5,0.9-0.9
	c0.1,0.2,0.7,0.4,1,0.3c0,0.1,0.1,0.1,0.1,0.2c0.1,0.2,0.4,0.4,0.5,0.7l0,0c0,0.1,0,0.2,0,0.2c0.2,0.2-0.1,0.8-0.2,1.1
	c-0.2,0.5-0.6,0.8-0.7,1.1c-0.1,0.3-0.3,0.6-0.4,0.9c0,0.2,0,0.5,0,0.7c0,0.1,0.1,0.2,0.1,0.4c0,0.1-0.1,0.2-0.1,0.4
	c0,0.1,0.1,0.3,0.2,0.5c-0.2,0.2-0.4,0.5-0.4,0.8c-0.1,0.4-0.1,0,0.2,0.6l0,0c0,0.2,0.1,0.5,0.2,1c0,0,0,0.1,0,0.2l0,0
	c-0.1,0.2-0.2,0.5-0.2,0.6c0.1,0.2,0.4,0.4,0.4,0.5c0.1,0.5-0.3,0.8-0.3,1c0,0.1,0.1,0.3,0.1,0.4v0.1c-0.1,0.1-0.2,0.2-0.2,0.4
	c0.5,0.4,0.8,0.5,0.6,1.2l0.1,0.1c-0.1,0.3-0.7,0.5-1,0.7L54,50.8c-0.2-0.1-0.5-0.5-0.5-0.5h-0.1c0,0-0.1,0-0.1,0.1l0,0h-0.1
	c-0.1,0-0.4,0.4-0.5,0.4s-0.2,0-0.2,0v0.1c0,0,0,0,0,0.1l0,0c-0.1,0-0.2,0-0.2,0v0.1c0,0,0,0,0,0.1c0.5,0.9,0.1,0.7,0.1,1
	c0,0.1,0.2,0.3,0.2,0.5c0,0.1-0.1,0.2-0.2,0.2h-0.1c0,0,0,0,0,0.1c-0.1,0-0.1,0.1-0.2,0.1c0,0.2-0.1,0.3-0.2,0.4l0,0
	c-0.1,0.1-0.3,0.1-0.4,0.2c-0.1,0-0.1,0.1-0.2,0.1c-0.1,0.1-0.1,0.3-0.2,0.4c-0.1,0.3-0.4,0.6-0.6,0.9c-0.1,0.1-0.4,0.5-0.4,0.7
	c0,0.1,0.1,0.4,0,0.6c-0.1,0-0.1,0.1-0.2,0.1l0,0c-0.4,0.2-0.1,0.3-0.3,0.5c-0.1,0-0.2,0.1-0.3,0.2l0,0c-0.2,0.1-0.3,0.2-0.2,0.4
	c0,0,0.5,0.3,0.6,0.4s0,0.2,0,0.2c-0.1,0.7-0.9,1.5-0.9,1.7c-0.1,0.3,0,0.6-0.2,0.9l0,0c-0.4,0.8,0.1,1.6-0.1,1.9
	c-0.1,0.1-0.2,0.1-0.2,0.2c-0.1,0.1-0.1,0.2-0.2,0.4l0,0l0,0c-0.6,0.3-1.2-0.2-1.6,0.2c-0.1,0-0.2,0.1-0.2,0.2
	c-0.1,0.1-0.1,0.2-0.1,0.4c0,0.1-0.2,0.3-0.2,0.5c0,0.1,0.2,0.2,0.3,0.3c0.6,0.5,1.3-0.1,1.6,0.8L47.8,66c-0.1,0.3-0.2,0.6-0.2,0.9
	c0.1,0.4,0.7,0.7,0.6,1c-0.2,0.2-0.1,0.2-0.2,0.4c0.1,0.1,0.2,0.5,0.3,0.6V69l-0.1,0.1c-0.2,0.4,0,0.7,0.2,1
	c0.3,0.5,0.2,0.9,0.3,1.2c0.1,0.1,0.2,0.2,0.3,0.3v0.1c0,0,0,0,0,0.1c-0.1,0-0.2,0.1-0.3,0.2c-0.3,0.1-0.3,0.3-0.5,0.6
	c-0.1,0.1-0.3,0.3-0.3,0.5v0.1c0.1,0.1,0.4,0,0.5,0.1c0.1,0.2-0.3,0.3-0.3,0.5c0,0.3,0.4,0.7,0.4,1c0,0.1-0.4,0.4-0.4,0.6
	c-0.1,0.4,0,0.8-0.3,1.2c-0.5,0.1-1-0.6-1.4-0.7c0,0-0.1,0-0.1,0.1c0,0,0,0,0,0.1h-0.1c0,0-0.1,0-0.1,0.1s0,0.5,0,0.5
	c-0.3,0.4-0.3,0.3-0.5,0.5c-0.1,0.1-0.1,0.2-0.1,0.3c0,0-0.1,0-0.2,0l0,0c-0.1,0.1-0.3,0.1-0.3,0.2c-0.1,0-0.2,0.1-0.2,0.2
	s0.1,0.3,0.1,0.5c0,0.1-0.3,0.3-0.2,0.5c0,0.1,0.3,0.4,0.3,0.4c0.1,0.2,0,0.4-0.1,0.5c-0.2,0.1-0.4,0-0.6-0.2h-0.2
	c0,0.1-0.1,0.1-0.2,0.1h-0.1c0,0,0,0,0,0.1l0,0c0-0.1-0.1-0.2-0.2-0.2c-0.1,0-0.8-0.2-0.8-0.2h-0.1v0.1h-0.1h-0.1v0.1
	c0.2,0.5,0,0.8-0.3,1c0,0-0.1,0-0.1,0.1c0,0-0.1,0-0.2,0.1c-0.3-0.1-0.6-0.5-0.9-0.3v0.1c0,0-0.1,0-0.2,0.1v0.1
	c-0.1,0.4-0.2,1.4-0.1,1.7c0,0.2,0.2,0.5,0.3,0.7c0,0.1-0.1,0.4-0.2,0.5l0,0h-0.1c-0.1-0.2-0.1-0.4-0.2-0.5c-0.1,0-0.2-0.1-0.2,0
	v0.1c-0.1,0-0.1,0-0.2,0C40,83.3,40,84,40,84.1c0,0.2-0.2,0.9-0.1,1c-0.1,0.5-0.7,0.5-0.4,1c0.1,0,0.2-0.1,0.4-0.1H40v0.1
	c-0.1,0.2-0.2,0.3-0.2,0.5s0.7,0.3,0.4,0.7c0,0,0,0,0,0.1c-0.3,0-0.6-0.3-0.8,0l0,0c-0.1,0-0.1,0-0.2,0.1v0.1v0.1
	c0.1,0.1,0.4,0.2,0.5,0.3c0.4,0.7-0.1,0.8,0.7,1.3l0.1,0.1l-0.1,0.1l0,0c-0.1,0-0.1,0.1-0.2,0.1l0,0c-0.1,0.1-0.2,0.1-0.3,0.2
	c-0.2,0.5,0.4,0.4-0.4,1.5c-0.1,0.2-0.3,0.2-0.4,0.4c-0.1,0.2,0,0.4,0.1,0.5h-0.6l0,0c0-0.1-0.1-0.2-0.1-0.3c0-0.1,0.1-0.2,0.1-0.2
	h-0.1l-0.1,0.1h-0.1l0,0c-0.1-0.5,0.4-0.4,0.7-0.5v-0.1l-0.1-0.1L39,91l0,0c-0.3,0-0.4,0.1-0.7,0.2h-0.1v-0.1c0-0.1,0.1-0.2,0-0.3
	l0,0h-0.1C38,90.8,38,90.9,38,91l0.1,0.1c0,0.1-0.2,0.1-0.2,0.2s0,0.1,0.1,0.2v0.1c-0.1,0.1-0.2,0-0.3,0v0.1v0.1
	c0.1,0.1,0.2,0.1,0.3,0.1c0.1,0.1,0.2,0.3,0.2,0.5"/>
<g>
	<g>
		<line class="st3" x1="46.7" y1="61.4" x2="46" y2="61.1"/>
		<line class="st4" x1="44.7" y1="60.7" x2="43.2" y2="60.1"/>
		<polyline class="st3" points="42.6,59.9 41.9,59.6 42,58.9 		"/>
		<line class="st5" x1="42.3" y1="56.8" x2="44.3" y2="39.9"/>
		<line class="st3" x1="44.4" y1="38.8" x2="44.5" y2="38.1"/>
	</g>
</g>
<line class="st6" x1="61.7" y1="41.7" x2="65.6" y2="30"/>
<polyline class="st6" points="50.5,56.2 48.2,62 54.2,64.2 58.7,50.6 "/>
<text transform="matrix(1 0 0 1 69.0998 29.0052)" class="st7 st8">Mendoza</text>
<text transform="matrix(1 0 0 1 26.8246 38.9977)" class="st7 st8">Santiago</text>
<text transform="matrix(1 0 0 1 10.0751 10.0359)" class="st7 st9">Lugar del accidente</text>
<text transform="matrix(1 0 0 1 10.0751 17.115)" class="st7 st9">Lugar en el que giraron</text>
<text transform="matrix(1 0 0 1 10.0751 23.9175)" class="st7 st9">Frontera de Chile </text>
<text transform="matrix(1 0 0 1 10.0751 26.0175)" class="st7 st9">con Argentina</text>
<text transform="matrix(1 0 0 1 10.0751 31.4217)" class="st7 st9">Recorrido como se</text>
<text transform="matrix(1 0 0 1 10.0751 33.5217)" class="st7 st9">pretendía realizar</text>
<text transform="matrix(1 0 0 1 28.3209 60.7168)" class="st7 st8">Curicó</text>
<polygon class="st10" points="53.5,55.9 52,56.1 52.6,57.5 51.3,56.7 50.8,58.2 50.3,56.7 49,57.5 49.6,56.1 48.1,55.9 49.5,55.2 
	48.4,54.1 49.9,54.4 49.9,52.8 50.8,54.1 51.7,52.8 51.7,54.4 53.2,54 52.2,55.2 "/>
<polygon class="st10" points="9.3,9.6 7.7,9.9 8.3,11.3 7,10.5 6.6,11.9 6.1,10.5 4.8,11.3 5.4,9.9 3.9,9.7 5.2,8.9 4.2,7.8 
	5.7,8.1 5.6,6.6 6.5,7.8 7.5,6.6 7.4,8.1 8.9,7.8 7.9,8.9 "/>
<circle cx="66.2" cy="27.9" r="1.3"/>
<circle cx="44.5" cy="38.1" r="1.3"/>
<circle cx="41.9" cy="59.4" r="1.3"/>
<path d="M64.7,46.8L61,46.2c0.3-1.1,0.5-2,0.6-2.7l1-0.1v-0.1l-1-0.2c0-0.5,0-0.8-0.1-0.9c-0.2-0.1-0.4,0.2-0.7,0.6l-1-0.5v0.1
	l0.8,0.8c-0.4,0.6-0.7,1.5-1.1,2.5L56.2,44l-0.1,0.4l2.9,2.8c-0.5,1.5-0.9,2.6-0.1,2.9c0.8,0.2,1.2-0.8,1.6-2.4l4-0.4"/>
<line class="st11" x1="47.4" y1="60" x2="49.1" y2="64"/>
<line class="st11" x1="46.3" y1="62.9" x2="50.2" y2="61.1"/>
<line class="st12" x1="5.3" y1="15.2" x2="7.8" y2="17.7"/>
<line class="st12" x1="5.3" y1="17.7" x2="7.8" y2="15.2"/>
<polyline class="st6" points="55.6,56.2 56.4,57.8 58.1,57 "/>
<polyline class="st6" points="63.2,33 64,34.6 65.7,33.8 "/>
<line class="st2" x1="4.6" y1="23.4" x2="8.5" y2="23.4"/>
<line class="st13" x1="4.6" y1="31" x2="8.5" y2="31"/>
</svg>
